<svg width="116" height="90" viewBox="0 0 116 90" fill="none" xmlns="http://www.w3.org/2000/svg">
<g clip-path="url(#clip0_48_12436)">
<path fill-rule="evenodd" clip-rule="evenodd" d="M19.3512 23.8091C19.0272 19.262 18.7033 14.7158 18.5953 10.1603C18.5716 10.0598 18.5495 9.95883 18.5294 9.85719C18.5025 9.71078 18.4908 9.52507 18.4783 9.32622C18.4607 9.04832 18.4416 8.74475 18.3771 8.4869C17.9216 8.32744 17.5929 7.90101 17.8094 7.31719C17.8494 7.22719 17.8794 7.14719 17.9094 7.05719C17.9537 6.9385 18.019 6.8283 18.0996 6.73073C17.6303 6.1462 17.8869 5.02721 18.8696 5.02721C21.3796 5.02721 23.8696 5.00721 26.3796 4.81721C27.9969 4.6923 29.6055 4.6668 31.2168 4.64125C32.0565 4.62794 32.8968 4.61462 33.7396 4.58721C34.2752 4.57085 34.8105 4.55425 35.3454 4.53765C39.7146 4.40214 44.0652 4.26721 48.4396 4.26721H61.8496C62.0243 4.26639 62.1987 4.26538 62.3728 4.26436C64.3309 4.25295 66.2537 4.24174 68.2095 4.51721C69.4247 4.69254 70.6399 4.6778 71.8573 4.66304C72.6536 4.65338 73.4508 4.64371 74.2496 4.68721C74.9037 4.72424 75.556 4.77269 76.2078 4.82111C77.6684 4.92962 79.1268 5.03795 80.5995 5.01721C80.8571 5.01269 81.1156 5.00562 81.3747 4.99854C82.2626 4.97426 83.1571 4.9498 84.0396 5.02721C84.4894 5.0673 84.9353 5.13913 85.3808 5.2109C85.9355 5.30024 86.4894 5.38948 87.0496 5.41721C87.9133 5.45795 88.777 5.51695 89.6407 5.57595C90.897 5.66177 92.1533 5.74758 93.4095 5.77721C93.9666 5.79138 94.5236 5.7476 95.0817 5.70374C95.7058 5.65469 96.3313 5.60554 96.9595 5.63721C98.2395 5.70721 98.9195 6.29721 98.9695 7.59721C98.9883 7.98505 98.9484 8.36506 98.9085 8.74459C98.8846 8.97172 98.8608 9.19885 98.8495 9.42722C98.8084 10.2012 98.9163 10.9751 99.0228 11.7379C99.0455 11.9012 99.0684 12.065 99.0895 12.2272C99.2536 13.4814 99.2426 14.7287 99.2314 15.9792L99.229 16.2591C99.2489 16.5308 99.2632 16.8034 99.2695 17.0772C99.2809 17.622 99.2802 18.166 99.2739 18.7097C99.3092 19.2938 99.35 19.8759 99.3908 20.4569C99.5004 22.0197 99.6096 23.5758 99.6096 25.1472C99.6079 25.8583 99.6008 26.5712 99.5918 27.2854C99.6123 27.5023 99.6318 27.7195 99.6495 27.9372C99.7655 29.3868 99.7168 30.8433 99.6682 32.2952C99.6582 32.5961 99.6481 32.8968 99.6395 33.1972C99.6167 33.9507 99.6069 34.7043 99.6035 35.4578C99.6386 36.3405 99.6917 37.2207 99.7695 38.0972C99.9695 40.2772 100.01 42.3172 99.7596 44.4872C99.6738 45.2446 99.6302 46.0058 99.6096 46.7681C99.6096 47.6692 100 50 99.5104 51.3319C99.1964 51.9731 98.2183 52.0383 97.7692 51.5275C92.0519 52.1075 86.4789 52.0682 80.5932 51.8602L77.2906 51.7583C71.4089 51.5703 65.5311 51.3379 59.651 51.0716C47.149 50.5117 35.0526 50.1431 22.6413 51.0759L21.7159 50.0751C21.3699 49.9931 21.0692 49.7509 20.9894 49.3672C20.2894 45.9172 20.1294 42.4372 20.0994 38.9172C20.0794 35.2972 19.8894 31.6872 19.6494 28.0872C19.5545 26.6609 19.4528 25.235 19.3512 23.8091ZM23.325 48.7701C23.6205 47.8033 23.5088 46.5904 23.4089 45.5064C23.3629 45.0072 23.3195 44.535 23.3195 44.1272C23.3195 43.5736 23.3183 43.0233 23.3172 42.4745V42.4709C23.315 41.3755 23.3128 40.2855 23.3195 39.1872C23.322 38.786 23.3317 38.3842 23.3415 37.982C23.3699 36.8104 23.3983 35.636 23.2494 34.4672C23.1493 33.6712 22.9963 32.8807 22.8433 32.0899C22.706 31.3807 22.5687 30.6711 22.4694 29.9572C22.396 29.4207 22.3113 28.8883 22.2268 28.357C22.0468 27.2247 21.8675 26.0974 21.7994 24.9472C21.7117 23.447 21.7391 21.9426 21.7664 20.4389C21.7983 18.6848 21.8302 16.9316 21.6794 15.1872C21.5294 13.4472 21.1994 11.7572 20.7294 10.0672C20.6935 9.9398 20.6627 9.81038 20.6351 9.67968C20.6173 8.80916 20.6076 7.93849 20.6076 7.06768C22.2161 7.03425 23.8225 6.96276 25.4291 6.89125C27.4475 6.80141 29.4663 6.71156 31.4896 6.69721C33.504 6.68309 35.514 6.59809 37.5237 6.51309C39.784 6.4175 42.044 6.32192 44.3096 6.32722H57.1595C57.8757 6.32722 58.5929 6.32833 59.3105 6.32944C60.747 6.33166 62.186 6.33388 63.6196 6.32722C63.8719 6.32722 64.1249 6.32376 64.3783 6.3203C65.0888 6.3106 65.8019 6.30086 66.5096 6.36721C66.9528 6.4101 67.3936 6.47569 67.8344 6.54127C68.3186 6.61331 68.8027 6.68533 69.2896 6.72721C70.308 6.80828 71.3315 6.79436 72.3576 6.78041C73.3566 6.76683 74.3581 6.75322 75.3596 6.82722C77.4396 6.97722 79.4895 7.09721 81.5895 7.05721C82.8123 7.03974 84.008 7.16467 85.2061 7.28986C86.0657 7.37967 86.9265 7.46961 87.7996 7.50721C88.5757 7.54128 89.3547 7.6069 90.1344 7.67257C91.4141 7.78035 92.6957 7.88829 93.9695 7.85722C94.2604 7.85045 94.5512 7.82539 94.839 7.80059C94.9767 7.78872 95.1137 7.77692 95.2496 7.76721C95.3846 7.75721 95.5195 7.74721 95.6545 7.73847C95.7365 8.43604 95.949 9.0945 96.1616 9.75323C96.3951 10.4768 96.6288 11.2008 96.6896 11.9772C96.7432 12.6825 96.8325 13.3811 96.9218 14.0791C97.0236 14.8746 97.1253 15.6698 97.1739 16.4733L97.1696 16.6972C97.1581 17.3004 97.1746 17.902 97.206 18.5029C97.2015 19.0139 97.1914 19.5246 97.1814 20.0353C97.1632 20.955 97.1451 21.8751 97.1595 22.7972C97.1795 23.947 97.2966 25.0792 97.414 26.2142C97.4568 26.6277 97.4996 27.0415 97.5378 27.4568C97.5299 28.0117 97.5198 28.5669 97.5097 29.122C97.4691 31.3549 97.4285 33.5884 97.5324 35.8116C97.5312 36.4254 97.5335 37.0392 97.5358 37.653C97.5377 38.1477 97.5396 38.6425 97.5396 39.1372V47.6619C97.5324 48.2577 97.5333 48.8539 97.5354 49.451L95.2961 49.3319C87.1925 49.4423 79.1523 49.344 71.0384 48.9897C61.4647 48.563 51.9075 48.2161 42.3329 48.0948L38.8187 48.06C38.3577 48.0539 37.8983 48.047 37.4404 48.0401C32.5896 47.9671 27.9089 47.8966 23.325 48.7701Z" fill="url(#paint0_linear_48_12436)"/>
<path fill-rule="evenodd" clip-rule="evenodd" d="M10.7964 78.2901C10.3648 77.9171 10.384 77.1186 10.8481 76.7005C11.0249 76.2159 11.3186 75.7774 11.6071 75.3465C11.6502 75.2823 11.6931 75.2181 11.7355 75.154L11.7738 75.0386C11.8531 74.799 11.9327 74.5588 12.0296 74.3272C12.4896 73.2272 12.8596 72.1672 13.1596 71.0172C13.7096 68.8872 14.4896 66.9072 15.5196 64.9572C15.7845 64.4621 16.0623 63.9749 16.34 63.4881C16.9426 62.4315 17.5441 61.3768 18.0096 60.2472C18.0357 60.1845 18.0621 60.1204 18.089 60.0552C18.5464 58.9457 19.1345 57.5189 20.4096 57.2072C20.7071 57.1381 20.9962 57.1933 21.2289 57.3411C21.9239 57.3906 22.6082 57.554 23.2926 57.7174C23.8825 57.8583 24.4725 57.9992 25.0696 58.0672C26.4131 58.2165 27.7657 58.2875 29.1151 58.3583C29.7544 58.3919 30.393 58.4254 31.0296 58.4672C32.0215 58.527 33.0109 58.6266 34.0016 58.7263C34.9984 58.8266 35.9965 58.927 36.9996 58.9872C37.7985 59.0311 38.5974 59.0591 39.3956 59.0871C40.5958 59.1291 41.7945 59.1711 42.9896 59.2672C43.9696 59.3472 44.9471 59.4522 45.9246 59.5572C46.9021 59.6622 47.8796 59.7672 48.8596 59.8472C51.4121 60.0583 53.9441 60.0075 56.4819 59.9566C57.9111 59.9279 59.3421 59.8992 60.7796 59.9172C61.984 59.9292 63.1812 60.0381 64.3798 60.1472C65.1816 60.2201 65.984 60.2931 66.7896 60.3372C68.8896 60.4472 70.9996 60.4372 73.0996 60.4172C74.5388 60.4028 75.9819 60.4234 77.4261 60.4439C79.9955 60.4806 82.569 60.5172 85.1296 60.3572C85.8586 60.3114 86.5802 60.2379 87.3007 60.1646C88.4681 60.0457 89.6324 59.9272 90.8196 59.9272C91.444 59.9272 92.0712 59.9493 92.6991 59.9714C93.7605 60.0088 94.824 60.0463 95.8796 59.9772C96.0582 59.966 96.2402 59.9523 96.4243 59.9385C97.5598 59.853 98.7798 59.7612 99.8296 60.2172C100.775 60.6332 101.286 61.6096 101.768 62.5324C101.924 62.8298 102.076 63.1215 102.24 63.3872C103.709 65.7494 104.768 68.3295 105.825 70.9033C106.236 71.903 106.646 72.9026 107.08 73.8872C107.162 74.0731 107.257 74.2794 107.36 74.5016C108.38 76.7057 110.121 80.4669 106.96 81.2572C105.812 81.5457 104.66 81.6597 103.503 81.774C102.977 81.8261 102.448 81.8784 101.92 81.9472C101.605 81.987 101.295 82.0437 100.984 82.1004C100.436 82.2006 99.8877 82.3008 99.3196 82.3072C98.8084 82.3126 98.3001 82.2977 97.7916 82.2828L97.7906 82.2828H97.7884C97.3532 82.27 96.917 82.2572 96.4796 82.2572C95.6954 82.2649 94.9349 82.373 94.1708 82.4817L94.1692 82.482C93.9399 82.5146 93.7103 82.5472 93.4796 82.5772C92.898 82.6525 92.3165 82.6669 91.7349 82.6813C91.4665 82.6879 91.198 82.6946 90.9296 82.7072C90.1043 82.7469 89.2848 82.8373 88.466 82.9276C87.4296 83.0419 86.3943 83.156 85.3496 83.1672C84.4146 83.1772 83.4821 83.1497 82.5497 83.1222C81.6173 83.0947 80.6844 83.0672 79.7496 83.0772C79.2008 83.0829 78.652 83.0952 78.1034 83.1074C76.733 83.138 75.3635 83.1686 73.9996 83.0972C73.1642 83.0587 72.3379 82.9705 71.5122 82.8823L71.5089 82.882C70.4085 82.7646 69.3087 82.6472 68.1896 82.6472C67.3751 82.6472 66.5589 82.6709 65.7424 82.6946H65.7414C64.5735 82.7286 63.4046 82.7625 62.2396 82.7272C61.3056 82.7031 60.3763 82.6165 59.446 82.5297C58.444 82.4363 57.4408 82.3428 56.4296 82.3272C55.4442 82.3129 54.4633 82.223 53.4826 82.1331C52.4133 82.0352 51.3441 81.9372 50.2696 81.9372C49.0879 81.9309 47.9302 81.8207 46.7686 81.7102C46.0921 81.6459 45.4142 81.5814 44.7296 81.5372C43.9453 81.4869 43.1628 81.5051 42.3806 81.5234C41.2977 81.5487 40.2153 81.574 39.1296 81.4172C37.3096 81.1572 35.4996 80.9372 33.6796 80.7272C32.832 80.6294 31.993 80.486 31.1537 80.3426L31.1526 80.3424C30.1901 80.1779 29.227 80.0133 28.2496 79.9172C24.7596 79.5772 21.2296 79.5372 17.7296 79.7372C17.6147 79.7436 17.4868 79.7516 17.3479 79.7603L17.3465 79.7604C15.4563 79.8783 11.5361 80.1228 10.7964 78.2901ZM21.3496 59.9672C21.452 59.794 21.5405 59.6235 21.611 59.4525C22.0447 59.5197 22.4749 59.625 22.9049 59.7303C23.3553 59.8406 23.8057 59.9509 24.2596 60.0172C24.4104 60.0391 24.5613 60.0595 24.7125 60.0784C24.6876 61.167 24.6003 62.2521 24.4492 63.328C23.8616 63.2051 23.2776 63.067 22.6994 62.9072C22.5651 62.8713 22.3641 62.8336 22.1318 62.79C21.6022 62.6907 20.9102 62.5609 20.4756 62.3516L20.5048 62.2861L20.5396 62.2072C20.6772 61.8902 20.7662 61.5731 20.8543 61.259C20.9774 60.8201 21.099 60.3869 21.3496 59.9672ZM18.9313 65.3225C18.5136 66.0722 18.0959 66.8219 17.7196 67.5872C17.3402 68.3582 16.9774 69.1326 16.6151 69.9062C16.5347 70.0776 16.4544 70.249 16.374 70.4203C18.3821 70.5821 20.3909 70.7437 22.4003 70.9048C22.6267 70.1316 22.8861 69.3702 23.1599 68.5972C23.5415 67.5257 23.8517 66.4341 24.0921 65.3287L23.9394 65.2972C22.7994 65.0572 21.6594 64.7572 20.5394 64.4472C20.216 64.358 19.894 64.2564 19.5919 64.1233C19.3757 64.5248 19.1534 64.9238 18.9313 65.3225ZM14.9896 73.2572C15.1351 72.9767 15.2775 72.6953 15.4175 72.4132C17.579 72.5863 19.7416 72.7548 21.9045 72.923L21.8998 72.9472C21.8416 73.2509 21.793 73.5803 21.7428 73.9204C21.5947 74.9239 21.4329 76.0206 20.9699 76.8272C20.8114 77.1024 20.8029 77.3868 20.8907 77.6357C20.2496 77.6514 19.6086 77.6702 18.9674 77.689L18.9352 77.6898C17.9208 77.7195 16.9057 77.7492 15.8896 77.7672C14.9338 77.7833 13.9072 77.7735 12.9753 77.4997C13.2606 77.0561 13.4641 76.5162 13.6438 75.9927C13.7018 75.9114 13.7548 75.8328 13.7996 75.7572C14.0753 75.2938 14.2925 74.7959 14.5098 74.298C14.6629 73.9471 14.816 73.5962 14.9896 73.2572ZM23.8298 73.8172C23.8771 73.5704 23.9278 73.3264 23.9817 73.0846C26.6504 73.2924 29.3191 73.5016 31.9862 73.7204C31.857 74.2801 31.7371 74.8426 31.6595 75.4172C31.629 75.6201 31.6238 75.8277 31.6185 76.0348C31.6159 76.1369 31.6133 76.2389 31.6077 76.3401C31.4147 76.5051 31.2844 76.7508 31.2795 77.0772V77.0785C31.2795 77.2981 31.2795 77.5076 31.2595 77.7272C31.2491 77.938 31.3062 78.1217 31.4074 78.2726C30.6781 78.1369 29.9461 78.0115 29.1996 77.9472C28.8091 77.9135 28.4192 77.8762 28.0294 77.839C26.8022 77.7218 25.5767 77.6048 24.3396 77.5972C23.9038 77.5941 23.4683 77.5948 23.0329 77.5985C23.2915 77.3087 23.5098 77.0083 23.6599 76.5972C23.8027 76.2121 23.7083 75.8945 23.4968 75.6768C23.565 75.3391 23.6227 74.9987 23.6797 74.6625C23.7282 74.3765 23.7763 74.0929 23.8298 73.8172ZM33.9995 74.2672C34.0273 74.1427 34.0554 74.0184 34.0836 73.8941C36.7282 74.1139 39.3724 74.3355 42.0095 74.593C42.0057 75.6337 42.0174 76.6755 42.0291 77.7158L42.0292 77.7261C42.0359 78.3154 42.0425 78.9042 42.0462 79.4921C40.7119 79.4918 39.4313 79.4025 38.0796 79.1772C37.2595 79.0387 36.4394 78.9616 35.621 78.8846C34.9625 78.8227 34.305 78.7608 33.6496 78.6672C33.4065 78.6329 33.1645 78.5942 32.9231 78.5527C33.0282 78.4764 33.1197 78.3752 33.1895 78.2472C33.5295 77.6172 33.6495 77.0272 33.6695 76.3172C33.6895 75.6172 33.8395 74.9472 33.9995 74.2672ZM39.6327 72.3116C40.4356 72.3896 41.2385 72.4675 42.0416 72.5394C42.0632 71.8136 42.0973 71.0892 42.1494 70.3672C42.2145 69.5093 42.3003 68.6515 42.3924 67.7952C42.1216 67.7902 41.8507 67.7846 41.5794 67.7772C39.4222 67.7187 37.2756 67.4517 35.1398 67.1129C35.0978 67.8851 35.041 68.6561 34.9495 69.4272C34.8542 70.2497 34.7061 71.0597 34.5367 71.8659L35.8393 71.9672C37.1048 72.0661 38.3692 72.1889 39.6327 72.3116ZM44.1013 77.7671C44.091 76.7657 44.0807 75.7638 44.0836 74.7623C44.9055 74.8069 45.7312 74.8285 46.5567 74.8501C48.2865 74.8953 50.0158 74.9406 51.7093 75.1972C51.9465 75.2328 52.182 75.2631 52.4166 75.2886C52.4157 75.4339 52.4165 75.5801 52.4192 75.7272C52.4209 75.8412 52.4223 75.955 52.4236 76.0686C52.4306 76.6423 52.4375 77.2113 52.4792 77.7872C52.4856 77.875 52.4935 77.9633 52.5015 78.0518C52.5257 78.322 52.5501 78.5947 52.532 78.8629C52.0958 79.0688 51.985 79.5359 52.1115 79.9567C51.4115 79.9156 50.71 79.9042 50.0075 79.8928H50.0065C49.2417 79.8804 48.4754 79.8679 47.7096 79.8172C47.1653 79.7793 46.6294 79.7224 46.0956 79.6658L46.0941 79.6656C45.4364 79.5958 44.782 79.5264 44.1194 79.4933V78.9872C44.1194 78.9404 44.1168 78.8952 44.1118 78.8517C44.1087 78.4931 44.105 78.1345 44.1014 77.7757L44.1013 77.7671ZM51.6372 73.1574C51.9328 73.1959 52.2285 73.2343 52.525 73.2684C52.5886 72.5872 52.6734 71.9072 52.7602 71.2103L52.7892 70.9772C52.8934 70.1536 52.9114 69.3177 52.9007 68.4818C52.2188 68.4605 51.538 68.4287 50.8594 68.3772C50.0147 68.3199 49.1727 68.2299 48.3306 68.1399C47.5578 68.0573 46.7846 67.9746 46.0095 67.9172C45.4901 67.8786 44.9719 67.8548 44.4542 67.8384C44.3914 68.4377 44.3323 69.0374 44.2794 69.6372C44.1909 70.6584 44.1399 71.6821 44.1122 72.7071C44.4212 72.7289 44.7302 72.7491 45.0393 72.7672C46.2069 72.8316 47.3744 72.8701 48.5471 72.9087L48.5527 72.9089L48.5585 72.9091C48.8385 72.9183 49.1187 72.9276 49.3993 72.9372C50.1553 72.9646 50.8964 73.061 51.6372 73.1574ZM54.5093 77.3072C54.4802 76.6749 54.459 76.0413 54.4573 75.4083C54.8545 75.4147 55.2542 75.4132 55.6593 75.4072C57.2393 75.3772 58.8194 75.5472 60.3794 75.7672C60.7168 75.8147 61.0537 75.8672 61.3905 75.9197C61.7599 75.9772 62.1293 76.0348 62.4995 76.0858C62.5101 76.3233 62.5233 76.5605 62.5399 76.7972C62.5752 77.2954 62.6199 77.7926 62.6646 78.2898C62.7363 79.0883 62.808 79.8875 62.8412 80.69C62.7807 80.6892 62.7201 80.6883 62.6596 80.6872C61.7533 80.671 60.8528 80.5762 59.9519 80.4813H59.9509C59.1821 80.4004 58.4129 80.3194 57.6396 80.2872C56.5304 80.2404 55.4303 80.1892 54.3271 80.1186C54.6754 79.5174 54.6052 78.6168 54.5454 77.849C54.5305 77.658 54.5162 77.4751 54.5093 77.3072ZM61.7742 73.9072C62.0001 73.9412 62.2262 73.9752 62.4526 74.0088L62.4508 73.8371C62.4447 73.2434 62.4386 72.6496 62.4199 72.0572C62.3889 71.132 62.3493 70.2068 62.3083 69.2816C61.4942 69.2278 60.681 69.1453 59.8694 69.0072C58.3094 68.7372 56.8094 68.5472 55.2294 68.5272L54.9344 68.5232C54.9328 69.7184 54.8809 70.9078 54.6892 72.0972C54.6194 72.526 54.5683 72.9567 54.532 73.3887C54.8968 73.3917 55.2613 73.3886 55.626 73.3854C56.4975 73.3779 57.3708 73.3703 58.2494 73.4472C59.4322 73.5547 60.6017 73.7307 61.7742 73.9072ZM64.6199 76.9672C64.6026 76.732 64.5886 76.4963 64.5772 76.2603C65.219 76.2725 65.8608 76.2495 66.5036 76.2265C67.2967 76.1982 68.092 76.1697 68.8893 76.2072C69.54 76.239 70.1865 76.3123 70.8327 76.3855C71.3841 76.448 71.9352 76.5104 72.4884 76.5471C72.4807 76.9112 72.4686 77.2748 72.45 77.6372C72.4451 77.7276 72.44 77.8181 72.4348 77.9087C72.3975 78.5602 72.3598 79.2176 72.4301 79.8672C72.4584 80.1361 72.5579 80.4028 72.6562 80.6661C72.6935 80.766 72.7305 80.8654 72.7635 80.9643C72.6789 80.9558 72.5942 80.9467 72.5096 80.9372C70.8696 80.7472 69.2696 80.5872 67.6196 80.6072C66.9456 80.6113 66.2698 80.6304 65.5938 80.6496H65.5927L64.9299 80.6678V79.7372C64.9299 79.5499 64.8882 79.3892 64.8167 79.2551C64.7914 78.9498 64.7638 78.6447 64.7363 78.3398L64.7361 78.3381L64.7359 78.3352C64.6947 77.8793 64.6535 77.4228 64.6199 76.9672ZM70.8194 74.3272C71.3793 74.3903 71.9385 74.4318 72.4972 74.4574L72.495 74.1084C72.4926 73.7173 72.4901 73.3264 72.4901 72.9372C72.4901 72.4015 72.4945 71.8657 72.4989 71.33L72.499 71.3272L72.499 71.3238C72.5029 70.8483 72.5069 70.3729 72.5077 69.8974C71.1861 69.8169 69.8637 69.7122 68.5394 69.5772C67.3355 69.4564 66.1298 69.4224 64.9246 69.3884C64.7444 69.3833 64.5641 69.3782 64.384 69.3728C64.4226 70.2676 64.46 71.1624 64.4899 72.0572C64.5079 72.6444 64.5142 73.2342 64.5206 73.8247L64.5246 74.1931C65.3236 74.2225 66.1246 74.2149 66.9264 74.2072C68.2242 74.1947 69.5242 74.1822 70.8194 74.3272ZM74.52 77.6372C74.5382 77.283 74.5497 76.9283 74.5566 76.5732C75.0689 76.5615 75.5815 76.5412 76.0936 76.521C76.4994 76.5049 76.9048 76.4889 77.3094 76.4772C79.1789 76.4138 81.0042 76.4509 82.8363 76.5476L82.8498 76.6172C82.9373 77.0606 83.0393 77.4998 83.1411 77.9382C83.3841 78.9845 83.6261 80.0264 83.6678 81.1111C83.3082 81.1 82.9485 81.0863 82.5887 81.0726L82.5858 81.0725L82.1796 81.0572C80.9367 81.0186 79.6894 81.0456 78.4422 81.0725H78.4411C77.2739 81.0977 76.1067 81.123 74.9436 81.0944C74.941 80.7728 74.9432 80.4527 74.95 80.1372C74.95 79.7098 74.7341 79.4208 74.4417 79.2702C74.4307 78.9141 74.4581 78.5463 74.4845 78.1916C74.4986 78.0018 74.5125 77.8157 74.52 77.6372ZM79.5893 74.3572C80.5698 74.3436 81.5445 74.381 82.5169 74.4409C82.4315 73.7205 82.3644 72.9976 82.2998 72.2772L82.2701 71.9291C82.2194 71.3322 82.1687 70.7368 82.1109 70.1429C79.595 70.1448 77.0847 70.1126 74.5731 70.0044C74.5722 70.4453 74.5695 70.8863 74.5667 71.3272C74.5634 71.8639 74.5601 72.4006 74.5601 72.9372C74.5569 73.4331 74.5597 73.9289 74.5626 74.4244L74.5629 74.4903C75.4426 74.4824 76.322 74.4524 77.2022 74.4224C77.997 74.3952 78.7924 74.3681 79.5893 74.3572ZM84.9898 76.7172L84.9827 76.6853C85.3305 76.7111 85.6793 76.7385 86.0293 76.7672C89.2593 77.0272 92.5893 77.0872 95.8293 76.9072C96.159 76.8895 96.4883 76.8673 96.8173 76.8426C96.8526 76.9208 96.8898 76.999 96.9294 77.0772C97.2594 77.7272 97.4594 78.4872 97.4794 79.2072C97.4941 79.5609 97.5089 79.9049 97.5888 80.2227C97.1678 80.221 96.7427 80.2195 96.3096 80.2272C95.5396 80.2422 94.7771 80.3397 94.0146 80.4372C93.2521 80.5347 92.4896 80.6322 91.7196 80.6472C90.6533 80.6674 89.6053 80.7833 88.5539 80.8996C88.0474 80.9556 87.5401 81.0117 87.0296 81.0572C86.6003 81.0945 86.1703 81.1162 85.7398 81.1268V80.5172C85.7398 80.3558 85.7089 80.2142 85.6546 80.0922C85.5382 79.1377 85.3259 78.202 85.112 77.2591C85.0711 77.0788 85.0302 76.8982 84.9898 76.7172ZM88.1693 74.8372C90.824 74.9459 93.5115 74.989 96.1648 74.8325C96.1373 74.7378 96.109 74.6427 96.0793 74.5472C95.898 73.9577 95.6537 73.3808 95.4089 72.8029C95.2759 72.4888 95.1426 72.1741 95.0193 71.8572C94.8062 71.3037 94.5923 70.7529 94.3735 70.2052C93.8177 70.1959 93.2619 70.1734 92.7071 70.1508L92.7053 70.1508L92.4476 70.1404C92.3349 70.1359 92.2221 70.1315 92.1094 70.1272C90.4294 70.0672 88.7394 70.0872 87.0594 70.1072C86.0982 70.1181 85.1384 70.128 84.1797 70.1346C84.224 70.6 84.2643 71.0659 84.3046 71.5313C84.3262 71.7801 84.3477 72.0288 84.3698 72.2772C84.4375 73.0525 84.5132 73.8252 84.6169 74.5951L84.8292 74.6121C85.94 74.7013 87.0517 74.7905 88.1693 74.8372ZM99.4194 78.0572C99.3045 77.5595 99.153 77.1147 98.9752 76.6709C99.6026 76.6249 100.23 76.5884 100.859 76.5772C101.974 76.558 103.089 76.5634 104.204 76.5697C104.247 76.5747 104.293 76.5772 104.339 76.5772L105.988 76.5772C106.065 76.7792 106.139 76.9825 106.21 77.1872C106.229 77.2431 106.259 77.3231 106.295 77.4195C106.495 77.9616 106.888 79.0219 106.77 79.2172C106.742 79.259 106.325 79.3348 106.001 79.3939C105.86 79.4195 105.736 79.4421 105.67 79.4572C104.871 79.6137 104.066 79.6916 103.262 79.7694C102.576 79.8358 101.891 79.9021 101.21 80.0172C100.8 80.0887 100.397 80.1359 99.997 80.1668C100.052 79.7544 99.8237 79.4417 99.4981 79.2792C99.4807 79.094 99.4713 78.8686 99.4625 78.6586C99.4516 78.4003 99.4418 78.1654 99.4194 78.0572ZM98.2471 74.6934C100.248 74.5776 102.24 74.5417 104.239 74.5312C104.272 74.5286 104.305 74.5272 104.339 74.5272H105.128L104.98 74.1947C104.77 73.7237 104.56 73.2524 104.36 72.7772C104.133 72.2385 103.911 71.6975 103.69 71.1561C103.402 70.454 103.114 69.7513 102.815 69.0524C102.355 69.7803 101.304 69.805 100.519 69.7672C99.6274 69.7244 98.8016 69.8446 97.9547 69.9678C97.615 70.0172 97.2716 70.0671 96.9194 70.1072C96.8038 70.1202 96.688 70.1318 96.5723 70.142C96.6365 70.3094 96.7004 70.4768 96.7644 70.6442L96.8994 70.9972C97.0707 71.4484 97.2551 71.8997 97.4396 72.351C97.578 72.6896 97.7165 73.0285 97.8494 73.3672C98.0006 73.7475 98.1035 74.1426 98.2063 74.537L98.2471 74.6934ZM24.5127 71.0738C27.1593 71.2853 29.8068 71.4954 32.4545 71.7031C32.6668 70.7385 32.848 69.7707 32.9395 68.7772C33.0004 68.1077 33.031 67.4364 33.0569 66.764L32.7894 66.7172C31.5995 66.5108 30.4031 66.3388 29.2061 66.1667C28.1778 66.0189 27.1482 65.8709 26.1228 65.7011C25.8721 66.8714 25.5484 68.0247 25.1498 69.1472C24.9203 69.794 24.7065 70.4321 24.5127 71.0738ZM42.6216 65.7093L42.5332 65.7062C40.5403 65.6367 38.563 65.5676 36.5594 65.2772C36.1161 65.2125 35.673 65.1462 35.2301 65.0789C35.2364 64.9251 35.2428 64.7712 35.2495 64.6172C35.2765 64.001 35.4674 63.4191 35.6574 62.8399C35.8628 62.2138 36.0672 61.5907 36.0626 60.9303C37.1762 61.0158 38.2913 61.0877 39.4096 61.1272C40.4332 61.1644 41.4529 61.2295 42.4709 61.3094C42.4975 61.391 42.5365 61.4738 42.5894 61.5572H42.5794C43.119 62.4301 42.9155 63.7313 42.7436 64.831C42.6988 65.117 42.6562 65.3895 42.6294 65.6372L42.6216 65.7093ZM52.8479 66.4301C51.4541 66.3684 50.0659 66.2376 48.6782 66.1067L48.6772 66.1066C47.3857 65.9848 46.0943 65.8631 44.7994 65.7972L44.6788 65.7912L44.8194 64.5472L44.8264 64.4833C44.9357 63.4865 45.0477 62.4653 44.7938 61.5118C45.1571 61.5457 45.5203 61.5801 45.8835 61.6146L45.8895 61.6152C47.0111 61.7217 48.1339 61.8282 49.2596 61.9172C50.4563 62.0125 51.648 62.053 52.8382 62.0633L52.837 62.6787V62.6828C52.8348 63.7714 52.8325 64.8615 52.8392 65.9472C52.8411 66.1077 52.8442 66.2687 52.8479 66.4301ZM62.2201 67.2764C62.0231 67.2585 61.8262 67.2389 61.6295 67.2172C60.9556 67.146 60.2848 67.0238 59.6137 66.9015C59.0599 66.8006 58.5054 66.6996 57.9494 66.6272C56.9388 66.5 55.9232 66.4827 54.9061 66.4729C54.8853 65.0437 54.8869 63.6092 54.8884 62.1782L54.8885 62.0558C55.6601 62.0452 56.432 62.0279 57.205 62.0106C57.9316 61.9943 58.66 61.978 59.3896 61.9672C60.295 61.954 61.1982 61.9805 62.1006 62.0274C62.0935 62.0784 62.0898 62.1316 62.0898 62.1872C62.0898 63.8836 62.1483 65.58 62.2201 67.2764ZM72.4861 67.9208C71.6999 67.8661 70.9143 67.799 70.1295 67.7172C68.7504 67.5759 67.3665 67.5272 65.9837 67.4785L65.9824 67.4785C65.4212 67.4587 64.8598 67.439 64.2994 67.413C64.2265 65.6711 64.1651 63.9291 64.1599 62.1872L64.1596 62.1615C64.4253 62.1812 64.691 62.2014 64.9568 62.2216C66.5186 62.3402 68.0809 62.4589 69.6496 62.4772C70.7906 62.4905 71.9305 62.4916 73.07 62.4891C72.7692 62.6406 72.5314 62.9236 72.4901 63.3372C72.3711 64.5195 72.4125 65.7018 72.4538 66.8841C72.4659 67.2297 72.478 67.5753 72.4861 67.9208ZM81.8769 68.1349C79.436 68.1553 76.9949 68.146 74.5583 68.0381C74.5495 67.7036 74.5374 67.3699 74.5253 67.0368C74.4804 65.8003 74.4358 64.5718 74.5601 63.3372C74.6015 62.9196 74.4194 62.6361 74.1478 62.4858L74.58 62.4843H74.581C76.3728 62.4777 78.1651 62.4711 79.9596 62.4972C80.4597 62.5032 80.9608 62.5083 81.4622 62.5098C81.3996 62.6367 81.3624 62.7858 81.3598 62.9572L81.3498 62.9472C81.3298 64.5672 81.5698 66.1472 81.8198 67.7472C81.8269 67.7932 81.8339 67.8393 81.8407 67.8854C81.8531 67.9686 81.8651 68.0517 81.8769 68.1349ZM93.528 68.1776C92.7376 68.1682 91.9466 68.1457 91.1551 68.1232C89.9275 68.0883 88.698 68.0534 87.4694 68.0672C86.6536 68.0757 85.8374 68.0867 85.0209 68.0978C84.6641 68.1026 84.3071 68.1075 83.9502 68.1121C83.9403 68.0404 83.9302 67.9688 83.9198 67.8972C83.882 67.6263 83.8427 67.3562 83.8034 67.0866L83.8032 67.0856C83.6031 65.7132 83.4047 64.3527 83.4298 62.9572C83.4325 62.7782 83.3968 62.6236 83.3331 62.4932C83.8725 62.4805 84.4116 62.4596 84.9496 62.4272C85.6729 62.3836 86.3905 62.3021 87.1074 62.2206C88.0358 62.1151 88.9629 62.0098 89.8996 61.9872C90.3889 61.9746 90.8783 61.9759 91.3676 61.9843C91.457 63.5607 91.966 64.9496 92.6794 66.3572C92.9784 66.9586 93.2594 67.5657 93.528 68.1776ZM102.06 67.3633C101.504 66.1971 100.873 65.0786 100.18 63.9672C100.048 63.7572 99.9348 63.5253 99.8215 63.2929C99.6596 62.9608 99.4973 62.6278 99.2796 62.3572C98.9896 61.9872 98.5696 61.9672 98.1096 61.9472C97.4651 61.9147 96.8236 61.9585 96.1819 62.0022C95.6386 62.0393 95.0951 62.0764 94.5496 62.0672C94.184 62.0625 93.8183 62.0533 93.4527 62.0426C93.5582 63.4309 94.1289 64.5947 94.7337 65.828C94.7921 65.947 94.8508 66.0666 94.9094 66.1872C95.2237 66.8324 95.5124 67.4896 95.7867 68.1531C96.3602 68.1158 96.9217 68.0191 97.483 67.9225C98.0709 67.8213 98.6586 67.7201 99.2595 67.6872C99.5489 67.6724 99.8273 67.6906 100.111 67.7091C100.21 67.7156 100.309 67.7221 100.409 67.7272C100.491 67.7363 100.577 67.7351 100.663 67.7338C100.718 67.733 100.774 67.7322 100.828 67.7343C101.041 67.4036 101.426 67.1923 101.919 67.3272C101.968 67.3393 102.014 67.3513 102.06 67.3633ZM101.229 67.7191C101.23 67.7215 101.221 67.7308 101.198 67.7396C101.216 67.7211 101.227 67.7167 101.229 67.7191ZM33.1449 64.7552C32.4756 64.6495 31.8066 64.5426 31.1378 64.4357L31.1272 64.434L31.1252 64.4337C29.8628 64.232 28.6011 64.0304 27.3394 63.8372C27.0525 63.7931 26.7655 63.7479 26.4788 63.701C26.6414 62.5601 26.7374 61.4106 26.7687 60.2646C27.3023 60.2988 27.8365 60.3255 28.3696 60.352C28.6633 60.3667 28.9568 60.3813 29.2496 60.3972C30.7198 60.4796 32.1863 60.6053 33.6531 60.731L33.9768 60.7587C34.0087 61.3889 33.7955 62.003 33.5816 62.6192C33.4076 63.1204 33.2331 63.6231 33.1895 64.1372C33.1722 64.3432 33.1576 64.5492 33.1449 64.7552Z" fill="url(#paint1_linear_48_12436)"/>
<path fill-rule="evenodd" clip-rule="evenodd" d="M105.849 29.8072C105.813 27.9849 105.626 26.1841 105.403 24.3851C105.379 21.7419 105.29 19.0975 105.18 16.4572C105.101 14.5611 104.908 12.6714 104.714 10.7812C104.538 9.05862 104.362 7.33565 104.272 5.60708C104.347 4.22226 104.326 2.76155 103.249 1.8572C102.143 0.924865 100.512 1.04786 99.099 1.15449C98.8903 1.17023 98.6863 1.18562 98.4895 1.1972C96.7687 1.30565 95.0271 1.27819 93.2947 1.25087C92.6311 1.24041 91.9687 1.22996 91.3095 1.22719C90.1596 1.22244 89.0277 1.32607 87.8956 1.42972C86.6453 1.54419 85.3948 1.65869 84.1195 1.6272C82.3024 1.58323 80.4853 1.58893 78.6687 1.59462C75.5267 1.60447 72.3861 1.61432 69.2495 1.36719C67.9828 1.26976 66.7161 1.22492 65.4495 1.18008C64.2461 1.13748 63.0428 1.09489 61.8395 1.00719C59.6567 0.850658 57.4815 0.845379 55.3007 0.840086C54.9737 0.839292 54.6467 0.838498 54.3195 0.837195C51.7695 0.837195 49.2494 0.717194 46.7094 0.547194C46.1732 0.51511 45.6369 0.506136 45.1007 0.497161C44.4669 0.486555 43.8332 0.475949 43.1994 0.427199C42.6466 0.387708 42.0995 0.31356 41.5522 0.239393C40.8523 0.144535 40.1522 0.0496456 39.4395 0.0271972C37.7789 -0.0261553 36.1049 0.00944396 34.4325 0.0450116C33.5972 0.0627762 32.7622 0.0805329 31.9295 0.0871948C29.3695 0.107195 26.8195 0.147198 24.2595 0.247198C24.0831 0.253651 23.9072 0.259795 23.7316 0.265926C21.4583 0.345304 19.2503 0.422405 17.0595 1.1372C16.7285 1.24753 16.3784 1.3325 16.0288 1.41738C15.6179 1.51712 15.2076 1.61672 14.8294 1.75719C14.0794 2.03719 13.9695 2.6772 13.9195 3.3872C13.8818 3.92018 13.8847 4.45897 13.8876 4.99887C13.8901 5.46179 13.8926 5.92559 13.8695 6.3872C13.8601 6.56643 13.85 6.7459 13.8399 6.92553C13.5046 7.26593 13.3845 7.79476 13.774 8.22251C13.7534 8.7649 13.746 9.30715 13.7694 9.8472C13.8205 11.1511 14.0868 12.4292 14.3535 13.709C14.4828 14.3292 14.6121 14.9499 14.717 15.5739C14.7819 16.8067 14.8095 18.0419 14.8095 19.2772C14.8213 21.5702 14.7877 23.8667 14.7541 26.1625C14.7308 27.7515 14.7076 29.3402 14.6994 30.9272C14.6963 31.531 14.6927 32.135 14.6891 32.7391L14.6891 32.7439C14.6485 39.5664 14.6078 46.3988 15.3257 53.1826C15.3092 53.1975 15.2928 53.2127 15.2766 53.2281C14.97 53.3491 14.7223 53.6058 14.6698 53.9982C14.3062 54.5824 14.0288 55.2601 13.8121 55.7895C13.7576 55.9227 13.7069 56.0466 13.6596 56.1572C13.3096 56.9872 12.9796 57.8372 12.6696 58.6872C12.4744 59.2153 12.332 59.7501 12.1893 60.2857C12.0834 60.6831 11.9774 61.0811 11.8496 61.4772C11.3372 63.0359 10.3118 64.3353 9.28463 65.637C8.38755 66.7739 7.48906 67.9125 6.92963 69.2272C6.58226 70.0377 6.20373 70.8285 5.802 71.6051C5.59021 71.9366 5.37896 72.2685 5.16774 72.6002C4.06873 74.3265 2.9704 76.0518 1.79962 77.7272C1.31593 78.421 0.814947 79.3412 0.479272 80.3188C0.0845744 81.0987 -0.130912 81.9036 0.086322 82.7238C0.124123 83.4053 0.320088 84.0466 0.739624 84.5872C2.11962 86.3672 4.80961 86.7472 6.90961 86.9472C9.72961 87.2272 12.5796 87.3372 15.4096 87.3472C15.9474 87.3505 16.4852 87.3519 17.023 87.3533H17.024C19.7155 87.3602 22.4062 87.3672 25.0896 87.6172C28.4396 87.9372 31.7896 88.1872 35.1396 88.4172C37.3914 88.5758 39.6445 88.7903 41.8987 89.005C46.1811 89.4127 50.4686 89.821 54.7596 89.8472C56.808 89.8593 58.8454 89.7245 60.8829 89.5897L60.888 89.5894C62.2106 89.5019 63.5338 89.4144 64.8596 89.3672C66.1632 89.3187 67.4718 89.3078 68.7812 89.2968H68.7822C70.7167 89.2806 72.6537 89.2644 74.5796 89.1272C75.1787 89.0844 75.7748 89.0204 76.3709 88.9564C77.3068 88.856 78.2427 88.7555 79.1896 88.7372C80.5021 88.7072 81.8145 88.7278 83.127 88.7484C83.5645 88.7553 84.0021 88.7622 84.4396 88.7672C85.0115 88.7708 85.5841 88.7751 86.157 88.7794H86.1645C88.7547 88.7987 91.3542 88.8181 93.9396 88.7772C95.2993 88.7598 96.6437 88.5828 97.9927 88.4052L97.9954 88.4049C98.1934 88.3788 98.3914 88.3528 98.5896 88.3272C100.36 88.0872 102.07 88.0172 103.85 88.0172C104.685 88.0172 105.499 87.9165 106.313 87.8158C106.951 87.7369 107.59 87.6579 108.24 87.6272C108.597 87.6105 108.958 87.6193 109.319 87.628C110.258 87.6508 111.195 87.6735 112.07 87.2472C114.347 86.138 115.131 83.2753 115.083 80.9478C115.143 80.4182 115.139 79.881 115.07 79.3472C114.961 78.4878 114.662 77.7724 114.265 77.0822C114.031 76.4389 113.768 75.8027 113.506 75.166C113.116 74.2222 112.726 73.2775 112.43 72.3072C112.049 71.0525 111.611 69.8268 111.173 68.5991C111.035 68.2123 110.896 67.8253 110.76 67.4372L110.722 67.3272C110.204 65.833 109.681 64.3229 108.93 62.9272C108.11 61.3872 107.42 59.9172 106.96 58.2272C106.815 57.6859 106.681 57.1412 106.546 56.5962C106.367 55.8684 106.187 55.1393 105.982 54.4174C106.192 53.7782 106.204 53.0395 106.159 52.2572C106.123 51.6239 106.046 50.996 105.97 50.3692C105.899 49.7886 105.828 49.2091 105.789 48.6272C105.732 47.7317 105.742 46.8363 105.752 45.9408C105.756 45.5963 105.759 45.2517 105.759 44.9072C105.759 44.0576 105.756 43.2068 105.753 42.3557C105.746 40.6526 105.739 38.9473 105.759 37.2472C105.769 36.4206 105.788 35.5941 105.807 34.7675C105.845 33.1141 105.883 31.4606 105.849 29.8072ZM17.5495 53.5374L17.5695 53.5372C17.8295 53.5172 18.0595 53.5172 18.3195 53.5472C18.689 53.5917 19.041 53.6514 19.3882 53.7103C20.0558 53.8235 20.7059 53.9338 21.4295 53.9272C21.7025 53.9226 21.976 53.9164 22.2498 53.9103L22.2511 53.9102C23.1704 53.8895 24.0929 53.8687 25.0095 53.9072C25.5995 53.9322 26.1895 53.9872 26.7795 54.0422C27.3695 54.0972 27.9595 54.1522 28.5495 54.1772C29.3032 54.21 30.0569 54.2213 30.8099 54.2325C32.3547 54.2557 33.8967 54.2788 35.4295 54.4872C37.8495 54.8172 40.1695 55.0872 42.6095 55.1172C45.0495 55.1372 47.4995 55.1472 49.9395 55.1372C51.0232 55.1327 52.1074 55.1293 53.192 55.1258C56.9813 55.1137 60.7754 55.1016 64.5695 55.0472C66.8685 55.0092 69.163 54.908 71.4562 54.8069C73.9907 54.6951 76.5238 54.5834 79.0595 54.5572C81.4845 54.5322 83.9045 54.6747 86.3245 54.8172C88.7445 54.9597 91.1644 55.1022 93.5894 55.0772C94.7875 55.0654 95.9786 54.9735 97.1689 54.8816C97.9953 54.8179 98.8217 54.7541 99.6494 54.7172C99.8831 54.7075 100.122 54.7024 100.364 54.6971C101.374 54.6752 102.433 54.6522 103.369 54.2972C103.444 54.2687 103.51 54.2414 103.571 54.214C103.209 54.0894 102.92 53.7804 102.92 53.2872C102.92 51.5131 102.909 49.7389 102.898 47.9648C102.883 45.5989 102.868 43.2331 102.88 40.8672C102.891 38.57 102.998 36.2792 103.106 33.9876C103.188 32.229 103.271 30.47 103.31 28.7072C103.343 27.1945 103.347 25.679 103.331 24.1633C103.215 23.183 103.085 22.2036 102.955 21.2239L102.955 21.2229C102.668 19.0659 102.382 16.9079 102.239 14.7372C102.101 12.6731 102.105 10.609 102.108 8.54488C102.109 8.21899 102.109 7.89309 102.109 7.5672C102.109 6.87242 102.127 6.18211 102.145 5.49328C102.152 5.24074 102.158 4.98755 102.164 4.73527C102.158 4.53936 102.153 4.34336 102.15 4.14723C102.149 4.12451 102.149 4.10217 102.15 4.08024C102.062 3.4474 101.678 3.21641 100.899 3.15719C100.292 3.1047 99.6845 3.15345 99.077 3.2022C98.8745 3.21845 98.672 3.2347 98.4695 3.2472C97.6966 3.29222 96.9182 3.28657 96.1426 3.28094C95.8845 3.27907 95.6267 3.2772 95.3695 3.2772C94.7777 3.27969 94.1834 3.27159 93.5882 3.26348C91.7997 3.23909 90.0027 3.21459 88.2395 3.47719C86.5125 3.73473 84.774 3.70539 83.0328 3.67601C82.4752 3.66661 81.9173 3.65719 81.3595 3.65719H74.2094C72.8316 3.65719 71.4645 3.5603 70.0953 3.46325C69.1789 3.3983 68.2616 3.33328 67.3394 3.29719C64.9695 3.19719 62.6095 3.0772 60.2395 2.9472C58.4836 2.85088 56.7223 2.86435 54.9635 2.87779C54.3484 2.8825 53.7336 2.8872 53.1195 2.8872C51.441 2.8872 49.7878 2.78603 48.1275 2.68443C47.4534 2.64318 46.7781 2.60185 46.0995 2.5672C45.6593 2.54443 45.2177 2.5375 44.7758 2.53057C44.053 2.51923 43.3293 2.50787 42.6095 2.4272C42.2442 2.38841 41.881 2.34022 41.5182 2.29208C40.7587 2.19129 40.001 2.09074 39.2295 2.0772C37.6883 2.05119 36.1429 2.08015 34.5988 2.10909C33.7684 2.12465 32.9383 2.14021 32.1095 2.1472C29.6895 2.1672 27.2695 2.2072 24.8495 2.2872C24.4742 2.30014 24.0976 2.30915 23.7206 2.31818C21.7667 2.36496 19.8004 2.41203 17.9395 3.00719C17.7528 3.0672 17.5673 3.12942 17.3817 3.19164C17.0106 3.31609 16.6395 3.44053 16.2595 3.54719C16.2157 3.56053 16.162 3.57896 16.1022 3.59949C16.073 3.60954 16.0423 3.62009 16.0105 3.6308C16.0115 3.74042 16.0022 3.8607 15.9935 3.97297C15.9863 4.06695 15.9795 4.1554 15.9795 4.22719C15.9995 4.71719 15.9995 5.2072 15.9795 5.7072C15.9656 6.06887 15.9476 6.42906 15.9296 6.7881C15.9131 7.11783 15.8966 7.44679 15.8835 7.77489C15.9407 8.00128 15.9651 8.24691 15.9894 8.52718C16.0477 9.18773 16.1521 9.83988 16.2565 10.4918C16.3133 10.8465 16.3701 11.2013 16.4194 11.5572C16.618 13.0062 16.7355 14.466 16.8036 15.9287C17.1596 19.1121 17.1595 22.2922 17.1595 25.6689V25.8072C17.1595 27.3206 17.14 28.8398 17.1205 30.3612C17.0775 33.7155 17.0343 37.0807 17.1994 40.4172C17.2381 41.2053 17.2929 41.9909 17.3477 42.7763C17.4486 44.2231 17.5495 45.6688 17.5495 47.1272V53.5374ZM104.058 56.2184C102.954 56.6174 101.716 56.6717 100.558 56.7224L100.449 56.7272C99.5607 56.7648 98.6764 56.8356 97.7934 56.9063C96.7987 56.9859 95.8054 57.0654 94.8095 57.0972C92.2395 57.1772 89.6695 57.0772 87.1095 56.8972C81.9995 56.5372 76.9395 56.6172 71.8195 56.8372C61.5095 57.2872 51.1095 57.3372 40.7895 57.1272C39.4698 57.1006 38.1728 56.9098 36.8759 56.7189C35.7355 56.5511 34.5951 56.3833 33.4395 56.3272C32.5233 56.2829 31.6086 56.2617 30.6941 56.2406C29.1333 56.2046 27.5733 56.1685 26.0095 56.0172C25.0276 55.9239 24.0342 55.9474 23.0412 55.971C21.587 56.0055 20.1338 56.04 18.7195 55.7072C18.384 55.6262 17.9708 55.623 17.5446 55.6197C17.2284 55.6173 16.9049 55.6148 16.601 55.5804C16.2693 57.6253 15.3502 59.4216 14.4028 61.2731C14.1809 61.7067 13.9574 62.1436 13.7396 62.5872C12.5625 64.9826 11.1347 67.1408 9.67925 69.3408L9.67869 69.3416L9.67813 69.3425C9.36583 69.8145 9.05226 70.2885 8.73962 70.7672C8.35491 71.3582 7.97066 71.9493 7.58647 72.5402L7.47033 72.7188C7.34937 72.9576 7.22798 73.1963 7.10637 73.4355L7.10247 73.4432C6.97501 73.6939 6.84731 73.9451 6.7196 74.1972C6.08333 75.4612 5.3391 76.6102 4.57849 77.7844C4.44255 77.9942 4.30608 78.2049 4.16962 78.4172C4.03344 78.625 3.90497 78.8342 3.77684 79.0427C3.54743 79.4162 3.31911 79.7878 3.04962 80.1472C2.97002 80.2549 2.88055 80.3659 2.78853 80.48C2.69299 80.5985 2.59458 80.7206 2.50174 80.8458C2.47291 80.9391 2.44104 81.0365 2.40822 81.1369C2.2777 81.536 2.13212 81.9811 2.10293 82.3944C2.61127 83.6133 5.43382 83.8154 6.61956 83.9003L6.62233 83.9005L6.62354 83.9006C6.70769 83.9066 6.78352 83.912 6.84961 83.9172C8.06871 84.0083 9.28215 84.1559 10.4965 84.3037C12.0809 84.4964 13.6677 84.6892 15.2696 84.7572C16.4042 84.8076 17.5506 84.7724 18.6987 84.737H18.6998C20.7386 84.6743 22.7841 84.6114 24.7796 85.0272C26.4596 85.3772 28.0796 85.7072 29.7896 85.8172C31.3596 85.9272 32.9296 85.9372 34.4996 85.9372C37.5305 85.9466 40.5392 86.2626 43.5455 86.5784C46.9171 86.9326 50.2858 87.2865 53.6796 87.2072C55.3496 87.1772 56.9896 87.0872 58.6496 86.8472C59.9964 86.6548 61.3432 86.6765 62.6967 86.6984C62.8908 86.7015 63.0851 86.7047 63.2796 86.7072L63.2829 86.7072C66.5618 86.7472 69.8307 86.7871 73.0796 86.4572C76.1139 86.1479 79.2789 86.259 82.331 86.3661H82.332L82.6496 86.3772C82.9549 86.3863 83.2603 86.3967 83.5656 86.4071C84.9403 86.4539 86.315 86.5008 87.6896 86.4272C88.3943 86.391 89.0948 86.3161 89.7959 86.2412C90.6469 86.1502 91.4988 86.0591 92.3596 86.0372C92.77 86.0279 93.1799 86.0235 93.5894 86.0191C94.9558 86.0043 96.3178 85.9895 97.6796 85.7972C99.0896 85.6072 100.48 85.5472 101.91 85.5772C104.81 85.6272 107.62 85.5872 110.27 84.2672C111.48 83.6672 112.45 82.8772 112.86 81.5572C112.917 81.3726 112.964 81.185 112.998 80.9957C112.959 79.865 112.682 78.7282 112.284 77.737C112.11 77.4569 111.932 77.1813 111.754 76.9064C111.267 76.1529 110.783 75.4037 110.39 74.5772C109.993 73.7456 109.703 72.8771 109.412 72.0059C109.248 71.5152 109.083 71.0236 108.9 70.5372C108.466 69.3724 107.997 68.2135 107.529 67.0559L107.527 67.0526C107.381 66.6908 107.235 66.3288 107.09 65.9672C106.961 65.648 106.83 65.3342 106.699 65.0223C106.269 63.9956 105.848 62.9893 105.58 61.8772C105.495 61.5167 105.414 61.1562 105.334 60.7964L105.334 60.7948C105.082 59.6676 104.831 58.5459 104.46 57.4472C104.32 57.0395 104.181 56.6308 104.058 56.2184Z" fill="url(#paint2_linear_48_12436)"/>
</g>
<defs>
<linearGradient id="paint0_linear_48_12436" x1="57.5627" y1="0" x2="57.5627" y2="89.8479" gradientUnits="userSpaceOnUse">
<stop stop-color="#DA48A2"/>
<stop offset="1" stop-color="#FB4B37"/>
</linearGradient>
<linearGradient id="paint1_linear_48_12436" x1="57.5627" y1="0" x2="57.5627" y2="89.8479" gradientUnits="userSpaceOnUse">
<stop stop-color="#DA48A2"/>
<stop offset="1" stop-color="#FB4B37"/>
</linearGradient>
<linearGradient id="paint2_linear_48_12436" x1="57.5627" y1="0" x2="57.5627" y2="89.8479" gradientUnits="userSpaceOnUse">
<stop stop-color="#DA48A2"/>
<stop offset="1" stop-color="#FB4B37"/>
</linearGradient>
<clipPath id="clip0_48_12436">
<rect width="115.125" height="89.8479" fill="white"/>
</clipPath>
</defs>
</svg>
