<svg width="56" height="56" viewBox="0 0 56 56" fill="none" xmlns="http://www.w3.org/2000/svg">
<g clip-path="url(#clip0_49_12698)">
<path fill-rule="evenodd" clip-rule="evenodd" d="M43.0975 26.655C41.7871 27.1984 40.6426 28.0534 39.983 29.2918C39.4894 30.2185 39.3409 31.7222 40.0878 32.5647C40.2669 32.9227 40.5421 33.2513 40.9353 33.5335C41.1187 33.6683 41.3197 33.7736 41.5206 33.8705C42.4598 35.033 44.0061 35.6185 45.9194 35.3321C49.1431 34.8477 50.7724 31.6296 49.8726 28.7695C48.999 25.9895 45.4869 25.6736 43.1019 26.6592L43.0975 26.655ZM43.9755 32.6321C43.9712 32.6511 43.9668 32.669 43.9624 32.6869C43.958 32.7048 43.9537 32.7227 43.9493 32.7416C43.945 32.7437 43.9396 32.7468 43.9341 32.75C43.9287 32.7531 43.9231 32.7563 43.9188 32.7584C43.91 32.7584 43.9013 32.7584 43.8925 32.7627C43.5081 32.2867 43.3203 31.5285 43.2635 30.8377C43.2657 30.8229 43.2701 30.8093 43.2744 30.7956C43.2788 30.7819 43.2832 30.7682 43.2854 30.7534C43.2897 30.7555 43.293 30.7577 43.2963 30.7598L43.3006 30.7625L43.3041 30.7645L43.3072 30.7661C43.3203 30.9725 43.3422 31.1747 43.3858 31.3642C43.495 31.857 43.7047 32.2572 43.9755 32.5731V32.6321ZM48.8504 30.1764C48.8528 30.1625 48.8553 30.1486 48.8578 30.1346L48.8676 30.0811C48.8806 30.0102 48.8938 29.9385 48.9029 29.8689C48.9291 30.0205 48.9422 30.1722 48.9465 30.3238C48.9247 30.269 48.8898 30.2185 48.8504 30.1764ZM42.0317 28.6179C41.7914 29.1528 41.6342 29.7846 41.5599 30.4291C41.4988 30.0879 41.4769 29.7257 41.4988 29.3381C41.4988 29.2708 41.4944 29.2076 41.4726 29.1528C41.6386 28.9591 41.8264 28.7821 42.0273 28.6179H42.0317ZM44.8579 34.4391C44.3814 34.46 43.935 34.3897 43.5186 34.2407C43.7115 34.2321 43.9003 34.2153 44.0891 34.1822C44.2726 34.2453 44.4604 34.2832 44.6482 34.2959C44.7094 34.3506 44.7793 34.397 44.8579 34.4391Z" fill="url(#paint0_linear_49_12698)"/>
<path fill-rule="evenodd" clip-rule="evenodd" d="M41.7959 14.4944C44.9322 13.5804 48.3307 15.3958 48.9947 18.5802C50.2964 24.8269 40.6558 26.0021 38.5765 20.7622C37.1525 18.5129 39.4502 15.181 41.7959 14.4944ZM42.7569 19.549C42.9447 20.1598 43.3073 20.8927 43.9625 21.0402V21.0444C43.9887 21.0275 44.0106 21.0107 44.0324 20.9938C43.5257 20.6189 43.0801 20.0924 42.7569 19.549ZM45.1856 19.6628C44.9148 19.5364 44.7269 19.3174 44.5959 19.0604C44.5522 19.5111 44.6265 19.8945 45.0196 19.7554C45.066 19.7405 45.1015 19.7172 45.1384 19.6928C45.1536 19.6828 45.1691 19.6726 45.1856 19.6628ZM41.3634 18.6392C41.3678 18.2728 41.4071 17.9063 41.5032 17.5525C41.1494 18.0158 41.0751 18.5466 41.1974 19.0899C41.2368 18.9341 41.2935 18.7866 41.3634 18.6392ZM43.4945 23.3933C43.5982 23.396 43.7004 23.3971 43.8053 23.3906C43.8018 23.3894 43.7986 23.3883 43.7956 23.3873C43.7875 23.3844 43.7811 23.3821 43.7747 23.3821C43.7703 23.3821 43.7659 23.3779 43.7659 23.3779C43.6749 23.3842 43.5838 23.3905 43.4945 23.3933ZM47.3435 21.6046C47.3085 21.6931 47.2692 21.7773 47.2299 21.8615H47.2343C47.3741 21.7099 47.4964 21.5498 47.6099 21.3813C47.527 21.4614 47.4396 21.5372 47.3435 21.6046ZM47.8327 18.5845C47.8546 18.5929 47.8895 18.6139 47.8895 18.6139C47.7366 18.1717 47.527 17.7504 47.2692 17.3629C47.4046 17.6157 47.5182 17.8894 47.5968 18.1969C47.6842 18.3233 47.7628 18.4497 47.8327 18.5845ZM40.2758 22.3291C39.9001 22.0132 39.5768 21.6341 39.3148 21.2129V21.2086C39.2885 21.2423 39.2536 21.2676 39.2099 21.2845C39.5157 21.6804 39.8783 22.03 40.2758 22.3291Z" fill="url(#paint1_linear_49_12698)"/>
<path fill-rule="evenodd" clip-rule="evenodd" d="M40.8481 8.33197C39.8084 5.26129 35.8203 4.6758 33.0334 5.53087C31.6705 5.94788 30.4474 6.84086 29.849 8.10873C29.4383 8.97644 29.2855 10.7203 30.1154 11.4279C30.8973 17.7083 43.3991 15.8507 40.8481 8.33619V8.33197ZM30.9978 8.20561C31.0633 8.1003 31.1332 7.995 31.2162 7.89812C31.1376 7.995 31.0677 8.1003 30.9978 8.20561ZM31.9763 13.2055C31.9926 13.2055 32.0055 13.2022 32.0193 13.1987C32.0277 13.1966 32.0363 13.1944 32.0462 13.1928C32.1248 13.3234 32.2121 13.4329 32.3082 13.534C32.1466 13.4371 31.9894 13.3276 31.8409 13.2097H31.9719L31.9763 13.2055ZM38.4456 13.1718C38.9129 12.6705 39.3279 12.1103 39.6468 11.5248C39.8128 11.31 39.922 11.0741 39.9832 10.8256C39.9897 10.813 39.9941 10.7993 39.9984 10.7856C40.0028 10.7719 40.0072 10.7582 40.0137 10.7456C39.8696 11.7481 39.2755 12.5779 38.4456 13.1718Z" fill="url(#paint2_linear_49_12698)"/>
<path fill-rule="evenodd" clip-rule="evenodd" d="M19.7716 15.1957C19.7377 15.1799 19.7038 15.1641 19.6667 15.1515L19.6624 15.1557C16.1896 14.5155 15.3946 10.476 17.1244 7.77598C19.0333 4.80218 22.8206 3.99344 25.5288 6.5713C27.9401 8.87115 27.844 12.7885 24.6814 14.5028C23.7641 14.9999 22.8773 15.2147 22.0518 15.2021C21.3048 15.3916 20.5185 15.4295 19.8764 15.24C19.8393 15.2273 19.8054 15.2115 19.7716 15.1957ZM24.0436 13.513C24.0611 13.5172 24.083 13.5382 24.083 13.5382C24.0986 13.5251 24.1142 13.5144 24.1295 13.504C24.1483 13.4912 24.1665 13.4787 24.1834 13.4624C24.2053 13.4456 24.2271 13.4245 24.249 13.4035C24.2283 13.4147 24.2083 13.4259 24.1886 13.437L24.1882 13.4372C24.1414 13.4636 24.0958 13.4893 24.0436 13.513ZM19.0945 12.818C19.1906 13.1676 19.3478 13.4961 19.6056 13.7278C19.7235 13.8078 19.8458 13.8794 19.9725 13.9468C19.99 13.9553 20.0074 13.9595 20.0249 13.9637C19.7322 13.6436 19.5138 13.2518 19.4134 12.8222C19.3085 12.8306 19.2037 12.8306 19.0945 12.818ZM22.808 11.251C22.7918 11.2687 22.7756 11.2873 22.7594 11.3058C22.7419 11.3258 22.7245 11.3458 22.707 11.3648C22.7192 11.3633 22.7324 11.3623 22.746 11.3614C22.7713 11.3595 22.7978 11.3576 22.8206 11.3521C22.8148 11.3299 22.8128 11.3059 22.8109 11.2825C22.81 11.2718 22.8092 11.2612 22.808 11.251ZM22.1959 8.55102C22.2833 8.49205 22.375 8.44151 22.4711 8.39517C22.4056 8.16772 22.2964 7.91077 22.1872 7.72122C22.0911 7.74228 21.9993 7.76756 21.9163 7.80547C21.9207 7.82232 21.9251 7.84338 21.9251 7.86023C22.1085 8.04556 22.1959 8.28566 22.1959 8.55102ZM23.6086 6.82221C23.3863 6.66733 23.1207 6.55853 22.7943 6.52496C22.7818 6.51769 22.7706 6.50623 22.7601 6.49541C22.7524 6.48743 22.745 6.47978 22.7376 6.47442C22.7245 6.46599 22.7103 6.45968 22.6961 6.45336C22.6819 6.44704 22.6677 6.44072 22.6546 6.4323C22.9822 6.51233 23.3098 6.63027 23.6287 6.79455C23.6243 6.79876 23.621 6.80402 23.6177 6.80929C23.6149 6.81382 23.6121 6.81835 23.6086 6.82221Z" fill="url(#paint3_linear_49_12698)"/>
<path fill-rule="evenodd" clip-rule="evenodd" d="M11.2143 23.0536C14.8792 23.5464 16.3251 20.3662 15.6611 17.3545C15.5999 17.0765 15.5126 16.8069 15.4121 16.5415C15.233 15.5475 14.8311 14.625 14.2152 13.9721C13.525 13.2434 12.5466 13.0412 11.603 13.1844C10.8954 13.1592 10.214 13.3824 9.7684 13.9553C9.65483 14.0437 9.54562 14.1364 9.44079 14.2333C9.41724 14.2509 9.3933 14.2686 9.36921 14.2864L9.36878 14.2867C9.31264 14.3281 9.25539 14.3703 9.20054 14.4144C9.00397 14.545 8.81177 14.6882 8.63267 14.8567C8.19148 15.2737 7.88134 15.737 7.66293 16.2214C5.91129 19.25 7.52315 22.5565 11.2099 23.0536H11.2143ZM11.3016 18.8498C11.3016 18.8498 11.3322 18.8414 11.3453 18.8414C11.3934 18.833 11.4414 18.8203 11.4851 18.7993C11.6467 18.7487 11.7996 18.6855 11.9438 18.6055C11.9691 18.6184 11.9944 18.632 12.0198 18.6457C12.0778 18.6769 12.1364 18.7085 12.1971 18.7319C12.184 18.8288 12.1665 18.9172 12.1447 18.993C12.0748 19.1152 11.9918 19.2331 11.8957 19.3384C11.7586 19.3176 11.5173 19.0784 11.3956 18.9577C11.3699 18.9323 11.3495 18.9121 11.3366 18.9004C11.3221 18.8864 11.3136 18.8753 11.3037 18.8624L11.2973 18.854L11.3016 18.8498Z" fill="url(#paint4_linear_49_12698)"/>
<path d="M7.94642 34.0557L7.94249 34.0558H7.94686L7.94642 34.0557Z" fill="url(#paint5_linear_49_12698)"/>
<path fill-rule="evenodd" clip-rule="evenodd" d="M9.54562 26.3011C11.0046 26.2001 12.8261 27.2531 13.6037 28.1671C15.019 29.8352 15.6261 32.8174 13.8264 34.4644C11.6904 36.4188 7.59304 36.2756 5.83266 33.8494C3.73592 30.9598 5.84139 28.4451 8.30068 26.7982C8.4492 26.6634 8.61082 26.5665 8.78555 26.4865C8.98649 26.3601 9.18306 26.2422 9.38399 26.1327C9.49757 26.0695 9.61551 26.2085 9.54562 26.3011ZM13.7129 31.7601C13.7609 31.8065 13.8002 31.8612 13.8308 31.9244C13.857 31.6169 13.8308 31.3052 13.7784 30.9977C13.7784 31.2631 13.7609 31.52 13.7129 31.7601ZM8.01962 34.0488C7.99456 34.0523 7.97191 34.0554 7.94642 34.0557C7.78497 34.0473 7.63659 34.0263 7.49694 33.9968C7.97307 34.2748 8.51909 34.4938 9.10006 34.6286C8.72877 34.4896 8.3662 34.3001 8.02985 34.0473L8.01962 34.0488ZM11.5419 30.606C11.7297 30.5597 11.9525 30.5639 12.2058 30.6271C12.1447 30.3912 12.0224 30.1679 11.8695 29.9784C11.7079 30.0837 11.5812 30.2185 11.4938 30.3827L11.5019 30.4177C11.5166 30.4808 11.5308 30.5419 11.5419 30.606ZM12.2189 28.2893C12.2233 28.3104 12.2277 28.3314 12.2277 28.3567V28.3609C12.2364 28.3651 12.2495 28.3735 12.2583 28.382C12.2615 28.3812 12.2647 28.3803 12.268 28.3793C12.2706 28.3785 12.2731 28.3776 12.2757 28.3768C12.2874 28.3731 12.299 28.3693 12.3107 28.3693C12.2801 28.3398 12.2495 28.3146 12.2189 28.2893ZM8.96465 27.8681C8.99523 27.7754 9.04327 27.6912 9.11317 27.6196C8.91223 27.6785 8.70692 27.7333 8.49725 27.7796C8.65451 27.7923 8.81176 27.8217 8.96465 27.8681ZM6.3481 30.3364C6.32189 30.1721 6.31752 30.0037 6.32189 29.8352C5.93312 30.5386 5.73219 31.2631 5.87197 31.9749C5.87634 31.4274 6.0467 30.8461 6.3481 30.3364ZM13.5818 32.948C13.2848 33.5503 12.8523 34.0136 12.3413 34.338C12.8392 34.0642 13.2586 33.664 13.5294 33.0954C13.5426 33.0649 13.5526 33.0344 13.5623 33.0049L13.5694 32.9831C13.5734 32.9712 13.5775 32.9594 13.5818 32.948Z" fill="url(#paint6_linear_49_12698)"/>
<path fill-rule="evenodd" clip-rule="evenodd" d="M18.4829 37.1222C17.3734 36.5115 15.3553 36.145 13.8701 36.4146C12.2452 36.4399 11.0264 37.872 10.8211 39.4895C10.5503 41.604 11.7865 44.1566 13.9313 44.9274C14.0014 44.9539 14.0716 44.9721 14.1432 44.9908C14.1742 44.9988 14.2054 45.007 14.2371 45.0159L14.2513 45.0211C14.2805 45.0318 14.3074 45.0417 14.3375 45.0453C17.1288 45.7825 20.3001 43.946 20.7937 41.1617C21.0995 39.4263 19.9769 37.9436 18.4873 37.118L18.4829 37.1222ZM13.6473 37.375C13.6386 37.3862 13.6304 37.3979 13.6221 37.4096C13.6056 37.433 13.5891 37.4564 13.5687 37.4761C13.5381 37.455 13.5076 37.4381 13.4726 37.4255C13.4845 37.4083 13.4985 37.393 13.513 37.3771C13.5165 37.3733 13.5199 37.3695 13.5234 37.3656C13.5268 37.3618 13.5303 37.3579 13.5338 37.3539C13.5534 37.3581 13.572 37.3613 13.5906 37.3644C13.6091 37.3676 13.6277 37.3708 13.6473 37.375ZM13.1406 37.2317C13.1406 37.2317 13.1537 37.236 13.1625 37.2402C12.8785 37.4761 12.6121 37.7204 12.3718 37.9815C12.5728 37.6867 12.8305 37.4339 13.1406 37.2317ZM19.7104 41.246C19.6798 41.4102 19.6361 41.5661 19.5837 41.7177C19.7017 41.246 19.7279 40.7363 19.6754 40.1971C19.6623 40.0623 19.6012 39.9486 19.5226 39.8601C19.5269 39.8307 19.5335 39.8012 19.54 39.7717C19.5466 39.7422 19.5531 39.7127 19.5575 39.6832C19.7453 40.1466 19.8109 40.6689 19.7104 41.246Z" fill="url(#paint7_linear_49_12698)"/>
<path fill-rule="evenodd" clip-rule="evenodd" d="M21.06 27.5817C20.5708 25.1596 24.9433 24.7469 26.6076 25.1302L26.6032 25.126C29.4163 25.7746 31.9412 28.104 30.7443 31.0862C29.4076 34.4138 25.8737 36.0566 22.7942 33.5503C20.9901 32.0845 19.9461 29.4434 21.06 27.5817ZM23.6372 32.9353C26.2538 34.6623 29.2373 33.2934 29.8313 30.2648V30.2606C30.2856 27.9607 28.1933 26.516 26.0572 26.1874C24.2007 25.901 22.6063 26.2506 21.9904 28.0618C21.9205 28.2725 21.7414 28.3525 21.5667 28.3314C21.1736 30.0205 21.9293 31.8107 23.6372 32.9353Z" fill="url(#paint8_linear_49_12698)"/>
<path fill-rule="evenodd" clip-rule="evenodd" d="M55.3417 19.5448C54.3457 13.2013 51.6374 7.75913 45.5962 4.64212C39.1531 1.3145 31.2249 0.244601 24.0698 1.5251C17.3996 2.71715 10.5939 7.24104 5.93743 11.8407C-4.31034 21.9542 -0.357125 40.551 10.6638 48.5752C14.1584 51.1193 17.9019 52.6526 22.0779 53.8025C22.2726 53.856 22.4756 53.9136 22.6853 53.9731C24.6386 54.5277 27.1681 55.2459 28.9709 54.2911C31.0067 53.212 28.6313 50.1943 27.7271 49.0456C27.675 48.9793 27.6274 48.9189 27.5862 48.8658C27.4916 48.7442 27.3972 48.6234 27.3033 48.5033C25.5641 46.2783 24.0081 44.2877 24.6464 41.2544C25.3497 37.8973 29.233 36.541 32.3344 36.5368C32.6576 36.5368 32.7494 36.0861 32.4698 35.9681C33.0988 35.9428 33.7322 35.9765 34.3612 36.0818C36.7405 36.4715 38.0415 38.5277 39.1976 40.3548C39.2662 40.4632 39.3343 40.5709 39.4021 40.6773C40.7956 42.8592 42.7351 44.8095 45.5656 44.9527C50.9298 45.2307 53.5507 40.5257 54.8568 36.1745C56.425 30.9514 56.1716 24.8648 55.3373 19.549L55.3417 19.5448ZM53.5638 35.8249C52.7469 38.8113 51.1482 42.1979 47.9681 43.3773C44.1195 44.8045 42.1711 41.9822 40.3578 39.3557C39.8269 38.5867 39.3076 37.8346 38.7556 37.2107C35.4314 33.4534 30.5609 34.1021 26.7125 36.6758C24.0086 38.1332 22.4142 41.1365 23.218 44.6494C23.5988 46.3211 24.7158 47.6458 25.8329 48.9705C26.779 50.0925 27.7252 51.2145 28.2239 52.5473C28.7962 54.0763 21.2654 52.1345 20.549 51.9449C10.9521 49.405 3.91933 41.8273 2.07596 32.5183C1.26784 28.4494 1.28531 23.7359 2.41231 19.7344C3.63977 15.379 7.30031 11.9166 10.8866 9.24603C17.998 3.95553 25.9568 1.30607 34.9422 2.53603C43.8358 3.75756 51.1788 7.96974 53.5114 16.6721C55.1058 22.5987 55.1931 29.8815 53.5682 35.8165L53.5638 35.8249Z" fill="url(#paint9_linear_49_12698)"/>
</g>
<defs>
<linearGradient id="paint0_linear_49_12698" x1="28" y1="1" x2="28" y2="54.7576" gradientUnits="userSpaceOnUse">
<stop stop-color="#DA48A2"/>
<stop offset="1" stop-color="#FB4B37"/>
</linearGradient>
<linearGradient id="paint1_linear_49_12698" x1="28" y1="1" x2="28" y2="54.7576" gradientUnits="userSpaceOnUse">
<stop stop-color="#DA48A2"/>
<stop offset="1" stop-color="#FB4B37"/>
</linearGradient>
<linearGradient id="paint2_linear_49_12698" x1="28" y1="1" x2="28" y2="54.7576" gradientUnits="userSpaceOnUse">
<stop stop-color="#DA48A2"/>
<stop offset="1" stop-color="#FB4B37"/>
</linearGradient>
<linearGradient id="paint3_linear_49_12698" x1="28" y1="1" x2="28" y2="54.7576" gradientUnits="userSpaceOnUse">
<stop stop-color="#DA48A2"/>
<stop offset="1" stop-color="#FB4B37"/>
</linearGradient>
<linearGradient id="paint4_linear_49_12698" x1="28" y1="1" x2="28" y2="54.7576" gradientUnits="userSpaceOnUse">
<stop stop-color="#DA48A2"/>
<stop offset="1" stop-color="#FB4B37"/>
</linearGradient>
<linearGradient id="paint5_linear_49_12698" x1="28" y1="1" x2="28" y2="54.7576" gradientUnits="userSpaceOnUse">
<stop stop-color="#DA48A2"/>
<stop offset="1" stop-color="#FB4B37"/>
</linearGradient>
<linearGradient id="paint6_linear_49_12698" x1="28" y1="1" x2="28" y2="54.7576" gradientUnits="userSpaceOnUse">
<stop stop-color="#DA48A2"/>
<stop offset="1" stop-color="#FB4B37"/>
</linearGradient>
<linearGradient id="paint7_linear_49_12698" x1="28" y1="1" x2="28" y2="54.7576" gradientUnits="userSpaceOnUse">
<stop stop-color="#DA48A2"/>
<stop offset="1" stop-color="#FB4B37"/>
</linearGradient>
<linearGradient id="paint8_linear_49_12698" x1="28" y1="1" x2="28" y2="54.7576" gradientUnits="userSpaceOnUse">
<stop stop-color="#DA48A2"/>
<stop offset="1" stop-color="#FB4B37"/>
</linearGradient>
<linearGradient id="paint9_linear_49_12698" x1="28" y1="1" x2="28" y2="54.7576" gradientUnits="userSpaceOnUse">
<stop stop-color="#DA48A2"/>
<stop offset="1" stop-color="#FB4B37"/>
</linearGradient>
<clipPath id="clip0_49_12698">
<rect width="56" height="56" fill="white"/>
</clipPath>
</defs>
</svg>
