<svg width="56" height="56" viewBox="0 0 56 56" fill="none" xmlns="http://www.w3.org/2000/svg">
<path d="M28.4277 19.7729C29.0503 19.1403 29.1737 17.8068 29.26 16.874C29.2819 16.6378 29.3014 16.4272 29.326 16.2603C29.5963 14.436 29.8094 12.6191 29.9541 10.7802C30.2129 7.53919 30.2129 6.19171 29.7828 2.947C29.7219 2.30834 29.6229 1.66967 29.4821 1.03468C29.4707 0.97962 29.3831 0.994302 29.3831 1.04936C29.3812 1.12971 29.3782 1.21007 29.3753 1.28994C29.3725 1.36678 29.3697 1.44367 29.3679 1.51918C29.3298 1.53386 29.2956 1.56323 29.2879 1.61094C28.7322 4.78105 28.2501 5.97388 27.7691 9.15945L27.7663 9.17747C27.7013 9.60788 27.6364 10.0382 27.5712 10.4682L27.4864 11.0236C27.2365 12.6578 26.9873 14.2876 26.7719 15.9262C26.7556 16.0471 26.7256 16.2113 26.6902 16.4051C26.5267 17.3 26.2481 18.8252 26.6767 19.6188L28.4277 19.7729Z" fill="url(#paint0_linear_49_12774)"/>
<path d="M13.5414 29.8765C14.6375 30.0107 15.8397 30.1579 16.6352 29.4557C16.7722 29.3345 16.8141 29.0886 16.7037 28.9344C16.0595 28.0457 14.9371 28.0381 13.8803 28.031C13.6757 28.0296 13.4736 28.0282 13.2779 28.0205C11.7782 27.9654 10.2785 27.9544 8.77872 27.9654C8.4861 27.9677 8.19288 27.9702 7.89921 27.9727L7.88737 27.9728C5.29307 27.995 2.66291 28.0174 0.0848321 27.8627C0.00489704 27.859 -0.0369798 27.9838 0.0429553 28.0168C1.28385 28.538 2.46765 28.8904 3.81513 29.1547C5.10942 29.4077 6.42622 29.4839 7.74188 29.5602L7.75486 29.5609C7.8665 29.5674 7.97815 29.5739 8.08976 29.5805C9.01859 29.635 9.94888 29.6712 10.8797 29.7075L10.8811 29.7076C11.4525 29.7298 12.0249 29.7521 12.5966 29.7787L12.5928 29.7823C12.8899 29.7968 13.2109 29.8361 13.5414 29.8765Z" fill="url(#paint1_linear_49_12774)"/>
<path d="M52.8639 29.4186C53.7988 29.4188 54.7321 29.419 55.6625 29.4263V29.4226C56.0355 29.4263 56.1459 30.0099 55.7538 30.0723C51.0186 30.8064 46.0893 31.2542 41.316 30.6008C41.0153 30.5605 40.7946 30.2668 40.707 30.0136C40.6271 29.775 40.6461 29.5694 40.7946 29.3639C40.9582 29.1437 41.2361 28.9087 41.5483 28.9491C45.283 29.4169 49.0863 29.4178 52.8639 29.4186Z" fill="url(#paint2_linear_49_12774)"/>
<path d="M12.5928 14.6122C13.4036 16.1171 14.3247 17.5082 15.3981 18.8516C15.4738 18.9465 15.5493 19.043 15.6252 19.1401C15.996 19.6143 16.3776 20.1023 16.8484 20.474C16.8975 20.5124 16.9471 20.5527 16.9975 20.5936C17.2355 20.7871 17.4894 20.9935 17.7848 21.0723C17.9643 21.1206 18.1335 21.1049 18.3012 21.0893C18.4393 21.0765 18.5764 21.0637 18.7174 21.087C18.98 21.131 19.3188 20.9181 19.2008 20.6208C19.123 20.4297 19.0996 20.248 19.0765 20.0687C19.0419 19.8003 19.008 19.5371 18.7935 19.2554C18.4813 18.8425 18.1431 18.4548 17.8036 18.0655C17.6753 17.9184 17.5467 17.771 17.4194 17.622C16.6964 16.7824 16.0173 15.9022 15.339 15.023C15.039 14.634 14.7386 14.2447 14.4351 13.8598C13.4264 12.5788 12.4558 11.2684 11.546 9.91767C11.2594 9.49473 10.9919 9.05846 10.7244 8.62205C10.3487 8.00937 9.97288 7.39641 9.54384 6.81978C9.49055 6.74637 9.3421 6.76105 9.35352 6.87117C9.44406 7.86712 9.86548 8.8346 10.269 9.76103C10.3235 9.88619 10.3777 10.0106 10.4307 10.1342C11.0854 11.6538 11.8049 13.1477 12.5928 14.6085V14.6122Z" fill="url(#paint3_linear_49_12774)"/>
<path d="M41.6053 41.0103C42.614 42.0234 43.5542 43.0805 44.4335 44.2L44.4373 44.2036C46.0665 46.2811 47.6081 48.4834 48.9137 50.7628C48.9936 50.9023 48.8147 51.0197 48.7005 50.9243C47.2205 49.7025 45.8932 48.2994 44.5726 46.9032C44.0524 46.3532 43.5332 45.8044 43.0061 45.2681C42.784 45.0418 42.5628 44.8145 42.3416 44.5872L42.34 44.5856C41.5532 43.777 40.7657 42.9677 39.9343 42.2032C39.7222 42.0082 39.4991 41.8225 39.2765 41.6372C38.5604 41.0411 37.8491 40.4489 37.521 39.5642C37.3802 39.1824 37.7532 38.6869 38.1795 38.7273C39.4897 38.8523 40.4268 39.809 41.3033 40.7039C41.4046 40.8072 41.5052 40.91 41.6053 41.0103Z" fill="url(#paint4_linear_49_12774)"/>
<path d="M18.4926 36.9031C18.466 36.7379 18.2642 36.6608 18.112 36.6939C17.2097 36.9009 16.6356 37.6778 16.1134 38.3844C16.043 38.4797 15.9734 38.5738 15.9042 38.6649C15.5041 39.1901 15.1147 39.7232 14.7252 40.2565C14.3146 40.8186 13.9033 41.3817 13.4796 41.9353C12.8989 42.6938 12.3073 43.4424 11.7161 44.1907C10.9082 45.213 10.101 46.2347 9.32292 47.2795C9.24679 47.3676 9.17829 47.4594 9.11738 47.5548C8.94609 47.7861 8.77479 48.021 8.60731 48.2559C8.39796 48.4981 8.76339 48.8211 9.02222 48.6083C11.1462 46.8831 12.9314 44.8974 14.7014 42.8456C14.8315 42.6954 14.9624 42.545 15.0936 42.3944C15.8371 41.5406 16.5884 40.6777 17.2517 39.7697C17.3088 39.6921 17.3673 39.6138 17.4264 39.5347C18.0096 38.7539 18.6478 37.8996 18.4888 36.9031H18.4926Z" fill="url(#paint5_linear_49_12774)"/>
<path d="M37.0452 22.3423C36.8701 22.39 36.6227 22.3166 36.5428 22.1441V22.1404C35.9323 20.8159 37.1952 19.34 38.1213 18.2577C38.2345 18.1253 38.3431 17.9985 38.4422 17.879C39.6374 16.4401 41.0229 15.1628 42.458 13.9479C43.3578 13.185 44.2774 12.4451 45.197 11.7052C45.7906 11.2277 46.3841 10.7501 46.9724 10.2664C47.5616 9.7827 48.1387 9.28425 48.7159 8.7858C49.5184 8.09278 50.321 7.39965 51.1557 6.74638C51.3117 6.62525 51.5744 6.77941 51.4526 6.96661C50.0494 9.09088 48.048 10.855 46.0806 12.5893C45.2673 13.3062 44.4597 14.018 43.7027 14.748C42.4047 16.0033 41.1371 17.3027 40.0333 18.7232C39.4775 19.4389 38.9484 20.1767 38.5031 20.9622C38.13 21.6228 37.8331 22.122 37.0452 22.3423Z" fill="url(#paint6_linear_49_12774)"/>
<path d="M27.8993 41.9376C28.0033 41.4574 28.1296 40.8739 27.9023 40.4598C27.7995 40.2689 27.5863 40.2285 27.3846 40.2579C26.2227 40.4199 26.1387 42.4126 26.0972 43.3973C26.0936 43.4836 26.0903 43.5622 26.0866 43.6311C25.9914 45.3635 26.1627 46.085 26.3645 47.8064C26.3894 48.0224 26.4175 48.2369 26.4457 48.4518C26.4606 48.5656 26.4756 48.6795 26.4901 48.7938L26.7147 54.8485C26.7223 55.1238 27.1486 55.1238 27.16 54.8485L27.162 54.7837C27.1842 54.0637 27.2065 53.3403 27.2323 52.6205C27.2704 52.8774 27.3009 53.1344 27.3275 53.3913C27.3338 53.4539 27.3803 53.5964 27.4297 53.748C27.4991 53.9608 27.5743 54.1914 27.5521 54.2428C27.5521 54.2502 27.5597 54.2575 27.5673 54.2539C28.0738 53.9181 28.0432 53.3285 28.0142 52.7679L28.0141 52.7665C28.0083 52.6535 28.0025 52.5416 28.0012 52.4333C27.9811 51.0213 27.8961 49.6122 27.8112 49.2034L27.8111 49.2022C27.7996 49.011 27.788 48.8198 27.7767 48.6286C27.6739 46.8778 27.6168 46.116 27.651 44.3615C27.6663 43.6421 27.7081 42.9227 27.8414 42.2179C27.8576 42.1304 27.878 42.0361 27.8993 41.9376Z" fill="url(#paint7_linear_49_12774)"/>
<path d="M21.5475 41.7308C21.6309 41.6723 21.7145 41.6139 21.7968 41.5536V41.5499C21.9643 41.4288 22.2612 41.5903 22.2345 41.7921C22.2148 41.9332 22.2114 42.0787 22.2081 42.2245C22.2018 42.4997 22.1954 42.7759 22.0785 43.0254C21.8387 43.5319 21.6293 44.0532 21.4466 44.5817C21.3574 44.8418 21.2679 45.1016 21.1784 45.3613C20.9321 46.0764 20.6855 46.7921 20.4455 47.5107C19.806 49.4194 19.1475 51.2987 17.8267 52.877C17.564 53.1927 17.0692 52.7926 17.2633 52.4586C18.3009 50.6729 18.8338 48.6636 19.3559 46.6953L19.4444 46.3619L19.4498 46.3413C19.7069 45.3681 19.9648 44.3916 20.3465 43.4549C20.3836 43.3639 20.4201 43.2592 20.4587 43.1488C20.5788 42.8049 20.7184 42.4053 20.9518 42.1885C21.136 42.0187 21.3414 41.875 21.5475 41.7308Z" fill="url(#paint8_linear_49_12774)"/>
<path d="M14.0771 33.5079C14.1571 33.3611 14.1 33.1261 13.902 33.0968C12.8741 32.9368 11.8392 33.5105 10.8979 34.0323C10.6297 34.181 10.3691 34.3254 10.1184 34.4475C8.74813 35.1155 7.42349 35.846 6.13311 36.6535C5.70298 36.9214 6.07601 37.5234 6.52898 37.3105C7.30174 36.9468 8.08839 36.6112 8.87551 36.2755C9.39112 36.0555 9.90693 35.8355 10.4192 35.6074C10.6911 35.4861 11 35.3709 11.3219 35.251C12.383 34.8554 13.5856 34.4071 14.0733 33.5115L14.0771 33.5079Z" fill="url(#paint9_linear_49_12774)"/>
<path d="M11.0249 22.4505C10.8139 22.3686 10.6029 22.2867 10.3928 22.2028V22.1991C8.93112 21.6118 7.793 20.8227 6.86804 19.5674C6.79952 19.4719 6.94797 19.3655 7.0279 19.4463C8.24367 20.6906 9.92089 21.0866 11.5759 21.4773L11.5772 21.4776C11.6938 21.5051 11.8105 21.5327 11.9268 21.5605C12.0054 21.5793 12.0866 21.5984 12.1699 21.6181L12.1731 21.6188L12.1754 21.6193C13.4537 21.9205 15.2158 22.3356 15.7332 23.5572C15.9464 24.0601 15.345 24.4601 14.892 24.3684C14.4012 24.2706 13.9579 23.9631 13.5172 23.6574C13.2299 23.458 12.9437 23.2595 12.6462 23.1204C12.1165 22.8743 11.5706 22.6624 11.0249 22.4505Z" fill="url(#paint10_linear_49_12774)"/>
<path d="M21.789 15.2105C21.7907 15.3892 21.7853 15.5662 21.78 15.7415C21.7623 16.3222 21.7451 16.885 21.9907 17.4348C22.1772 17.8532 22.9575 17.8569 23.144 17.4348C23.4142 16.8239 23.3556 16.2103 23.2941 15.5676C23.2829 15.4497 23.2715 15.3305 23.262 15.2105C23.1973 14.403 23.0946 13.5991 22.9804 12.7953C22.7444 11.1546 22.2724 9.45884 21.4844 7.98697C21.3779 7.78876 21.1114 7.93925 21.1419 8.12645C21.3969 9.73779 21.5796 11.3345 21.7052 12.9605C21.7623 13.7093 21.7851 14.458 21.7928 15.2105H21.789Z" fill="url(#paint11_linear_49_12774)"/>
<path d="M34.4677 16.7457C34.2657 17.351 34.0623 17.9607 33.6308 18.4442V18.4479C33.273 18.8479 32.5231 18.5286 32.5498 18.0147C32.5809 17.3852 32.8617 16.7961 33.1382 16.216C33.2341 16.0148 33.3296 15.8146 33.4138 15.6142C33.7298 14.8655 34.0381 14.113 34.3236 13.3532C34.9136 11.7786 35.5302 10.2003 36.1887 8.65133C36.2382 8.53755 36.4247 8.54122 36.4247 8.68069C36.3943 10.3544 36.0327 12.0686 35.5188 13.6689C35.2371 14.5461 34.9402 15.4197 34.6243 16.2896C34.5698 16.4399 34.5188 16.5927 34.4677 16.7457Z" fill="url(#paint12_linear_49_12774)"/>
<path d="M50.0098 19.4058C48.3198 19.7876 46.8505 20.474 45.3203 21.2484C44.5652 21.6309 43.7912 21.986 43.0172 22.341C42.0902 22.7663 41.1633 23.1915 40.2692 23.6636C39.466 24.0894 40.0141 25.3227 40.8896 25.0804C42.3425 24.6771 43.6774 23.752 44.9305 22.8837C45.1712 22.7169 45.409 22.5521 45.6439 22.3936C45.915 22.2103 46.187 22.0224 46.4607 21.8334C47.6281 21.0274 48.8254 20.2008 50.105 19.6151C50.2306 19.5563 50.1393 19.3765 50.0137 19.4022L50.0098 19.4058Z" fill="url(#paint13_linear_49_12774)"/>
<path d="M47.1478 38.2085C47.7434 38.5221 48.3389 38.8357 48.9214 39.1751V39.1787C49.1231 39.2962 49.0584 39.6669 48.7919 39.6376C47.1133 39.4467 45.4651 38.6869 43.9578 37.9711C43.1318 37.5784 42.3438 37.1453 41.5749 36.6608C41.4855 36.6046 41.3959 36.5498 41.3069 36.4954C40.7214 36.1375 40.1601 35.7944 39.843 35.1669C39.6032 34.6861 39.9953 34.2346 40.5206 34.319C41.1712 34.4198 41.6777 34.7899 42.189 35.1635C42.3477 35.2795 42.507 35.3959 42.6712 35.5046L42.7792 35.5763C43.4021 35.9894 44.0287 36.4051 44.662 36.8076C45.4663 37.3232 46.3071 37.7659 47.1478 38.2085Z" fill="url(#paint14_linear_49_12774)"/>
<path d="M34.335 45.3672C34.118 44.4129 33.9391 43.4439 33.7754 42.4822C33.7375 42.2629 33.7067 42.0428 33.676 41.823C33.6357 41.5352 33.5955 41.2477 33.5394 40.9626C33.4639 40.5782 33.2686 40.3208 33.0542 40.0384C32.9984 39.9649 32.9413 39.8897 32.8847 39.8101C32.7401 39.6082 32.3632 39.5421 32.2338 39.8101C32.1937 39.8937 32.1481 39.9758 32.1024 40.0579C31.9877 40.2643 31.8728 40.471 31.8456 40.702C31.777 41.2966 31.8494 41.8435 31.9331 42.4345C32.112 43.6751 32.3594 44.8717 32.7553 46.0646C33.3986 47.9989 34.3883 49.9076 36.1126 51.1445C36.4742 51.4015 36.8358 50.8656 36.5693 50.5756C35.2675 49.1662 34.7423 47.1694 34.335 45.3709V45.3672Z" fill="url(#paint15_linear_49_12774)"/>
<path fill-rule="evenodd" clip-rule="evenodd" d="M19.6119 23.7554C22.5238 21.1494 26.9964 21.4026 30.6658 21.6779C31.0953 21.7085 31.4629 21.9808 31.5157 22.399C35.5467 23.3927 39.0347 26.7428 38.4195 31.0156C38.1416 32.9426 37.0644 34.543 35.5076 35.8937C33.9507 37.2444 32.0856 38.3493 29.9388 38.4447C27.7919 38.5401 25.7022 37.6849 23.8751 36.6792C22.2003 35.7542 20.6016 34.598 19.4064 33.1225C18.2797 31.7314 17.5298 30.0686 17.5679 28.2774C17.6021 26.5817 18.3177 24.9153 19.6119 23.7554ZM29.6149 23.2543C28.0506 23.1509 26.4691 23.1001 24.9181 23.3039C23.209 23.5278 21.4238 24.1078 20.3123 25.4475C19.4711 26.4606 19.1399 27.826 19.3226 29.0996C19.5244 30.5238 20.3656 31.7901 21.3819 32.8068C22.5847 34.0071 24.0388 34.932 25.5804 35.6918C27.122 36.4516 29.0062 37.0572 30.7039 36.6975C32.4015 36.3378 33.9546 35.1706 35.0736 33.9814C36.1927 32.7921 36.8703 31.3129 36.7713 29.6906C36.5696 26.3835 33.3075 24.3133 30.2014 23.8178C29.9075 23.7706 29.6971 23.5273 29.6149 23.2543Z" fill="url(#paint16_linear_49_12774)"/>
<defs>
<linearGradient id="paint0_linear_49_12774" x1="28" y1="-1" x2="28" y2="57.0549" gradientUnits="userSpaceOnUse">
<stop stop-color="#DA48A2"/>
<stop offset="1" stop-color="#FB4B37"/>
</linearGradient>
<linearGradient id="paint1_linear_49_12774" x1="28" y1="-1" x2="28" y2="57.0549" gradientUnits="userSpaceOnUse">
<stop stop-color="#DA48A2"/>
<stop offset="1" stop-color="#FB4B37"/>
</linearGradient>
<linearGradient id="paint2_linear_49_12774" x1="28" y1="-1" x2="28" y2="57.0549" gradientUnits="userSpaceOnUse">
<stop stop-color="#DA48A2"/>
<stop offset="1" stop-color="#FB4B37"/>
</linearGradient>
<linearGradient id="paint3_linear_49_12774" x1="28" y1="-1" x2="28" y2="57.0549" gradientUnits="userSpaceOnUse">
<stop stop-color="#DA48A2"/>
<stop offset="1" stop-color="#FB4B37"/>
</linearGradient>
<linearGradient id="paint4_linear_49_12774" x1="28" y1="-1" x2="28" y2="57.0549" gradientUnits="userSpaceOnUse">
<stop stop-color="#DA48A2"/>
<stop offset="1" stop-color="#FB4B37"/>
</linearGradient>
<linearGradient id="paint5_linear_49_12774" x1="28" y1="-1" x2="28" y2="57.0549" gradientUnits="userSpaceOnUse">
<stop stop-color="#DA48A2"/>
<stop offset="1" stop-color="#FB4B37"/>
</linearGradient>
<linearGradient id="paint6_linear_49_12774" x1="28" y1="-1" x2="28" y2="57.0549" gradientUnits="userSpaceOnUse">
<stop stop-color="#DA48A2"/>
<stop offset="1" stop-color="#FB4B37"/>
</linearGradient>
<linearGradient id="paint7_linear_49_12774" x1="28" y1="-1" x2="28" y2="57.0549" gradientUnits="userSpaceOnUse">
<stop stop-color="#DA48A2"/>
<stop offset="1" stop-color="#FB4B37"/>
</linearGradient>
<linearGradient id="paint8_linear_49_12774" x1="28" y1="-1" x2="28" y2="57.0549" gradientUnits="userSpaceOnUse">
<stop stop-color="#DA48A2"/>
<stop offset="1" stop-color="#FB4B37"/>
</linearGradient>
<linearGradient id="paint9_linear_49_12774" x1="28" y1="-1" x2="28" y2="57.0549" gradientUnits="userSpaceOnUse">
<stop stop-color="#DA48A2"/>
<stop offset="1" stop-color="#FB4B37"/>
</linearGradient>
<linearGradient id="paint10_linear_49_12774" x1="28" y1="-1" x2="28" y2="57.0549" gradientUnits="userSpaceOnUse">
<stop stop-color="#DA48A2"/>
<stop offset="1" stop-color="#FB4B37"/>
</linearGradient>
<linearGradient id="paint11_linear_49_12774" x1="28" y1="-1" x2="28" y2="57.0549" gradientUnits="userSpaceOnUse">
<stop stop-color="#DA48A2"/>
<stop offset="1" stop-color="#FB4B37"/>
</linearGradient>
<linearGradient id="paint12_linear_49_12774" x1="28" y1="-1" x2="28" y2="57.0549" gradientUnits="userSpaceOnUse">
<stop stop-color="#DA48A2"/>
<stop offset="1" stop-color="#FB4B37"/>
</linearGradient>
<linearGradient id="paint13_linear_49_12774" x1="28" y1="-1" x2="28" y2="57.0549" gradientUnits="userSpaceOnUse">
<stop stop-color="#DA48A2"/>
<stop offset="1" stop-color="#FB4B37"/>
</linearGradient>
<linearGradient id="paint14_linear_49_12774" x1="28" y1="-1" x2="28" y2="57.0549" gradientUnits="userSpaceOnUse">
<stop stop-color="#DA48A2"/>
<stop offset="1" stop-color="#FB4B37"/>
</linearGradient>
<linearGradient id="paint15_linear_49_12774" x1="28" y1="-1" x2="28" y2="57.0549" gradientUnits="userSpaceOnUse">
<stop stop-color="#DA48A2"/>
<stop offset="1" stop-color="#FB4B37"/>
</linearGradient>
<linearGradient id="paint16_linear_49_12774" x1="28" y1="-1" x2="28" y2="57.0549" gradientUnits="userSpaceOnUse">
<stop stop-color="#DA48A2"/>
<stop offset="1" stop-color="#FB4B37"/>
</linearGradient>
</defs>
</svg>
