<svg width="57" height="56" viewBox="0 0 57 56" fill="none" xmlns="http://www.w3.org/2000/svg">
<g clip-path="url(#clip0_49_12773)">
<path d="M15.6911 9.64909C15.0379 11.7541 14.9305 14 15.0766 16.1962C15.2829 19.333 16.0607 22.4118 17.2639 25.3248C18.4628 28.2296 20.1086 30.9644 22.3174 33.2683C22.7686 33.7407 23.2542 34.1883 23.7613 34.6026C23.4647 35.1413 23.2327 35.7132 23.0651 36.3098C22.7686 37.3665 22.6526 38.4563 22.3818 39.5171C22.1498 40.4204 21.7716 41.3279 20.9724 41.8997C19.7348 42.7906 18.1319 42.9978 16.6322 43.1014C14.6985 43.234 12.855 43.0185 10.9513 42.6995C9.13788 42.3928 7.28149 42.0613 5.43799 42.2727C3.74489 42.4674 1.95296 43.2547 1.00757 44.6885C0.178214 45.9523 0.0407026 47.6637 0.00632498 49.114C-0.036647 51.0159 0.118054 53.3282 1.13649 55.0105C1.47597 55.5741 2.1936 55.4124 2.46862 54.9856C4.11875 55.1265 5.93646 54.6666 7.49634 54.5257C9.80394 54.3185 12.1029 53.8793 14.4062 53.6348C19.1504 53.1334 23.9331 52.6983 28.7073 52.5906C33.1506 52.487 37.5854 52.8599 41.9771 53.469C44.13 53.7674 46.27 54.1279 48.41 54.5008C49.4671 54.6832 50.5199 54.8738 51.5727 55.0602C52.5697 55.2384 53.7299 55.6859 54.671 55.2011C54.7011 55.2923 54.7312 55.3876 54.7656 55.4787C54.946 55.9387 55.5219 55.9138 55.711 55.4787C56.2868 54.1486 55.8785 52.3337 55.552 50.9579C55.2769 49.8018 54.7742 48.6747 54.078 47.6927C52.8318 45.9274 50.9711 44.8003 48.9514 44.0089C46.9661 43.2299 44.8562 42.8114 42.8065 42.2271C40.9587 41.7008 39.012 41.0461 37.6025 39.7284C36.4552 38.6511 35.9567 37.2836 35.5743 35.8416C35.8579 35.6261 36.1243 35.3899 36.3735 35.1413C38.4233 33.0943 39.4417 30.2766 40.4172 27.6536C41.5646 24.5665 42.4455 21.3883 42.815 18.123C43.1674 15.0028 42.901 11.808 41.5861 8.9115C40.1852 5.82028 37.392 3.52051 34.2292 2.19452C27.908 -0.461614 20.0829 1.33262 16.6666 7.37004C16.3916 7.85485 16.1595 8.35624 15.9618 8.86592L15.6868 9.65737L15.6911 9.64909ZM23.4647 3.36305C29.6012 0.785649 37.7315 3.84786 40.3313 9.81069C42.9526 15.815 40.5891 22.7308 38.4749 28.5155C37.2545 31.8553 34.9297 36.5543 30.091 35.3361C29.3562 35.1496 28.5999 35.162 27.8479 34.9134L27.6975 34.8513C26.3525 34.5198 25.1922 33.604 24.1308 32.8706C22.1756 31.5156 20.4696 28.5984 19.3996 26.0251C18.1491 23.0292 17.4487 20.0789 16.6924 16.9338C16.3056 15.3177 16.89 14.5718 16.7224 13.8923C16.7224 13.2831 16.6537 12.674 16.7224 12.0732L16.8857 11.5801C16.8728 11.4143 16.976 11.2527 16.976 11.0911C16.9846 11.0497 16.9889 11.0082 16.9975 10.9668C17.3541 9.18499 18.2093 7.57308 19.4125 6.23465L19.4641 6.17664C20.4094 5.13656 21.5697 4.27052 22.8674 3.63239C23.0608 3.53708 23.2628 3.44592 23.4605 3.36305M5.53682 44.9412C5.5626 44.9039 5.50245 44.8584 5.47237 44.8957ZM5.78606 52.9511C5.67863 52.9759 5.56691 53.0008 5.45947 53.0215C4.84927 53.1541 4.17031 53.3157 3.47846 53.4359L3.23782 53.4732C2.87256 53.527 2.51159 53.5685 2.15493 53.5768C1.97015 53.0837 1.85842 52.5533 1.78537 52.0187L1.7295 51.5215C1.68653 51.0491 1.66505 50.5809 1.65215 50.1416C1.64356 49.893 1.63926 49.6402 1.63926 49.3833C1.87131 48.1651 2.28384 47.009 3.02726 46.0766C4.46682 44.2824 7.12249 44.2037 9.27109 44.2368C9.88559 44.2451 10.5688 44.2865 11.2908 44.3404C11.7119 44.4108 12.1287 44.4771 12.5499 44.5352C13.7617 44.6968 14.9778 44.7092 16.1896 44.618C19.8895 44.6305 23.4347 43.897 24.5262 40.2298C24.7152 39.6 24.7797 38.9328 24.8141 38.2781C24.857 37.3789 24.8055 36.6621 24.3586 35.8706C24.2382 35.6593 23.9202 35.6759 23.7999 35.8623C23.8816 35.5225 23.9761 35.191 24.0878 34.8595C24.6207 35.2698 25.1793 35.651 25.768 35.9825C27.1002 36.7408 28.4882 36.9563 30.0137 37.1013C30.2028 37.1179 30.3102 37.0267 30.3489 36.9024C30.7098 37.0019 31.0794 37.0806 31.4575 37.1262C32.1107 37.2007 32.7467 37.1386 33.3526 36.9728C32.8842 37.5198 33.3956 38.1289 33.5331 38.8872C33.7265 39.9853 34.7449 40.6939 35.6 41.3901C37.7186 43.1056 40.5375 43.9385 43.176 44.647C44.4351 44.9827 48.9944 46.0518 50.3695 47.3156C51.7446 48.5794 53.2916 52.9345 53.2916 52.9345C53.2916 52.9345 49.596 52.7853 48.9429 52.6651C46.8114 52.2756 44.6714 51.9027 42.5228 51.5878C38.0537 50.9248 33.546 50.5767 29.021 50.6637C25.5145 50.7342 21.9951 50.9952 18.5015 51.3764C15.8114 51.4635 13.13 51.6417 10.4614 52.0063C8.94451 52.2135 7.46197 52.5864 5.97084 52.9179M3.2722 44.6512C3.03585 44.8294 2.82529 45.0241 2.63192 45.2354C2.8124 45.0117 3.02726 44.8169 3.2722 44.6512ZM2.42565 54.1776C2.39987 54.1279 2.37408 54.0823 2.3483 54.0326C2.61902 54.0492 2.89404 54.0409 3.16907 54.0202C2.91983 54.0699 2.67489 54.1237 2.42995 54.1776H2.42565Z" fill="url(#paint0_linear_49_12773)"/>
</g>
<defs>
<linearGradient id="paint0_linear_49_12773" x1="28" y1="1" x2="28" y2="55.8145" gradientUnits="userSpaceOnUse">
<stop stop-color="#DA48A2"/>
<stop offset="1" stop-color="#FB4B37"/>
</linearGradient>
<clipPath id="clip0_49_12773">
<rect width="56" height="56" fill="white" transform="translate(0.205078)"/>
</clipPath>
</defs>
</svg>
