<svg width="101" height="100" viewBox="0 0 101 100" fill="none" xmlns="http://www.w3.org/2000/svg">
<g clip-path="url(#clip0_48_12473)">
<path d="M11.5679 18.4744C11.4903 18.5091 11.4337 18.5663 11.3968 18.6351C11.1053 18.647 10.8164 18.6871 10.5318 18.7715C10.4696 18.7895 10.4183 18.8207 10.3777 18.8608C10.0611 19.0021 10.0915 19.5174 10.3964 19.6677C10.4302 19.6853 10.4618 19.7006 10.4935 19.716C10.5252 19.7314 10.5568 19.7468 10.5906 19.7643C10.7873 19.8599 10.9637 19.7964 11.0762 19.6686C11.107 19.6482 11.1353 19.6236 11.1604 19.5957C11.5605 19.5624 11.9547 19.6318 12.3531 19.7019C12.5661 19.7395 12.7802 19.7772 12.9971 19.7995C13.6641 19.861 14.348 19.8346 15.0151 19.7995C15.7057 19.7554 16.3921 19.6781 17.0774 19.601L17.1767 19.5898C17.4681 19.6077 17.7605 19.6145 18.0549 19.5973C18.8469 19.5543 19.6389 19.5187 20.4309 19.4832C21.6869 19.4269 22.9429 19.3706 24.1989 19.2842C25.4683 19.2675 26.7138 19.3369 27.9845 19.4129C30.7625 19.5886 33.5996 19.5007 36.3691 19.2108C36.5445 19.1923 36.7193 19.1731 36.8938 19.1538C38.1307 19.0175 39.3488 18.8833 40.5994 19.0527C41.5916 19.1873 42.6244 19.0645 43.6386 18.944C43.9134 18.9113 44.1877 18.8787 44.4587 18.8515C44.5333 18.8474 44.6084 18.8439 44.6832 18.8405C44.9296 18.8293 45.1769 18.8181 45.4208 18.7803C45.5878 18.7566 45.748 18.7169 45.9082 18.6772C46.1045 18.6286 46.3009 18.58 46.51 18.5606C46.6713 18.5454 46.7802 18.4595 46.8399 18.3464C46.9182 18.329 46.9957 18.3098 47.0733 18.2906C47.2695 18.242 47.466 18.1934 47.6752 18.174C48.2231 18.1222 48.1588 17.2636 47.6269 17.2764C47.556 17.2263 47.4648 17.1988 47.3545 17.2075L47.3629 17.2163C47.2783 17.2229 47.1969 17.2323 47.1172 17.2439C47.0987 17.2395 47.0792 17.2362 47.0588 17.2339L47.01 17.2285C46.9634 17.1997 46.9066 17.1799 46.8391 17.1724C46.2283 17.1005 45.6308 17.1538 45.0278 17.2077C44.6722 17.2394 44.3147 17.2713 43.9514 17.2778C43.2122 17.2903 42.4944 17.2138 41.7737 17.137C41.4818 17.1059 41.1893 17.0747 40.8948 17.0494C40.069 16.9766 39.1953 17.088 38.3457 17.1962C38.0661 17.2318 37.7892 17.2671 37.5174 17.2954C36.6245 17.3876 35.7316 17.465 34.8388 17.5425C34.5411 17.5683 34.2434 17.5941 33.9457 17.6204C31.6744 17.8225 29.3861 17.8577 27.1063 17.8401C26.5532 17.8401 26.0021 17.88 25.451 17.9239C25.1081 17.9303 24.7651 17.9409 24.4215 17.9544C23.8132 17.9797 23.2034 17.9842 22.5939 17.9886C21.7231 17.995 20.8529 18.0014 19.9886 18.0686C19.4199 18.1136 18.851 18.1763 18.2823 18.239L18.1879 18.2494C17.8982 18.2381 17.6099 18.2018 17.3214 18.1655C17.0655 18.1333 16.8094 18.101 16.5518 18.0861C16.2186 18.0663 15.8881 18.0967 15.5588 18.1271C15.3039 18.1506 15.0497 18.174 14.7955 18.174C14.5064 18.174 14.2233 18.134 13.9414 18.0943C13.647 18.0527 13.3537 18.0113 13.0561 18.0158C12.9222 18.0158 12.8175 18.0849 12.7509 18.1842C12.7327 18.2 12.7159 18.2176 12.7007 18.2366C12.3739 18.2426 12.0499 18.2815 11.7307 18.3761C11.664 18.3955 11.6099 18.43 11.5679 18.4744Z" fill="url(#paint0_linear_48_12473)"/>
<path d="M49.558 24.4473C49.661 24.4903 49.743 24.5394 49.8065 24.593C50.7752 25.0174 49.8344 25.9854 49.1869 26.1254C49.0397 26.1565 48.8838 26.172 48.7241 26.1757C48.5246 26.3544 48.2776 26.4921 48.0635 26.5384C47.6742 26.627 47.2234 26.5971 46.8029 26.5307C46.6051 26.5277 46.4123 26.5077 46.2193 26.4878C45.9155 26.4564 45.6111 26.425 45.2857 26.4593C44.8307 26.505 44.3753 26.5432 43.9226 26.5813C43.6782 26.6018 43.4344 26.6223 43.1917 26.6439C42.5374 26.7078 41.8832 26.71 41.2277 26.7122C40.6228 26.7142 40.0168 26.7162 39.4089 26.7669C38.1036 26.8724 36.7956 26.8076 35.488 26.7428C34.402 26.689 33.3159 26.6351 32.2318 26.679C31.3565 26.7135 30.4823 26.7537 29.6084 26.7939L29.6041 26.794L29.603 26.7941L29.5958 26.7944C28.4335 26.9441 27.2709 27.0896 26.1015 27.1534C24.6408 27.2325 23.1631 27.2677 21.694 27.2149C21.1958 27.1993 20.6984 27.166 20.2013 27.1326C19.2997 27.072 18.3978 27.0115 17.489 27.0568C17.1888 27.072 16.8949 27.1187 16.6018 27.1652C16.2191 27.2259 15.8378 27.2864 15.4456 27.2765C15.2293 27.2705 15.0145 27.2626 14.8008 27.2547C14.3805 27.2392 13.9626 27.2237 13.5374 27.2237C13.3948 27.2256 13.2203 27.2419 13.0294 27.2598C12.5309 27.3065 11.9206 27.3636 11.475 27.2002C11.2715 27.3809 10.8905 27.3827 10.7512 27.048C10.6667 26.8459 10.6583 26.7229 10.6836 26.5033C10.6922 26.4098 10.7462 26.3186 10.8205 26.2513C10.883 26.1092 11.0379 25.9936 11.1817 25.9936C11.2125 25.9926 11.2433 25.9921 11.274 25.9919C11.398 25.927 11.5442 25.9205 11.6638 26.0083C11.7508 26.0151 11.8378 26.0232 11.925 26.0315C11.9417 25.9839 11.969 25.9386 12.0033 25.8988C12.0519 25.7342 12.2197 25.5895 12.3806 25.5895C12.4201 25.5882 12.4595 25.5877 12.4988 25.5878C12.6231 25.5224 12.7703 25.5163 12.8903 25.6059C12.9792 25.613 13.068 25.6214 13.1567 25.6299L13.1579 25.63L13.1596 25.6301C13.4333 25.6561 13.7069 25.6822 13.9849 25.6686C14.2009 25.6568 14.416 25.6429 14.6308 25.6291C15.054 25.6019 15.4759 25.5748 15.9016 25.5632C16.3972 25.5528 16.8929 25.5069 17.3884 25.4611C18.1509 25.3906 18.9134 25.3201 19.6759 25.3787C23.093 25.6326 26.5142 25.5197 29.9367 25.3725L30.0675 25.3588C30.7256 25.2899 31.3846 25.2208 32.0459 25.1589L32.2898 25.1368C33.7589 25.0033 35.2012 24.8722 36.6815 24.9305C38.2351 24.992 39.7465 24.9217 41.3001 24.7899C42.2369 24.7113 43.1712 24.6233 44.1056 24.5352L44.1087 24.5349C44.7396 24.4755 45.3707 24.416 46.0033 24.3594C46.1728 24.3442 46.3508 24.3252 46.5343 24.3055C47.5203 24.1999 48.6682 24.0769 49.558 24.4473Z" fill="url(#paint1_linear_48_12473)"/>
<path fill-rule="evenodd" clip-rule="evenodd" d="M4.03461 11.6373C4.06451 11.6284 4.0968 11.6223 4.13151 11.6196C4.76848 11.5667 5.3964 11.48 6.02365 11.3933C6.75172 11.2928 7.47889 11.1923 8.21824 11.1451C8.49294 11.1273 8.76695 11.1079 9.04061 11.0886C10.1128 11.0131 11.1797 10.9378 12.2627 10.9518C13.018 10.9665 13.7732 10.9404 14.5285 10.9144C15.1327 10.8936 15.7368 10.8728 16.341 10.8728C17.768 10.8815 19.2034 10.8113 20.6304 10.7146C21.6849 10.6429 22.7406 10.5618 23.7972 10.4805C27.5292 10.1937 31.2722 9.90605 35.01 10.0293C35.3022 10.0394 35.5944 10.051 35.8866 10.0625C36.8609 10.101 37.8352 10.1395 38.8096 10.1259C39.3557 10.1221 39.9002 10.1585 40.4439 10.1949C41.1441 10.2418 41.8429 10.2885 42.5417 10.249C44.7202 10.1259 46.848 10.1962 49.018 10.3983C49.6886 10.4585 50.3731 10.4614 51.0571 10.4643C51.5702 10.4665 52.083 10.4686 52.5896 10.495C53.8562 10.5653 55.1227 10.574 56.3977 10.5301C57.0408 10.5048 57.6856 10.4735 58.3311 10.4422C60.1519 10.3537 61.9781 10.2651 63.7859 10.3105C65.8634 10.3568 67.9409 10.4981 70.0127 10.639C70.2986 10.6584 70.5845 10.6778 70.8702 10.697C71.4546 10.7345 72.0414 10.7096 72.6268 10.6848C73.1409 10.6631 73.6539 10.6414 74.1632 10.6619C74.3553 10.6699 74.5369 10.7143 74.7183 10.7586C74.9357 10.8117 75.1528 10.8648 75.3875 10.8552L75.3897 10.8551C75.6422 10.8464 75.8778 10.8382 76.0715 11.0397C76.1001 11.0715 76.1262 11.1065 76.1483 11.1438C76.1784 11.1399 76.2069 11.1359 76.2355 11.132L76.2364 11.1318C76.2677 11.1275 76.2995 11.1231 76.3328 11.1187V11.11C76.8191 11.0409 76.9325 11.7147 76.5887 11.9399C76.5462 12.8592 76.5697 13.7826 76.5932 14.7054C76.6135 15.5028 76.6338 16.2997 76.6114 17.0933C76.6055 17.3032 76.5902 17.5056 76.575 17.706C76.547 18.0761 76.5195 18.4397 76.5524 18.8329C76.5601 18.9221 76.5683 19.0112 76.5765 19.1003C76.6216 19.591 76.6667 20.0819 76.6452 20.5726C76.6228 21.1141 76.5622 21.6555 76.5015 22.1983C76.448 22.6772 76.3943 23.1571 76.3666 23.6389C76.3429 24.0466 76.3328 24.4515 76.3227 24.8563C76.3075 25.4636 76.2923 26.0709 76.2315 26.6877C76.1302 27.742 76.0542 28.7788 76.0795 29.8331C76.0924 30.2248 76.0856 30.6139 76.0789 31.0029C76.0679 31.6348 76.057 32.2665 76.1302 32.9083C76.144 33.0249 76.1612 33.1436 76.1786 33.2635C76.2674 33.8753 76.3606 34.5172 76.0288 35.0609C76.025 35.0672 76.021 35.0734 76.017 35.0794C76.0227 35.2935 75.8992 35.5101 75.6323 35.5354C75.5953 35.5387 75.5583 35.5418 75.5212 35.5448L75.4627 35.5494L75.4438 35.551L75.4337 35.5517C75.2803 35.5634 75.1263 35.5733 74.9722 35.5832L74.8804 35.5891C74.8545 35.7712 74.7309 35.9353 74.5007 35.9571C74.2829 35.9767 74.0616 35.9909 73.8393 36.0052L73.8378 36.0053C73.363 36.0358 72.8833 36.0666 72.4236 36.1504C72.2512 36.1825 72.0811 36.2285 71.9113 36.2744C71.5238 36.3793 71.1373 36.4838 70.7264 36.4227C70.5955 36.4052 70.4689 36.3612 70.3423 36.3173C70.2156 36.2734 70.089 36.2294 69.9581 36.2119C69.7118 36.1798 69.4431 36.2179 69.1847 36.2544C69.0887 36.268 68.9941 36.2814 68.9026 36.2909C68.5606 36.3217 68.2187 36.3502 67.8767 36.3788C67.5347 36.4074 67.1928 36.4359 66.8508 36.4667C66.5996 36.487 66.3496 36.514 66.0999 36.5409C65.7035 36.5836 65.3077 36.6262 64.9088 36.6424C64.3902 36.6631 63.8821 36.6022 63.3722 36.541C63.2345 36.5245 63.0965 36.508 62.9583 36.493C62.3496 36.4289 61.7394 36.3794 61.1289 36.3299C60.3167 36.2639 59.5041 36.198 58.6942 36.0976C58.1608 36.0329 57.6236 35.9557 57.0841 35.8781C55.0621 35.5874 53.0083 35.2921 51.0021 35.632C50.2321 35.7646 49.4591 35.7851 48.683 35.8057C48.1739 35.8192 47.6635 35.8327 47.1518 35.878C46.6706 35.9223 46.1933 36.0009 45.7159 36.0795C44.9618 36.2037 44.2067 36.3281 43.4365 36.3173C42.6334 36.3055 41.8607 36.4159 41.0827 36.5271C40.6992 36.5819 40.3142 36.6369 39.924 36.6775C39.2132 36.75 38.4998 36.764 37.7853 36.7781C37.2012 36.7895 36.6163 36.801 36.0315 36.8445C34.8409 36.9323 33.6166 36.8884 32.426 36.739C31.1844 36.584 30.0078 36.6992 28.7767 36.8196L28.7024 36.8269C28.3307 36.8628 27.9597 36.9001 27.5891 36.9374C26.6883 37.0281 25.7891 37.1187 24.8858 37.1871C23.9957 37.2537 23.1136 37.2369 22.2284 37.22C21.8291 37.2123 21.4286 37.2047 21.0271 37.2047C20.4835 37.2047 19.9431 37.2359 19.4031 37.267C18.6935 37.308 17.984 37.3489 17.2697 37.3189C16.4363 37.2815 15.6072 37.2219 14.7763 37.1622C14.437 37.1378 14.0974 37.1134 13.7571 37.0905C11.3075 36.925 8.94773 37.1102 6.5156 37.3012L6.06492 37.3365C5.98407 37.3428 5.87975 37.3541 5.75865 37.3673C5.07734 37.4414 3.86501 37.5733 3.31279 37.1916C3.2865 37.1948 3.25995 37.196 3.23353 37.195C3.0712 37.5563 2.44345 37.5391 2.40042 37.0466C2.38246 36.8274 2.36102 36.6066 2.33868 36.3847C2.08247 35.7971 2.06662 34.8561 2.05567 34.2061C2.05198 33.987 2.04885 33.8009 2.03724 33.6727C2.00889 33.3579 2.01757 33.0487 2.02626 32.7388C2.03311 32.495 2.03996 32.2509 2.02881 32.0033C2.01939 31.7813 2.00532 31.5654 1.99134 31.351C1.96771 30.9884 1.94436 30.6303 1.94436 30.2549C1.96125 29.1127 1.99503 27.9705 2.05414 26.8283L2.05973 26.726C2.05781 26.6664 2.05597 26.6068 2.05422 26.5472C2.04233 26.019 1.98759 25.4947 1.93289 24.9706C1.87111 24.3788 1.80936 23.7873 1.80936 23.1909C1.80936 22.9508 1.83001 22.7124 1.85064 22.4742C1.87758 22.1632 1.90448 21.8526 1.88535 21.5391C1.85158 21.0647 1.86846 20.6342 1.93601 20.1597C1.94604 20.0941 1.95536 20.0288 1.96402 19.9638C1.93942 19.6538 1.918 19.3442 1.90216 19.035C1.88268 18.7007 1.90531 18.3693 1.92796 18.0375C1.9446 17.7937 1.96126 17.5497 1.96126 17.3042C1.96126 16.989 1.95497 16.6738 1.94866 16.3575C1.9423 16.039 1.93593 15.7194 1.93593 15.3976C1.93593 14.8616 1.92748 14.352 1.87681 13.8249C1.8629 13.6692 1.85615 13.53 1.8672 13.3979C1.85755 13.2945 1.84677 13.1908 1.83469 13.0869C1.78416 12.5961 1.74201 11.9392 2.3871 11.9359C2.45287 11.9364 2.51188 11.9493 2.56388 11.9719C2.63436 11.9431 2.71924 11.9271 2.82112 11.9271L2.81268 11.9359C2.90609 11.9359 2.98597 11.9608 3.05162 12.0023L3.06303 12.0006C3.11714 11.7489 3.2665 11.5581 3.61643 11.5581C3.62893 11.5581 3.64118 11.5585 3.65318 11.5594C3.69361 11.5527 3.73748 11.5493 3.78506 11.5493L3.77661 11.5581C3.87925 11.5581 3.96557 11.5882 4.03461 11.6373ZM73.7944 12.1326L73.8016 12.1342C73.8821 12.2403 74.0136 12.3097 74.1482 12.3196L74.145 12.3884C73.7739 12.6692 73.7963 13.1423 73.8181 13.6041C73.8271 13.7958 73.8361 13.9855 73.8168 14.1588C73.7466 14.8037 73.7494 15.4698 73.7521 16.1306C73.7533 16.4238 73.7545 16.7166 73.7493 17.0055C73.738 17.6923 73.7569 18.3908 73.7757 19.0853V19.088C73.7851 19.432 73.7943 19.7756 73.7999 20.1158C73.7999 20.3299 73.8134 20.5454 73.8269 20.7611C73.8472 21.0855 73.8675 21.4106 73.8421 21.7324C73.829 21.9135 73.8069 22.0946 73.7849 22.2757C73.7502 22.5602 73.7155 22.8449 73.7155 23.1294C73.7054 23.7198 73.6679 24.3007 73.6304 24.8816C73.6054 25.2689 73.5804 25.6563 73.5635 26.0464C73.5368 26.6744 73.5506 27.3129 73.5644 27.9487V27.9516C73.5724 28.3198 73.5804 28.6875 73.5804 29.0512C73.5804 29.2885 73.5529 29.5235 73.5255 29.7585C73.4981 29.9935 73.4706 30.2286 73.4706 30.4658C73.4706 31.0193 73.4706 31.5728 73.42 32.1264C73.4057 32.3041 73.3934 32.4817 73.3811 32.6598L73.381 32.6609C73.3568 33.0106 73.3325 33.3617 73.2933 33.7166C73.2728 33.9258 73.2842 34.1328 73.2955 34.3388C73.3005 34.43 73.3055 34.521 73.3077 34.6119C73.0838 34.6404 72.8627 34.6972 72.6418 34.7539C72.3621 34.8257 72.0828 34.8975 71.7987 34.9115C71.5654 34.9255 71.3464 34.8651 71.1252 34.8041C70.9301 34.7503 70.7334 34.696 70.5237 34.6919C70.1631 34.6803 69.7916 34.7257 69.4235 34.7706L69.4223 34.7707C69.2311 34.794 69.0392 34.8174 68.8519 34.8324C68.457 34.8652 68.0582 34.91 67.6582 34.9551C66.8778 35.0429 66.0928 35.1312 65.3224 35.1312C64.5503 35.1312 63.7602 35.0412 62.9756 34.9519C62.5589 34.9044 62.1439 34.8572 61.7339 34.8237C60.6124 34.7324 59.4961 34.5819 58.3795 34.4314C57.0245 34.2487 55.669 34.066 54.3035 33.989C53.4954 33.945 52.726 34.0401 51.9462 34.1364C51.6342 34.1749 51.3205 34.2136 51.002 34.2438C50.4408 34.3006 49.8778 34.3124 49.3146 34.3243C48.6577 34.3381 48.0006 34.3519 47.3459 34.4371C47.1545 34.4623 46.9653 34.4882 46.7775 34.514L46.7766 34.5141L46.772 34.5147C45.7853 34.6499 44.8377 34.7797 43.8249 34.7797C43.188 34.7797 42.5642 34.884 41.9404 34.9882C41.4478 35.0705 40.9551 35.1529 40.4559 35.1839C39.7504 35.2291 39.0421 35.2514 38.3326 35.2736L38.3291 35.2738C37.8003 35.2904 37.2702 35.307 36.7407 35.3332C35.5332 35.3947 34.3511 35.2893 33.1606 35.1575C32.2064 35.0546 31.2701 35.1486 30.3218 35.2438C30.1371 35.2623 29.952 35.2809 29.7662 35.2981C29.3546 35.3368 28.9439 35.3774 28.5336 35.4181C27.7318 35.4975 26.9312 35.5768 26.127 35.6408C24.9449 35.7374 23.7712 35.7198 22.5891 35.6847C21.9896 35.6671 21.3922 35.7067 20.7948 35.7462C20.1974 35.7857 19.6001 35.8253 19.0005 35.8077C18.0064 35.7813 17.0135 35.7076 16.0205 35.6339C14.3734 35.5117 12.726 35.3894 11.0719 35.4826C10.3316 35.5204 9.59618 35.5938 8.86037 35.6673C8.22826 35.7303 7.59588 35.7935 6.95989 35.8341C6.68125 35.8516 6.39417 35.8692 6.11553 35.8692C5.92132 35.8692 5.72711 35.8692 5.53291 35.8516C5.51058 35.8516 5.48004 35.8448 5.44925 35.8379C5.43513 35.8347 5.42095 35.8316 5.40749 35.829C5.32953 35.6268 5.12596 35.4668 4.86587 35.5441L4.84217 35.5277C4.78273 35.4375 4.68899 35.3752 4.56328 35.3713C4.48125 34.5843 4.40055 33.7879 4.46056 33.0137C4.53655 32.0033 4.5281 31.0632 4.47743 30.0528C4.45718 29.5987 4.43894 29.1443 4.42069 28.6897C4.39205 27.9763 4.36339 27.2625 4.32694 26.5495C4.35129 26.0457 4.37847 25.5418 4.42668 25.0359C4.5876 23.3337 4.43973 21.6424 4.29168 19.9491C4.27325 19.7383 4.25476 19.5269 4.23692 19.316L4.24428 19.2598C4.30783 18.7746 4.37155 18.2882 4.36767 17.7962C4.36381 17.3299 4.3405 16.8654 4.31716 16.4003C4.28949 15.8488 4.26176 15.2963 4.26634 14.7386C4.26634 14.3975 4.22746 14.0564 4.18857 13.7153C4.16736 13.5292 4.14615 13.3432 4.13125 13.1571C4.12767 13.1142 4.1256 13.0693 4.12401 13.0233C4.1808 12.9338 4.20344 12.8406 4.20077 12.7516C4.37335 12.7267 4.5457 12.7006 4.718 12.6744C5.31952 12.5832 5.92118 12.492 6.52947 12.4542C6.91101 12.4281 7.29347 12.3973 7.67655 12.3664C7.86054 12.3515 8.04507 12.3366 8.22931 12.3223C8.79122 12.2797 9.35313 12.2427 9.91505 12.2259C11.0444 12.1932 12.1756 12.1852 13.3077 12.1772C14.6134 12.1679 15.9203 12.1587 17.2273 12.1116C19.3538 12.0333 21.4736 11.8694 23.5926 11.7056C26.2275 11.5019 28.8613 11.2983 31.5055 11.2594C31.6645 11.2571 31.8235 11.256 31.9825 11.2559C32.8754 11.2576 33.7653 11.2903 34.6586 11.3231L35.0775 11.3384C35.5785 11.3561 36.0822 11.3567 36.5865 11.3568L36.8166 11.3569C37.4851 11.3574 38.154 11.3617 38.818 11.4087C39.3649 11.4468 39.9119 11.4675 40.4589 11.4777C41.3871 11.4997 42.3163 11.4878 43.2461 11.4759C43.7952 11.4689 44.3446 11.4618 44.894 11.4618C45.1428 11.4628 45.3916 11.4654 45.6405 11.4702C46.1202 11.4784 46.5926 11.5247 47.0646 11.5709C47.6012 11.6235 48.1371 11.676 48.6825 11.6724C48.7686 11.6737 48.855 11.6738 48.9416 11.6723C48.9906 11.6716 49.0396 11.6711 49.0885 11.6708C49.7291 11.6751 50.3674 11.7109 51.0049 11.7466C51.387 11.768 51.7687 11.7895 52.1505 11.8041C52.7708 11.8286 53.3932 11.8379 54.0167 11.8363C55.6568 11.8412 57.3045 11.7678 58.9378 11.695C59.2427 11.6814 59.5471 11.6678 59.8508 11.6548C60.3983 11.6315 60.9441 11.6202 61.4887 11.6183C63.1758 11.6248 64.8535 11.7164 66.5414 11.8085C66.8384 11.8248 67.1358 11.841 67.4335 11.8568C68.4525 11.9126 69.4555 11.9628 70.4679 11.9548C70.8823 11.958 71.2974 11.9529 71.7142 11.9359C71.8483 11.9293 71.9927 11.9226 72.1416 11.9188C72.4367 11.9282 72.7281 11.9592 72.9726 12.0325C73.1752 12.094 73.3779 12.1555 73.5974 12.1555C73.631 12.1555 73.7167 12.1446 73.7944 12.1326ZM5.23522 35.7821C5.24181 35.769 5.26297 35.7722 5.27893 35.8311C5.2366 35.8246 5.22863 35.7952 5.23522 35.7821Z" fill="url(#paint2_linear_48_12473)"/>
<path d="M2.3871 11.9359L2.38353 11.9359H2.39196L2.3871 11.9359Z" fill="url(#paint3_linear_48_12473)"/>
<path fill-rule="evenodd" clip-rule="evenodd" d="M100.082 12.6896C100.126 12.6845 100.172 12.6709 100.22 12.6476L100.321 12.5948C100.659 12.4279 100.701 11.9622 100.355 11.769C100.202 11.6813 100.071 11.6481 99.93 11.6392C99.8741 11.5682 99.7862 11.52 99.6627 11.5142C98.571 11.4524 97.5085 11.2866 96.443 11.1202C95.9922 11.0499 95.5406 10.9794 95.0862 10.9167C94.6497 10.8552 94.2133 10.8293 93.7768 10.8035C93.4027 10.7814 93.0285 10.7592 92.6544 10.7146C92.5537 10.7033 92.4531 10.6918 92.3526 10.6802C91.6696 10.6017 90.9893 10.5236 90.2902 10.5389C89.735 10.5542 89.1758 10.5395 88.6156 10.5248C88.0291 10.5093 87.4417 10.4939 86.8571 10.5129C86.2129 10.5128 85.5709 10.541 84.9372 10.6443C84.743 10.6773 84.5493 10.7152 84.3556 10.7531C84.2362 10.7764 84.1168 10.7998 83.9973 10.822L83.9953 10.822C83.4403 10.8053 82.8885 10.8132 82.3313 10.8384C82.0437 10.7905 81.7571 10.7562 81.4782 10.8049C81.2424 10.7827 81.0095 10.7888 80.783 10.864C80.7152 10.8868 80.6607 10.9233 80.6186 10.9687C80.5908 10.9769 80.5651 10.9876 80.5414 11.0003C80.4341 11.0221 80.3345 11.0801 80.2706 11.1716C80.073 11.1604 79.8772 11.173 79.685 11.233C79.6048 11.26 79.5431 11.3062 79.4987 11.3639C79.4867 11.3691 79.4752 11.3749 79.4641 11.3811C79.2664 11.4152 79.0911 11.5726 79.1108 11.8392H79.077C79.0946 12.0432 79.1132 12.2475 79.1317 12.4515C79.2204 13.425 79.3091 14.3995 79.2881 15.38C79.2719 16.2234 79.2004 17.067 79.1288 17.9103C79.0886 18.3848 79.0483 18.8593 79.0179 19.3337C78.8575 21.7675 78.7646 24.2276 78.79 26.6701C78.817 28.7273 78.8658 30.7902 78.9146 32.8496L78.9148 32.858C78.9268 33.3641 78.9387 33.87 78.9504 34.3755C78.9714 35.4169 79.0417 36.4568 79.112 37.497C79.2114 38.9669 79.3108 40.4374 79.2712 41.914C79.1953 44.4093 79.2206 46.8869 79.2628 49.3822C79.2787 50.3079 79.2563 51.2355 79.2339 52.1623V52.1632C79.1968 53.6989 79.1597 55.2341 79.2966 56.7625C79.376 57.653 79.3139 58.5158 79.2511 59.3877L79.251 59.3887L79.251 59.3897L79.2509 59.391C79.227 59.7224 79.203 60.0552 79.1868 60.3912C79.155 61.0205 79.1574 61.6499 79.1599 62.2778C79.162 62.8158 79.1641 63.3529 79.1446 63.888C79.1097 64.8166 79.0496 65.7397 78.9896 66.6605L78.9896 66.6616L78.9895 66.6628C78.8901 68.1892 78.791 69.7115 78.8068 71.2508C78.817 72.1102 78.8089 72.9733 78.8007 73.8352V73.842C78.7954 74.4137 78.79 74.986 78.79 75.556C78.79 76.0303 78.7614 76.505 78.733 76.9793C78.7235 77.1374 78.714 77.2956 78.7055 77.4538C78.686 77.8389 78.7087 78.2241 78.7314 78.6092C78.748 78.8917 78.7646 79.1746 78.7646 79.457C78.7646 80.224 78.8168 80.9828 78.869 81.741C78.9106 82.3465 78.9523 82.9516 78.9673 83.5601C78.9772 84.0194 78.9176 84.4934 78.8579 84.9691C78.7645 85.7127 78.6707 86.4605 78.8406 87.1624C78.8828 87.3293 79.1108 87.4875 79.2797 87.4524L79.2832 87.4516C79.2988 87.5909 79.3224 87.7289 79.356 87.8654C79.3982 88.0411 79.6261 88.1905 79.8035 88.1553C79.8648 88.1427 79.9251 88.128 79.9845 88.1115C79.974 88.3579 80.1344 88.6148 80.4449 88.5858H80.4364C80.6644 88.5656 80.8972 88.536 81.132 88.5062C81.7151 88.432 82.3109 88.3563 82.8767 88.4189L83.0007 88.4329C83.6557 88.5071 84.2781 88.5776 84.9454 88.5858C85.3409 88.5943 85.7344 88.6315 86.1278 88.6686C86.5492 88.7084 86.9705 88.7482 87.394 88.7528C87.8831 88.7528 88.366 88.7016 88.8502 88.6503C89.1433 88.6192 89.4369 88.5881 89.7329 88.5682C90.1259 88.541 90.5191 88.549 90.9121 88.557C91.279 88.5644 91.6459 88.5719 92.0127 88.5507C92.2829 88.539 92.5531 88.5116 92.8234 88.4843C92.9584 88.4706 93.0935 88.457 93.2286 88.4452C93.5153 88.4193 93.7791 88.4508 94.0503 88.4832C94.1465 88.4947 94.2437 88.5063 94.3431 88.5155C94.6551 88.5419 94.9674 88.5287 95.2805 88.5156C95.5942 88.5024 95.9091 88.4891 96.2261 88.5155C96.5238 88.5407 96.8147 88.6029 97.1053 88.6651C97.4417 88.737 97.778 88.8089 98.125 88.8234C98.1688 88.8335 98.2169 88.8367 98.2694 88.8318C98.3032 88.8318 98.3454 88.8318 98.3792 88.823C98.4347 88.8178 98.4841 88.8044 98.5273 88.7846C98.8182 88.933 99.133 88.6274 99.1142 88.3107C99.1303 88.3117 99.1465 88.3125 99.1627 88.3133L99.1847 88.3142C99.2251 88.3229 99.2691 88.3259 99.3166 88.3222C99.3504 88.3222 99.3926 88.3222 99.4264 88.3134C99.493 88.3071 99.5506 88.2891 99.5994 88.2624C99.9769 88.4436 100.4 87.8515 100.034 87.4875V87.4963C99.9666 87.4279 99.9249 87.3213 99.9 87.1942C100.027 87.1201 100.119 86.9818 100.11 86.7846V86.7759C100.11 86.7626 100.11 86.7494 100.11 86.7362C100.109 86.728 100.109 86.7197 100.108 86.7115C100.108 86.7011 100.107 86.6907 100.106 86.6803C100.092 86.2061 100.163 85.7422 100.234 85.2812C100.315 84.7542 100.395 84.231 100.347 83.7007C100.287 83.0341 100.31 82.3617 100.334 81.6889V81.6879C100.354 81.1374 100.373 80.5862 100.347 80.0369C100.32 79.4997 100.274 78.9642 100.227 78.4297C100.17 77.7666 100.112 77.105 100.094 76.4434C100.062 75.266 100.134 74.0886 100.206 72.9184L100.22 72.683C100.331 70.8284 100.356 68.9736 100.382 67.115C100.389 66.5698 100.396 66.0243 100.406 65.4783C100.412 65.049 100.423 64.6196 100.435 64.1903L100.435 64.1887C100.455 63.4149 100.476 62.6411 100.465 61.8673C100.456 61.4234 100.434 60.9781 100.411 60.5328C100.37 59.709 100.328 58.8841 100.372 58.0629C100.397 57.578 100.411 57.0909 100.425 56.6043C100.446 55.9097 100.466 55.2142 100.516 54.5221C100.555 53.9807 100.615 53.4411 100.675 52.9009C100.746 52.2663 100.817 51.6307 100.853 50.9901C100.989 48.6266 101.081 46.1841 100.896 43.8206C100.863 43.39 100.828 42.9593 100.793 42.5295L100.793 42.5286L100.792 42.5156C100.628 40.5125 100.465 38.5161 100.541 36.5018C100.578 35.4705 100.662 34.4438 100.747 33.4174V33.4165C100.857 32.0824 100.967 30.7481 100.972 29.4026C100.972 29.0345 100.972 28.6666 100.973 28.299C100.977 25.912 100.981 23.5356 100.82 21.1525C100.7 19.4126 100.537 17.6719 100.375 15.932C100.275 14.8609 100.175 13.7889 100.085 12.7178C100.084 12.7083 100.083 12.6989 100.082 12.6896ZM82.894 12.1883C82.8524 12.2491 82.7939 12.3018 82.7165 12.3401C82.5892 12.4028 82.6267 12.9911 82.6476 13.3192C82.653 13.4046 82.6574 13.4723 82.6574 13.5086C82.6627 13.7922 82.6444 14.0687 82.6259 14.3472L82.6259 14.3482L82.6258 14.3492L82.6257 14.3503C82.6151 14.5105 82.6044 14.6721 82.5983 14.8353C82.5743 15.3901 82.5739 15.9463 82.5735 16.5028C82.5729 17.3211 82.5723 18.1401 82.4969 18.956C82.4622 19.3269 82.419 19.6948 82.3759 20.0617L82.3758 20.0629L82.3757 20.0639L82.3755 20.0651C82.2514 21.1222 82.1284 22.1706 82.2098 23.2524C82.3196 24.6845 82.3112 26.0376 82.269 27.4697C82.2464 28.2691 82.2993 29.088 82.352 29.903C82.3781 30.3063 82.4042 30.7087 82.4209 31.1071C82.4412 31.6157 82.4856 32.1243 82.5301 32.6334C82.5971 33.3997 82.6641 34.1672 82.6489 34.9379C82.625 36.4067 82.6581 37.8756 82.6912 39.346V39.3496L82.6912 39.3506C82.7165 40.4733 82.7418 41.597 82.7418 42.7224C82.7418 43.1511 82.7352 43.5788 82.7286 44.0059V44.0133C82.7155 44.8704 82.7024 45.7249 82.7418 46.5795C82.7565 46.9238 82.7776 47.2682 82.7987 47.6126C82.8503 48.4543 82.902 49.2961 82.86 50.1378C82.8117 51.0993 82.8628 52.0338 82.9143 52.9767C82.9348 53.3518 82.9553 53.7291 82.9698 54.1091C83.0012 54.9791 82.911 55.8393 82.821 56.697L82.8209 56.6979C82.79 56.992 82.7592 57.2858 82.7333 57.5797C82.5138 60.1013 82.4885 62.6141 82.5138 65.1357C82.5392 67.6925 82.4716 70.1965 82.2774 72.7445L82.2773 72.7463C82.1844 74.0547 82.0916 75.3635 81.9819 76.6719C81.8721 77.9986 81.8974 79.2637 81.9734 80.5904C82.0299 81.6205 82.0108 82.6454 81.9918 83.6681C81.9811 84.2475 81.9703 84.8285 81.9733 85.4072C82.0836 85.368 82.1958 85.3343 82.311 85.3086C82.7887 85.2003 83.2798 85.1659 83.768 85.1317C83.9529 85.1187 84.1374 85.1058 84.3206 85.0889C84.432 85.0793 84.5434 85.069 84.6549 85.0586C85.2529 85.0033 85.8519 84.9479 86.4568 84.9923C87.0143 85.0273 87.5611 85.1289 88.11 85.2309L88.1143 85.2317C88.2538 85.2577 88.394 85.2837 88.534 85.3086C90.1298 85.5897 91.6665 85.4492 93.2624 85.291C93.3426 85.2834 93.4227 85.2757 93.5029 85.2677C93.635 85.2547 93.7672 85.2413 93.8993 85.2279C94.4299 85.1741 94.9609 85.1203 95.4915 85.0889C95.7541 85.074 96.0305 85.1371 96.3069 85.2003C96.623 85.2725 96.9392 85.3448 97.2351 85.3003C97.2039 84.6628 97.2022 84.0382 97.3915 83.3933C97.436 83.2364 97.5405 83.139 97.6621 83.0933L97.6617 83.0857C97.6427 82.6903 97.6718 82.2949 97.7009 81.8995C97.7235 81.5921 97.7461 81.2844 97.7461 80.977C97.7377 80.3093 97.6955 79.6503 97.6448 78.9825C97.6349 78.852 97.6248 78.7217 97.6148 78.5915L97.6142 78.5841L97.6138 78.5787C97.5213 77.3808 97.4295 76.1935 97.4675 74.9849C97.4899 74.2546 97.5335 73.5244 97.5771 72.7941C97.6159 72.145 97.6547 71.4958 97.6786 70.8466C97.7268 69.476 97.742 68.1054 97.7572 66.7348C97.7685 65.7068 97.7799 64.6788 97.8052 63.6508C97.839 62.4032 97.8052 61.1731 97.7546 59.9343C97.7215 59.1766 97.7569 58.4302 97.7925 57.6803C97.8113 57.2827 97.8302 56.8831 97.839 56.4814C97.8604 55.2599 97.9558 54.0475 98.0511 52.8349C98.1437 51.6576 98.2362 50.4803 98.2612 49.2943C98.3119 46.9045 98.3034 44.5938 98.0923 42.2128C97.8728 39.7702 97.8559 37.354 97.9741 34.9027C98.0046 34.313 98.069 33.728 98.1333 33.1428L98.1334 33.1412C98.1936 32.5937 98.2539 32.0454 98.2865 31.4937C98.3447 30.533 98.3386 29.5672 98.3325 28.6041V28.6008C98.3306 28.3057 98.3287 28.0101 98.3287 27.7157C98.3564 23.7107 98.0165 19.7646 97.6746 15.7954L97.6743 15.792C97.5985 14.9122 97.5226 14.0313 97.4506 13.1483L97.459 13.1571C97.4517 13.0572 97.4717 12.9727 97.51 12.9042C97.4038 12.913 97.3042 12.9188 97.2226 12.9111C97.1784 12.9062 97.1345 12.9019 97.091 12.898C96.9758 12.902 96.8596 12.9094 96.7412 12.9199C96.4918 12.9413 96.2393 12.97 95.9856 12.9989C95.406 13.0648 94.8199 13.1315 94.2503 13.1132C94.1505 13.1108 94.051 13.1052 93.9516 13.0973C93.8339 13.0997 93.7168 13.0994 93.6003 13.0956C93.2231 13.0864 92.8483 13.031 92.4721 12.9755C92.2154 12.9376 91.9581 12.8996 91.6989 12.8761C91.4929 12.8847 91.2871 12.9046 91.0812 12.9245C90.6734 12.9639 90.2648 13.0034 89.8511 12.955L89.8501 12.9549C89.6458 12.9639 89.441 12.9618 89.2349 12.9375C88.8634 12.8935 88.5024 12.8013 88.1415 12.709C87.7805 12.6168 87.4195 12.5245 87.048 12.4806C86.7223 12.4429 86.3966 12.4149 86.0709 12.387C85.6367 12.3497 85.2025 12.3124 84.7682 12.2522C84.2845 12.1883 83.8107 12.1458 83.3413 12.121C83.1927 12.147 83.0438 12.1702 82.894 12.1883Z" fill="url(#paint4_linear_48_12473)"/>
<path fill-rule="evenodd" clip-rule="evenodd" d="M58.0627 54.8541C57.7346 54.7479 57.3641 54.7989 56.9811 54.8517L56.9218 54.8598C56.7295 54.8639 56.53 54.8913 56.3277 54.9191L56.289 54.9244L56.2279 54.9327L56.1704 54.9403C55.289 55.051 54.5717 55.3396 53.9324 55.9405C53.697 56.098 53.4729 56.2884 53.2563 56.5165C52.0911 57.7642 50.9343 60.0749 52.1502 61.6476C53.2479 63.0622 55.0548 63.9847 56.8449 63.8002C56.9131 63.793 56.9819 63.7843 57.0511 63.7739C57.4617 63.8434 57.8803 63.8606 58.2975 63.8178C59.1419 63.7299 60.0791 63.3961 60.6026 62.6844C61.2612 61.7706 61.371 60.8481 61.4385 59.7498C61.5145 58.6867 61.4132 57.7818 60.7546 56.9295L60.7416 56.913C60.6145 56.7513 60.5023 56.6085 60.3735 56.4723L60.3578 56.4524C60.1541 56.1924 59.9885 55.981 59.7073 55.7697C59.55 55.6494 59.4086 55.5152 59.2676 55.3814C59.038 55.1635 58.8098 54.9469 58.5168 54.7944C58.3374 54.6979 58.1739 54.744 58.0627 54.8541ZM58.2257 62.3783C58.1904 62.3931 58.1549 62.407 58.1193 62.4202C57.5578 62.4966 56.9818 62.4177 56.4059 62.2802C55.6375 62.0957 54.9789 61.7442 54.4216 61.1644C54.2973 61.0383 54.1706 60.9085 54.056 60.7698C54.004 60.662 53.964 60.5481 53.9406 60.4264C53.8477 59.9256 54.0081 59.3369 54.1939 58.8712C54.5401 58.019 55.1227 57.114 55.8742 56.5956C56.1638 56.3925 56.4676 56.292 56.7924 56.2285C56.9673 56.4437 57.2305 56.4192 57.4027 56.2837C57.8268 56.6123 58.2114 57.067 58.5251 57.4479C59.1873 58.2416 59.1505 58.9747 59.1004 59.9738L59.0993 59.9958C59.0538 60.8087 58.8789 61.8342 58.2257 62.3783Z" fill="url(#paint5_linear_48_12473)"/>
<path fill-rule="evenodd" clip-rule="evenodd" d="M2.63687 42.9157C2.65872 42.9453 2.68219 42.973 2.70713 42.9988C2.60396 43.0601 2.52619 43.164 2.5112 43.3076C2.4018 43.3864 2.32816 43.518 2.34124 43.6976H2.32436C2.52701 46.1841 2.44256 48.7233 2.27369 51.2097C2.24421 51.6146 2.27236 52.0066 2.30066 52.4007C2.31289 52.5711 2.32515 52.7418 2.3328 52.9142C2.3595 53.4698 2.32816 54.0364 2.29717 54.5966C2.28896 54.7451 2.28076 54.8932 2.27369 55.0404C2.23541 55.7308 2.18643 56.4189 2.13752 57.106C2.08933 57.7829 2.04122 58.4589 2.0035 59.1348C1.972 59.6774 1.91294 60.2185 1.85397 60.7587C1.77068 61.5219 1.68758 62.2832 1.68264 63.0446C1.68264 63.7643 1.70386 64.4839 1.72512 65.2049C1.74409 65.8482 1.7631 66.4926 1.76708 67.1389C1.78396 68.5711 1.69952 70.012 1.57286 71.4353C1.54331 71.7516 1.49054 72.0657 1.43777 72.3798C1.385 72.6939 1.33223 73.008 1.30267 73.3243C1.27169 73.6467 1.26623 73.9715 1.26075 74.2975C1.25578 74.5934 1.25079 74.8902 1.22668 75.187C1.20366 75.5225 1.16318 75.8579 1.12271 76.1934C1.07414 76.5959 1.02556 76.9985 1.00714 77.4011C0.97734 77.998 1.04614 78.5949 1.11495 79.1918C1.12412 79.2714 1.1333 79.3511 1.14224 79.4307C1.22999 80.1839 1.19691 80.9348 1.16384 81.6858C1.13326 82.3801 1.10267 83.0745 1.16757 83.771C1.1998 84.1343 1.56346 84.238 1.81081 84.1162C2.15135 84.3341 2.63917 84.3252 3.0889 84.317C3.31266 84.3129 3.52699 84.309 3.70905 84.3333C4.09914 84.3848 4.48922 84.3844 4.8793 84.384C5.02117 84.3838 5.16304 84.3837 5.3049 84.386C5.70972 84.3961 6.11179 84.4519 6.51424 84.5077L6.51518 84.5079C6.81727 84.5498 7.12039 84.5919 7.42426 84.6144C8.04435 84.6602 8.66823 84.6883 9.29231 84.7163C9.98526 84.7475 10.6789 84.7786 11.3674 84.8341C12.3294 84.9126 13.2866 85.0593 14.2392 85.2053C14.5659 85.2554 14.8921 85.3053 15.2177 85.3525C17.945 85.7391 20.6724 86.0993 23.4165 86.2926C25.8905 86.4683 28.3899 86.644 30.8723 86.5825C33.5067 86.5123 36.1327 86.8461 38.7418 87.1888C39.0695 87.2339 39.4 87.2562 39.73 87.2784C39.9783 87.2951 40.2263 87.3117 40.4727 87.3381C40.8476 87.375 41.2134 87.4594 41.5792 87.5437C41.823 87.6 42.0669 87.6562 42.3134 87.6984C43.1477 87.8478 43.9929 87.9259 44.837 88.0038C45.2829 88.0449 45.7286 88.086 46.1722 88.1377C48.7982 88.4628 51.4157 88.6033 54.0586 88.6473C55.4264 88.6736 56.7774 88.7264 58.1284 88.946L58.4513 89.0001C59.5019 89.1763 60.5595 89.3536 61.6241 89.4731C63.4502 89.6824 65.2763 89.7295 67.1045 89.7765C68.1927 89.8046 69.2816 89.8326 70.3717 89.8949C70.5445 89.9049 70.7216 89.9168 70.9017 89.9289C71.9804 90.0011 73.168 90.0806 74.1882 89.8246C74.2207 89.8165 74.2527 89.8071 74.2841 89.7965C74.2942 89.8002 74.3044 89.8037 74.3149 89.807C74.5956 89.8951 74.7728 89.6921 74.7995 89.4561C74.8107 89.4435 74.8217 89.4307 74.8324 89.4178C74.9923 89.3933 75.1494 89.3624 75.3029 89.3239C75.3428 89.3139 75.3819 89.3021 75.4201 89.2883L75.421 89.2887C75.6881 89.3725 75.8615 89.1928 75.9007 88.9719C76.1848 88.6675 76.2964 88.2307 76.0904 87.838C76.3276 87.8471 76.5755 87.6846 76.5525 87.3733C76.4488 86.0782 76.4808 84.7987 76.5131 83.5053L76.5187 83.279C76.5363 82.5475 76.4714 81.8136 76.4063 81.0785V81.0754C76.3466 80.3989 76.2867 79.7215 76.2907 79.0441C76.2907 78.2973 76.3921 77.6823 76.5863 76.9618C76.7586 76.3213 76.7236 75.6226 76.6905 74.9627L76.6876 74.9058C76.6237 73.812 76.5998 72.7432 76.6103 71.665C76.66 70.6336 76.6788 69.6051 76.691 68.575C76.7017 68.359 76.7165 68.1436 76.7383 67.9297C76.7532 67.7867 76.769 67.6455 76.7848 67.5052C76.8494 66.9297 76.9123 66.3704 76.8987 65.7771C76.8897 65.3622 76.8939 64.9461 76.9068 64.5295L76.9168 64.436V64.4351C76.9896 63.7567 77.0625 63.0776 77.1013 62.3944C77.1257 61.9427 77.1621 61.4858 77.1986 61.0267V61.025C77.2886 59.8955 77.3796 58.7526 77.2955 57.6411C77.2562 57.1501 77.2692 56.6629 77.2823 56.1719C77.2889 55.9249 77.2955 55.6769 77.2955 55.427C77.2955 54.7902 77.2309 54.1487 77.1665 53.5094L77.1598 53.4431C77.1566 53.1675 77.1537 52.8917 77.152 52.6155C77.152 51.0464 77.0301 49.4693 76.9093 47.9069L76.8902 47.6601C76.8432 47.0819 76.8098 46.4989 76.7763 45.9148C76.7496 45.4485 76.7228 44.9814 76.6891 44.5156C76.6807 44.2745 76.666 44.0339 76.6514 43.7936C76.6282 43.4141 76.6051 43.0354 76.6071 42.657C76.6789 42.5259 76.6819 42.3559 76.6222 42.2173L76.6243 42.1874C76.649 42.1654 76.6693 42.1406 76.6854 42.1137C76.8194 42.0027 76.8622 41.8098 76.8213 41.6404C76.8416 41.5668 76.8443 41.4844 76.8226 41.3957C76.7466 41.1145 76.5862 40.9828 76.316 40.9213C76.2874 40.9145 76.2582 40.9082 76.2286 40.9022C76.1393 40.7653 76.0014 40.692 75.8179 40.6488C75.3704 40.5434 74.7962 40.5346 74.3402 40.5434C73.5031 40.5554 72.6581 40.6455 71.8187 40.7349C71.4304 40.7763 71.0433 40.8176 70.6588 40.8509C68.0835 41.0705 65.5166 41.2287 62.9329 41.1936C62.2081 41.1836 61.4915 41.2446 60.7754 41.3055C60.2318 41.3518 59.6881 41.3981 59.1417 41.4132C58.0018 41.4484 56.8197 41.4571 55.6798 41.4132C55.4214 41.4044 55.1635 41.395 54.9061 41.3856C52.8583 41.3112 50.8365 41.2376 48.7813 41.4483C48.5487 41.4722 48.3195 41.5121 48.0907 41.552C47.8128 41.6004 47.5354 41.6487 47.253 41.668C46.9349 41.6956 46.6122 41.6967 46.2897 41.6978H46.2887C45.9952 41.6988 45.7018 41.6998 45.4123 41.7207C44.8466 41.7559 44.2893 41.7032 43.732 41.6504C43.1747 41.5977 42.6174 41.545 42.0517 41.5802C41.3174 41.6276 40.5832 41.7035 39.8489 41.7794H39.8479C39.3582 41.83 38.8684 41.8806 38.3787 41.9228C38.0774 41.9491 37.7738 41.9838 37.4691 42.0186C36.4505 42.135 35.4196 42.2528 34.4186 42.0634C32.7437 41.7558 31.0238 41.8361 29.318 41.9158C28.6848 41.9453 28.0536 41.9748 27.4273 41.9843C26.4884 41.9976 25.5736 41.9455 24.6465 41.8928C24.3483 41.8758 24.0479 41.8587 23.7459 41.8437C22.53 41.7822 21.2803 41.8964 20.0729 42.0107C18.7725 42.1337 17.3962 42.1249 16.0875 42.0634C14.6858 41.9931 13.3179 41.9052 11.9163 41.6944C10.6497 41.5098 9.33254 41.4835 8.05755 41.545C7.71083 41.5587 7.3664 41.6033 7.02187 41.6478C6.7037 41.689 6.38504 41.7302 6.06485 41.7471C6.04241 41.7471 5.98407 41.7506 5.90364 41.7554C5.56028 41.7759 4.81443 41.8204 4.73919 41.7207C4.46567 41.3507 3.95404 41.6146 3.94872 41.971C3.88224 42.0359 3.83459 42.1191 3.81942 42.2109C3.66656 42.2047 3.55075 42.1875 3.52342 42.1513C3.27053 41.8092 2.81407 42.0089 2.73892 42.3227C2.54724 42.4468 2.44029 42.7003 2.61998 42.942L2.63687 42.9157ZM25.3637 61.8562C24.8171 62.061 24.2781 62.28 23.7691 62.5406C22.834 63.0236 21.9264 63.5525 21.0197 64.0809L21.0187 64.0815L21.0155 64.0833C20.8021 64.2077 20.5884 64.3322 20.3748 64.4559C19.9 64.7316 19.4205 64.9957 18.9411 65.2596C18.3204 65.6014 17.6999 65.943 17.0902 66.3098C16.7694 66.5025 16.4342 66.655 16.0987 66.8076C15.8071 66.9403 15.5153 67.073 15.2326 67.2324C14.9059 67.4113 14.587 67.655 14.2732 67.8947C14.1248 68.0081 13.9773 68.1208 13.8309 68.2252C12.7541 68.9996 11.6327 69.6428 10.4877 70.2994L10.2593 70.4305C9.44928 70.8951 8.66166 71.4063 7.87479 71.9169C7.38238 72.2365 6.88919 72.5566 6.39208 72.8642C5.80102 73.2333 5.24374 73.6286 4.68645 74.0416C4.59765 74.108 4.49821 74.1907 4.39111 74.2808C4.37405 73.9 4.34757 73.5197 4.3211 73.1393C4.27469 72.4725 4.22827 71.8057 4.23259 71.1366C4.23259 70.2216 4.29281 69.3104 4.35294 68.4006C4.38287 67.9476 4.41279 67.4949 4.43524 67.0423C4.48965 65.876 4.56275 64.7098 4.63582 63.5442C4.73283 61.9965 4.82977 60.45 4.88276 58.9064C4.89731 58.455 4.92994 58.0004 4.96264 57.5449C5.02477 56.6794 5.08715 55.8104 5.0263 54.9526C4.9739 54.224 4.91075 53.4954 4.84746 52.7651C4.79857 52.201 4.74959 51.6359 4.70543 51.0692C4.6769 50.6917 4.67592 50.3163 4.67493 49.9419C4.67408 49.6187 4.67323 49.2963 4.65466 48.974C4.65774 48.9314 4.66066 48.8888 4.66339 48.8463C4.68705 48.4818 4.67358 48.1229 4.66014 47.7649C4.6496 47.4842 4.63909 47.204 4.64651 46.9221C4.67426 46.0383 4.68742 45.1545 4.66438 44.2707C4.6669 44.1374 4.67336 44.004 4.68214 43.8706C4.94105 43.858 5.20167 43.8617 5.46309 43.8654H5.46485C5.68976 43.8686 5.91549 43.8718 6.14099 43.8645C6.47302 43.8481 6.80176 43.8659 7.13132 43.8837C7.32939 43.8944 7.52884 43.9052 7.7284 43.9085C7.8865 43.9085 8.04062 43.9053 8.19268 43.9023C8.66591 43.8927 9.11928 43.8835 9.61133 43.97C11.9333 44.3654 14.2553 44.3214 16.5942 44.2423C17.7587 44.1984 18.9252 44.1743 20.0928 44.1502L20.0991 44.15C21.2662 44.1259 22.4343 44.1017 23.6025 44.0578C24.7021 44.0175 25.8728 44.1398 26.9777 44.2553L27.2755 44.2863C27.7742 44.3378 28.2714 44.3616 28.769 44.3854C29.4593 44.4184 30.1504 44.4514 30.8471 44.5586C32.0039 44.7344 33.1354 44.831 34.309 44.7607C35.432 44.6904 36.6057 44.6201 37.7287 44.6465C38.9446 44.6729 40.1943 44.6465 41.4101 44.5762C41.5304 44.5691 41.6499 44.5605 41.7691 44.5519C42.2358 44.5183 42.6973 44.4851 43.1749 44.5411C43.2838 44.5541 43.3919 44.5679 43.4997 44.5816C43.9017 44.6329 44.2988 44.6835 44.7116 44.6904C45.7402 44.6904 46.7752 44.6023 47.8096 44.4846C48.7931 44.4081 49.7792 44.2825 50.7626 44.1573C51.346 44.083 51.9286 44.0088 52.509 43.9451C54.2023 43.8076 55.896 43.7426 57.5933 43.6776L57.5948 43.6775L57.5966 43.6774L57.5991 43.6773C58.0231 43.661 58.4472 43.6447 58.8716 43.6273C61.5483 43.5131 64.2249 43.3637 66.9015 43.1353C67.2648 43.1044 67.628 43.0715 67.9914 43.0387L68.0815 43.0306C68.1892 43.0217 68.2969 43.0127 68.4046 43.0035C68.7602 42.9735 69.1164 42.9416 69.4729 42.9096C69.9603 42.8703 70.4484 42.8357 70.9376 42.8102C71.3196 42.7874 71.7001 42.7479 72.0801 42.7003C72.2088 42.6925 72.3374 42.6851 72.466 42.6785C72.984 42.6479 73.4969 42.5874 74.0082 42.5179C74.0089 42.5245 74.0098 42.5312 74.0108 42.5379C74.1305 43.2942 74.194 44.0641 74.2428 44.8361C74.2473 45.0879 74.2473 45.3391 74.2473 45.59C74.2473 46.0348 74.2473 46.4784 74.2726 46.9221C74.3114 47.554 74.3439 48.1846 74.3765 48.8154L74.3772 48.8283L74.3773 48.8299C74.4296 49.8432 74.4819 50.857 74.5597 51.8775C74.6316 52.7608 74.701 53.6317 74.7465 54.5046C74.7478 54.9577 74.7421 55.4094 74.7285 55.8576C74.6916 57.1235 74.6999 58.376 74.7082 59.6385V59.6409C74.7093 59.8232 74.7106 60.0064 74.7116 60.1891C74.722 61.1058 74.6464 62.0257 74.5708 62.9449V62.9461C74.5409 63.3101 74.5111 63.6745 74.4865 64.0381L74.4688 64.2053C74.3694 65.1412 74.27 66.0775 74.2557 67.0247C74.2463 67.517 74.2415 68.01 74.2366 68.5032V68.5046C74.235 68.6722 74.2333 68.8397 74.2315 69.0073L74.2303 69.0543C74.2175 69.5141 74.1937 69.9747 74.1699 70.4354C74.1328 71.1535 74.0957 71.8724 74.1001 72.588C74.0661 73.0384 74.027 73.4882 73.9865 73.9377C73.8979 73.7992 73.8104 73.6666 73.7241 73.5704C73.6463 73.4842 73.5665 73.4008 73.4853 73.3192C73.4047 73.1953 73.3241 73.0783 73.2425 72.9905C72.9844 72.7044 72.7002 72.4455 72.4147 72.1853C72.2707 72.0542 72.1258 71.9222 71.9844 71.7868C71.9651 71.7681 71.9461 71.7492 71.9273 71.7301C71.753 71.4864 71.5943 71.23 71.4355 70.9734C71.1815 70.563 70.9273 70.1522 70.6084 69.7923C70.5589 69.7357 70.508 69.6813 70.4559 69.6287C70.3603 69.497 70.2599 69.3693 70.1521 69.2476C69.9396 69.0099 69.7038 68.807 69.4676 68.6039L69.467 68.6033C69.3708 68.5206 69.2741 68.4374 69.1795 68.3523L69.1572 68.3161L69.1452 68.2964L69.1091 68.237C68.9774 68.0196 68.8449 67.8008 68.6326 67.6222L68.5981 67.5939C68.4887 67.4143 68.3691 67.2391 68.1932 67.095C67.5008 66.5239 66.6142 66.0407 65.7192 65.9177C65.0763 65.8313 64.5035 66.0498 63.9479 66.3248C63.5172 66.4427 63.1088 66.6555 62.7014 66.8678C62.4859 66.9801 62.2705 67.0924 62.0524 67.1902L61.7746 67.3139C60.8024 67.7465 59.828 68.18 58.9029 68.7015C58.215 69.0914 57.5085 69.4228 56.8002 69.7551C56.3435 69.9693 55.8861 70.1839 55.4325 70.4147C54.9306 70.6693 54.4346 70.9385 53.9383 71.2078C53.2664 71.5724 52.593 71.9376 51.9051 72.2669C51.7015 72.3262 51.4949 72.3717 51.2882 72.4173L51.2872 72.4175C51.0507 72.4697 50.8125 72.5224 50.5797 72.5951C50.3349 72.6742 50.09 72.762 49.8705 72.9026C49.8567 72.9117 49.8424 72.9221 49.8276 72.9336C49.7479 72.9535 49.6685 72.9747 49.5895 72.9978C49.3362 73.0769 49.0913 73.1648 48.8718 73.3054C48.8522 73.3182 48.8316 73.3338 48.8102 73.3514C48.7863 73.3652 48.7625 73.3796 48.7391 73.3946C48.7088 73.4145 48.6761 73.441 48.6417 73.471C48.285 73.2107 47.9286 72.9489 47.574 72.683C47.3561 72.5204 47.1543 72.3392 46.9519 72.1574C46.7385 71.9658 46.5245 71.7736 46.2905 71.6023C45.8092 71.2596 45.328 70.917 44.8298 70.5919C44.2105 70.1865 43.73 69.6582 43.2469 69.1269C42.9132 68.76 42.5782 68.3917 42.1953 68.0615C41.6632 67.6017 41.1967 67.0737 40.7302 66.5456C40.4121 66.1856 40.094 65.8255 39.7551 65.4871C38.877 64.6085 37.9566 63.7211 37.0194 62.9128C36.8059 62.7285 36.5878 62.5324 36.3648 62.3318C34.9294 61.0411 33.288 59.5651 31.3368 59.8465C30.2825 59.9947 29.3244 60.3618 28.3458 60.7368L28.3439 60.7376C28.1632 60.8068 27.9818 60.8763 27.7989 60.9447C27.482 61.0665 27.1586 61.1832 26.8337 61.3004L26.8319 61.301C26.3412 61.4781 25.8459 61.6568 25.3637 61.8562ZM72.9156 74.0126C72.9567 74.0739 72.9979 74.1328 73.0393 74.1864L73.0057 74.1388C72.977 74.098 72.9483 74.0575 72.9196 74.0172L72.9156 74.0126ZM64.664 67.6661C64.8541 67.5728 65.0459 67.5031 65.2382 67.4556C65.5801 67.5667 65.9122 67.7421 66.2259 67.9736C66.5422 68.2039 66.7068 68.4638 66.8902 68.7533C66.9516 68.8503 67.0151 68.9507 67.0872 69.0543C67.241 69.2695 67.4581 69.4362 67.6715 69.6001C67.7979 69.6971 67.923 69.7932 68.0329 69.8977C68.5006 70.3392 68.8334 70.8695 69.1664 71.4003C69.4166 71.7991 69.667 72.1981 69.9749 72.5599C70.1975 72.8198 70.4515 73.0469 70.7054 73.2741C70.8465 73.4002 70.9876 73.5264 71.1233 73.6582C71.4654 73.9793 71.7063 74.3281 71.9602 74.6959C72.0259 74.791 72.0924 74.8874 72.1618 74.9849C72.286 75.1589 72.4534 75.2344 72.6213 75.3101C72.7501 75.3683 72.8793 75.4266 72.9893 75.5296C73.1278 75.6571 73.2125 75.8091 73.2986 75.9634C73.349 76.0538 73.3998 76.145 73.4622 76.2325C73.5498 76.3558 73.6531 76.453 73.7644 76.5439C73.7456 76.8148 73.7289 77.0859 73.7153 77.3572C73.6646 78.3699 73.6414 79.3794 73.618 80.3895V80.3904C73.6025 81.0626 73.587 81.7353 73.5634 82.4092C73.5405 83.0788 73.4782 83.7485 73.4158 84.4181C73.3399 85.2333 73.264 86.0485 73.2594 86.8637C73.2594 86.9499 73.256 87.051 73.2524 87.1617C73.2456 87.3696 73.2376 87.6117 73.2484 87.8531C72.7511 87.8737 72.2537 87.8713 71.7564 87.8566C71.4179 87.8421 71.08 87.8256 70.7424 87.8092C69.8506 87.7657 68.9608 87.7223 68.0665 87.716C66.0588 87.7083 63.9806 87.694 61.9826 87.377C61.9206 87.0689 61.7564 86.8795 61.5229 86.6441C61.0585 86.1784 60.7376 85.66 60.3999 85.0977C60.1622 84.7034 59.8757 84.3548 59.5886 84.0055C59.4983 83.8957 59.408 83.7858 59.3191 83.6744C59.0632 83.3592 58.8428 83.0205 58.622 82.6811C58.4858 82.4718 58.3495 82.2622 58.2045 82.0577C57.5713 81.1703 56.7776 80.2566 55.967 79.5273C55.6123 79.2045 55.2613 78.8779 54.9102 78.5513C54.3251 78.0069 53.7399 77.4626 53.1383 76.9354C52.1752 76.0867 51.1643 75.3165 50.14 74.5634C50.1948 74.5249 50.249 74.4833 50.305 74.4403C50.3315 74.42 50.3583 74.3994 50.3858 74.3787C50.8266 74.0522 51.3203 73.9458 51.8377 73.8343C51.905 73.8198 51.9727 73.8052 52.0408 73.79C53.0644 73.5543 54.0463 73.0063 54.9699 72.4908L54.9876 72.4809C56.1191 71.8395 57.2759 71.2684 58.4749 70.7676C59.004 70.5449 59.5041 70.2598 60.0039 69.9749C60.549 69.6642 61.0936 69.3538 61.675 69.1246C62.3614 68.853 63.0288 68.5061 63.6925 68.1612L63.6943 68.1603L63.6971 68.1589L63.698 68.1584L63.6988 68.158L63.7011 68.1568L63.7019 68.1564C64.0227 67.9896 64.3432 67.8231 64.664 67.6661ZM25.726 63.1749C25.3484 63.3325 24.9783 63.5031 24.6239 63.6947C23.6444 64.2232 22.6774 64.7841 21.7122 65.344L21.7112 65.3446C21.5534 65.4361 21.3957 65.5276 21.238 65.6189C20.7803 65.8818 20.3194 66.1381 19.8587 66.3943L19.857 66.3953L19.856 66.3958C19.2554 66.7298 18.6552 67.0635 18.0632 67.4113C17.7054 67.6258 17.3345 67.7951 16.9631 67.9645C16.8174 68.031 16.6716 68.0976 16.5265 68.1669C16.2144 68.315 15.9307 68.5297 15.6477 68.7437C15.4944 68.8597 15.3412 68.9756 15.1839 69.0806C15.0538 69.1668 14.9243 69.2528 14.7953 69.3386C13.9112 69.9261 13.0462 70.501 12.1104 71.0224C11.1637 71.5488 10.2602 72.1332 9.35234 72.7204L9.35124 72.7211L9.34866 72.7227C9.1971 72.8208 9.04543 72.9189 8.8934 73.0168C8.61734 73.195 8.34128 73.3697 8.06605 73.5439L8.06527 73.5444C7.25484 74.0574 6.45141 74.566 5.67636 75.143C5.5518 75.2352 5.42815 75.3321 5.3041 75.4293C4.99541 75.6712 4.68411 75.9151 4.35048 76.0928C4.32679 76.3276 4.29843 76.562 4.27007 76.7964C4.19412 77.424 4.11809 78.0524 4.13127 78.6927C4.14078 79.1148 4.18954 79.5357 4.23827 79.9562C4.31936 80.6562 4.40035 81.3552 4.30014 82.0577C4.28648 82.1588 4.24796 82.2364 4.19443 82.2923C4.32529 82.2887 4.46096 82.2804 4.58007 82.2723C4.72258 82.2628 4.84136 82.2548 4.89954 82.2598C5.40979 82.315 5.90964 82.3323 6.41949 82.3499L6.42108 82.3499L6.42254 82.35L6.42388 82.35C6.56221 82.3548 6.70137 82.3596 6.84158 82.3652C7.51525 82.3937 8.19138 82.4732 8.86864 82.5528C9.44762 82.6208 10.0276 82.689 10.6075 82.7255C10.945 82.7481 11.2814 82.7673 11.6173 82.7864L11.6186 82.7865L11.6198 82.7865C12.5854 82.8415 13.5465 82.8962 14.5169 83.033C15.1 83.1134 15.6816 83.1969 16.2624 83.2802C17.0777 83.3972 17.8913 83.5139 18.7049 83.6216C21.1705 83.9467 23.6276 84.1664 26.1016 84.3597C26.6854 84.405 27.2693 84.4129 27.8531 84.4208C28.4005 84.4282 28.9485 84.4356 29.4959 84.4739C30.1699 84.523 30.8412 84.52 31.5128 84.5169H31.5148C32.0456 84.5145 32.5771 84.5121 33.1098 84.5354C35.4402 84.6321 37.72 84.8693 40.0251 85.1592C40.308 85.1944 40.593 85.2119 40.878 85.2295C41.1629 85.2471 41.4479 85.2646 41.7308 85.2998C42.0583 85.3377 42.3827 85.4122 42.7059 85.4864L42.7109 85.4875L42.7136 85.4881C42.9124 85.5338 43.1114 85.5795 43.3097 85.6161C44.0572 85.7564 44.8158 85.8267 45.5732 85.8969C45.9538 85.9322 46.3341 85.9674 46.7125 86.0115C49.2287 86.3102 51.7196 86.5211 54.2612 86.565C55.8227 86.5948 57.3687 86.6648 58.9071 86.8545C58.649 86.451 58.3868 86.0577 58.0695 85.6776C57.6389 85.1593 57.2674 84.6233 56.9043 84.061C56.6566 83.6802 56.3639 83.3464 56.0712 83.0125C55.9248 82.8456 55.7785 82.6786 55.6377 82.5058C54.9404 81.6502 54.115 80.9012 53.2971 80.1591C53.0654 79.9489 52.8339 79.7388 52.6064 79.5274C51.9681 78.9301 51.2923 78.3931 50.6158 77.8556C50.2274 77.5471 49.8388 77.2383 49.457 76.9179C48.8168 76.3741 48.1463 75.8987 47.4689 75.4184C47.2708 75.2779 47.072 75.1369 46.8732 74.9937C46.4476 74.6838 46.0416 74.3535 45.6355 74.0232C45.1555 73.6328 44.675 73.2419 44.1628 72.8851C43.9714 72.75 43.7726 72.6228 43.5734 72.4954C43.2542 72.2911 42.9341 72.0864 42.6429 71.8483C42.3531 71.6096 42.1194 71.3169 41.8863 71.025L41.8857 71.0242C41.7931 70.9082 41.7004 70.7921 41.6044 70.6798C41.2971 70.3144 40.9526 70.012 40.602 69.7042C40.4805 69.5976 40.3581 69.4902 40.2365 69.3794C39.9568 69.1255 39.7191 68.8411 39.4789 68.5538C39.3783 68.4335 39.2773 68.3126 39.1726 68.1933C37.5768 66.3921 35.736 64.8194 33.9038 63.2731C33.8409 63.2201 33.7775 63.1662 33.7135 63.1117C32.8218 62.3532 31.807 61.4901 30.5938 61.6213C29.729 61.713 28.9289 61.973 28.1349 62.2719L28.0436 62.3066L28.03 62.3116C27.8494 62.3804 27.669 62.4508 27.4882 62.5215L27.4871 62.5219C27.2798 62.6029 27.0714 62.6843 26.8618 62.7635C26.6346 62.8475 26.4048 62.9301 26.1739 63.0132C26.0249 63.0667 25.8755 63.1205 25.726 63.1749Z" fill="url(#paint6_linear_48_12473)"/>
</g>
<defs>
<linearGradient id="paint0_linear_48_12473" x1="51" y1="10" x2="51" y2="90" gradientUnits="userSpaceOnUse">
<stop stop-color="#DA48A2"/>
<stop offset="1" stop-color="#FB4B37"/>
</linearGradient>
<linearGradient id="paint1_linear_48_12473" x1="51" y1="10" x2="51" y2="90" gradientUnits="userSpaceOnUse">
<stop stop-color="#DA48A2"/>
<stop offset="1" stop-color="#FB4B37"/>
</linearGradient>
<linearGradient id="paint2_linear_48_12473" x1="51" y1="10" x2="51" y2="90" gradientUnits="userSpaceOnUse">
<stop stop-color="#DA48A2"/>
<stop offset="1" stop-color="#FB4B37"/>
</linearGradient>
<linearGradient id="paint3_linear_48_12473" x1="51" y1="10" x2="51" y2="90" gradientUnits="userSpaceOnUse">
<stop stop-color="#DA48A2"/>
<stop offset="1" stop-color="#FB4B37"/>
</linearGradient>
<linearGradient id="paint4_linear_48_12473" x1="51" y1="10" x2="51" y2="90" gradientUnits="userSpaceOnUse">
<stop stop-color="#DA48A2"/>
<stop offset="1" stop-color="#FB4B37"/>
</linearGradient>
<linearGradient id="paint5_linear_48_12473" x1="51" y1="10" x2="51" y2="90" gradientUnits="userSpaceOnUse">
<stop stop-color="#DA48A2"/>
<stop offset="1" stop-color="#FB4B37"/>
</linearGradient>
<linearGradient id="paint6_linear_48_12473" x1="51" y1="10" x2="51" y2="90" gradientUnits="userSpaceOnUse">
<stop stop-color="#DA48A2"/>
<stop offset="1" stop-color="#FB4B37"/>
</linearGradient>
<clipPath id="clip0_48_12473">
<rect width="100" height="100" fill="white" transform="translate(0.501953)"/>
</clipPath>
</defs>
</svg>
