<svg width="56" height="56" viewBox="0 0 56 56" fill="none" xmlns="http://www.w3.org/2000/svg">
<g clip-path="url(#clip0_49_12839)">
<path fill-rule="evenodd" clip-rule="evenodd" d="M25.4563 1.47329C23.7779 1.49433 22.0995 1.5095 20.4211 1.51906C17.5408 1.53334 14.6606 1.54048 11.7804 1.47622C11.4942 1.47053 11.2927 1.59065 11.1772 1.76613C11.1489 1.76692 11.1204 1.76786 11.0918 1.76896C10.8622 1.7761 10.6105 1.79038 10.3884 1.8475C10.3669 1.85237 10.3455 1.85827 10.3241 1.86507C10.2119 1.80476 10.0824 1.76694 9.95893 1.7761C9.76642 1.78324 9.56651 1.8475 9.42583 1.98316C9.29996 2.11168 9.18149 2.30446 9.2037 2.4901C9.21893 2.60461 9.2354 2.71791 9.26497 2.82603C9.16555 2.83744 9.06135 2.85617 8.95196 2.8828C8.72243 2.93992 8.46328 3.14699 8.42626 3.38261C8.30876 4.17037 8.74094 4.82357 9.25948 5.40693C8.35154 6.31589 7.50954 7.27715 6.70849 8.27352C6.15089 8.96516 5.6247 9.7075 5.09447 10.4556C3.87858 12.1709 2.64135 13.9164 0.955421 15.1494C0.912904 15.1804 0.87403 15.2147 0.83893 15.2514C0.437059 15.2278 0.0108576 15.5645 0.000279091 15.9776C-0.00900319 16.5281 0.214449 16.9916 0.491929 17.4385C0.474794 17.5675 0.493194 17.7083 0.558897 17.8536L0.555594 17.8554L0.569667 17.8767C0.721134 18.1954 0.924669 18.4839 1.14781 18.7596C1.23514 18.8939 1.32235 19.0284 1.40957 19.1628L1.41221 19.1669C1.90205 19.922 2.39201 20.6773 2.90273 21.4183C2.93493 21.4651 2.96825 21.5116 3.00252 21.5578C3.24253 21.9636 3.47377 22.3747 3.66804 22.8029C3.66514 22.9633 3.7167 23.1295 3.84306 23.2819L3.91179 23.3646C4.11407 23.7944 4.37038 24.1732 4.77911 24.3995C6.31993 26.2244 7.89502 28.0217 9.46998 29.8189L9.47051 29.8195C11.2289 31.8259 12.9874 33.8325 14.6976 35.8769C16.0743 37.5191 17.409 39.1933 18.7435 40.8674C20.2195 42.7189 21.6953 44.5701 23.2276 46.3777C23.4918 46.7466 23.7557 47.1163 24.0195 47.4865C24.9895 48.8503 26.0038 50.1855 27.0923 51.4707C27.1883 51.584 27.2836 51.6985 27.3784 51.8139C27.3606 51.9495 27.3901 52.0978 27.4847 52.2489L27.5258 52.3145C27.7246 52.6306 27.9045 52.9168 27.9808 53.2842C28.0812 53.7404 28.5344 53.8725 28.912 53.7579C28.851 53.8655 28.7911 53.9738 28.7323 54.0827C28.6011 54.1967 28.5087 54.3591 28.4917 54.5694H28.4991C28.4991 54.6208 28.4931 54.6721 28.4865 54.7286L28.4842 54.7479C28.4751 54.8558 28.4943 54.9538 28.5345 55.0402C28.5348 55.0546 28.5353 55.069 28.5361 55.0835C28.5583 55.4976 28.8619 55.7618 29.2839 55.7975C29.7403 55.841 30.0809 55.5661 30.2111 55.1963C30.231 55.2164 30.251 55.2365 30.2711 55.2566L30.2909 55.2763C30.8092 55.7904 31.7569 55.262 31.5422 54.5766C31.4839 54.3876 31.4102 54.2061 31.3245 54.0306C31.3859 53.9854 31.4456 53.9418 31.5053 53.8981C31.5664 53.8536 31.6274 53.809 31.6903 53.7626C31.9895 53.542 32.0528 53.2138 31.9727 52.9329C32.113 52.8218 32.2633 52.7282 32.414 52.6344C32.6692 52.4755 32.9252 52.3162 33.1341 52.0704C33.8654 51.2116 34.4652 50.1943 35.0457 49.2096L35.0466 49.2082L35.047 49.2075L35.0475 49.2066C35.1475 49.0371 35.2468 48.8685 35.3462 48.7019C35.4445 48.5959 35.5435 48.4905 35.6441 48.3862C35.7933 48.2309 35.8528 48.058 35.8481 47.8919L35.8547 47.8818C35.9055 47.8239 35.9562 47.7659 36.0069 47.7079C36.4066 47.2549 36.8057 46.7998 37.2004 46.3408C37.5923 45.9319 37.969 45.5093 38.317 45.0589C38.4238 44.921 38.5227 44.7835 38.6148 44.6449C39.4835 43.563 40.3053 42.448 41.0348 41.2766C41.0867 41.2095 41.1384 41.1423 41.1899 41.0748C44.5105 36.7163 47.0103 31.8434 49.4927 27.0044L49.4953 26.9994C49.8018 26.402 50.108 25.805 50.4155 25.2097C50.6078 24.8356 50.7973 24.4603 50.9868 24.0852L50.9875 24.0838C51.1679 23.7267 51.3482 23.3696 51.5309 23.0137L51.6046 22.8894C52.0074 22.2099 52.4102 21.5303 52.7922 20.84C52.9555 20.5466 53.1106 20.2466 53.2536 19.9411C53.6197 19.3632 54.0047 18.7964 54.39 18.2291C54.9057 17.4698 55.4221 16.7096 55.8946 15.9205C56.1498 15.4965 55.9054 15.0946 55.5478 14.9297C55.1782 14.1284 54.6626 13.4008 54.1472 12.6737C53.9253 12.3606 53.7035 12.0477 53.4934 11.7289C52.9888 10.6195 52.6115 9.46799 52.2591 8.30208C51.9037 7.13112 51.5039 5.98871 51.0967 4.83203C50.9229 4.33334 50.7321 3.82295 50.4229 3.41071C50.2928 3.02766 50.1156 2.66035 49.9305 2.29833C50.078 1.93613 49.8207 1.44848 49.4233 1.312C48.8278 1.10362 48.1459 1.14848 47.4899 1.19165C47.2244 1.20912 46.963 1.22632 46.7134 1.22632H42.9299C42.4635 1.22632 41.997 1.22557 41.5303 1.22481C39.5069 1.22155 37.4805 1.21828 35.459 1.2763C32.5882 1.35399 29.7174 1.41295 26.8467 1.45452C26.8303 1.42148 26.8134 1.38828 26.7961 1.35484C26.494 0.772177 25.6841 0.975168 25.4563 1.47329ZM52.6048 16.5246C52.3297 16.4973 52.0546 16.4653 51.7801 16.4333C51.2094 16.3669 50.6415 16.3008 50.0823 16.2775C48.7041 16.2156 47.3126 16.2363 45.9256 16.2569C45.2337 16.2672 44.5429 16.2775 43.8554 16.2775C42.634 16.2775 41.4117 16.2704 40.1892 16.2632C38.7353 16.2547 37.2805 16.2462 35.8268 16.2497C35.8508 16.3179 35.8647 16.3938 35.8661 16.4774L35.8662 16.4916V16.8844L35.8661 16.8997C35.8648 18.2226 35.8513 19.5449 35.7108 20.8614C35.5786 22.0786 35.3579 23.2902 35.1383 24.496L35.1369 24.5034C35.111 24.6461 35.085 24.7887 35.0592 24.9312C34.5631 27.6873 34.0078 30.4362 33.4154 33.1779C32.8305 35.8769 32.3196 38.5401 32.1345 41.2961C32.1242 41.4472 32.1145 41.5988 32.1047 41.7507C32.0512 42.58 31.997 43.4186 31.8585 44.2396C31.9926 45.1458 31.8506 46.1189 31.7191 47.0208C31.7043 47.1223 31.6896 47.2229 31.6755 47.3223C31.6125 47.7757 31.5403 48.2273 31.4681 48.679C31.3959 49.1306 31.3238 49.5821 31.2608 50.0355C31.2529 50.095 31.245 50.1547 31.2372 50.2144C31.2268 50.2936 31.2163 50.3736 31.2055 50.453C31.3648 50.2587 31.5267 50.0662 31.6909 49.8754C31.8141 49.6542 31.9401 49.434 32.0679 49.2144C32.4482 48.5616 32.8949 47.9541 33.3418 47.3462C33.765 46.7706 34.1884 46.1948 34.5557 45.5801C35.0435 44.7635 35.6011 43.988 36.1583 43.213C36.3708 42.9174 36.5833 42.622 36.7918 42.3243C37.128 41.8453 37.4592 41.3627 37.7905 40.88C38.2692 40.1826 38.7481 39.4849 39.2426 38.7971C39.6995 38.1578 40.161 37.5206 40.6226 36.8832C41.8364 35.2071 43.0514 33.5296 44.1886 31.807C46.6112 28.1421 48.6031 24.2405 50.5913 20.346C51.21 19.1342 51.8283 17.9232 52.4591 16.7202C52.5007 16.6413 52.55 16.5766 52.6048 16.5246ZM29.4825 43.5172C29.0549 41.8388 28.6024 40.1648 28.1362 38.4972C26.7675 33.6222 25.1575 28.8248 22.8409 24.2732C22.7208 23.9479 22.5979 23.6245 22.472 23.3033C22.2736 22.794 22.0362 22.2959 21.7986 21.7975C21.4332 21.031 21.0674 20.2639 20.8431 19.4548C20.7531 19.1294 20.6795 18.8023 20.6062 18.4766C20.4799 17.9153 20.3545 17.3581 20.1477 16.8204C20.6969 16.8093 21.247 16.7928 21.7983 16.7702C23.1106 16.7142 24.4219 16.6439 25.733 16.5735C28.1058 16.4462 30.4778 16.3189 32.8527 16.2775L32.9193 16.2763C33.0166 16.3763 33.1447 16.4511 33.2797 16.491C33.3098 16.6814 33.4156 16.8597 33.6124 16.9724C33.6216 17.0131 33.6333 17.0666 33.6376 17.0915C33.6598 17.3485 33.6524 17.7126 33.6302 18.0125C33.5709 18.7836 33.4229 19.5405 33.2674 20.2973C33.1069 21.0708 32.9122 21.8333 32.7175 22.5958C32.5618 23.2058 32.406 23.8158 32.2678 24.4314C32.0693 25.3211 31.9447 26.2333 31.8207 27.1408L31.8206 27.1417C31.7735 27.4866 31.7264 27.8307 31.6755 28.1728C31.446 29.722 31.172 31.2641 30.8981 32.8063C30.4219 35.49 30.1058 38.1989 29.7902 40.9033C29.7279 41.4367 29.6657 41.97 29.6023 42.5028C29.5629 42.8411 29.523 43.1793 29.4825 43.5172ZM17.3709 16.8343C15.2258 16.8154 13.0852 16.7348 10.9289 16.6416C9.15187 16.5631 7.37487 16.5345 5.59786 16.5345C5.14886 16.5345 4.69298 16.5617 4.23526 16.589C3.64898 16.624 3.05965 16.6591 2.47788 16.6375C2.94003 17.2073 3.36053 17.8079 3.78106 18.4086C4.20237 19.0104 4.6237 19.6123 5.08697 20.1831C5.45473 20.6377 5.82331 21.0915 6.19189 21.5453C6.929 22.4529 7.66611 23.3604 8.39665 24.2743C10.434 26.8244 12.3683 29.445 14.3023 32.0652C16.2129 34.6537 18.1232 37.2417 20.1323 39.761C21.5255 41.505 22.8216 43.2993 24.116 45.1006C25.1237 46.285 26.1468 47.4562 27.1719 48.6296L27.1733 48.6312L27.1742 48.6322L27.1755 48.6338L27.6328 49.1573C27.8449 49.4016 28.0507 49.6489 28.2525 49.8983C27.8904 48.4589 27.5135 47.0196 27.0923 45.5944C26.6413 44.0704 26.224 42.5388 25.8067 41.0071L25.8065 41.0064C25.5182 39.948 25.2297 38.8893 24.9302 37.8332C24.1972 35.2628 23.2865 32.7352 22.3314 30.2362C22.2114 29.9239 22.091 29.6117 21.9707 29.2996C21.1038 27.0509 20.2386 24.8064 19.5104 22.5179C19.2012 21.556 18.9012 20.5852 18.6467 19.6056C18.4177 19.1685 18.1962 18.7283 17.9872 18.2835C17.7408 18.1322 17.5658 17.8629 17.6223 17.5199C17.6246 17.5109 17.6269 17.4992 17.629 17.4858C17.55 17.3006 17.4736 17.1144 17.4002 16.9272C17.3878 16.8958 17.3781 16.8648 17.3709 16.8343ZM33.8005 17.0558C33.7694 17.0468 33.7425 17.0355 33.7195 17.0235C33.743 17.0327 33.7675 17.0411 33.7931 17.0486L33.8005 17.0558ZM25.5538 2.97135C21.6692 3.02604 17.776 3.01396 13.8978 2.94652C13.9357 3.33127 13.6964 3.73404 13.1798 3.71105C13.0388 3.70561 12.7691 4.01473 12.5962 4.21299C12.5419 4.27513 12.4972 4.32639 12.469 4.35365C12.3357 4.4786 12.2043 4.60534 12.0728 4.73208C11.9738 4.82755 11.8746 4.92327 11.7748 5.01798C12.0163 5.44791 12.2475 5.88268 12.4783 6.31689C12.6442 6.62887 12.8101 6.94079 12.9794 7.25019L13.1852 7.46076C13.9264 8.21881 14.667 8.97633 15.3418 9.79435C15.6305 10.1466 15.9103 10.5052 16.19 10.8638C16.7494 11.5809 17.3088 12.2981 17.9407 12.9645L17.995 13.0209C18.3675 13.4072 18.8515 13.9091 19.0115 14.4438C19.0376 14.4616 19.0627 14.481 19.0866 14.5016C19.1407 14.3166 19.2245 14.1439 19.3252 13.9713C19.5099 13.6653 19.6855 13.3565 19.8617 13.0466C19.961 12.8719 20.0605 12.6969 20.1619 12.5218C20.5033 11.9271 20.8852 11.3598 21.2674 10.7923C21.6147 10.2764 21.9622 9.7603 22.2795 9.22315C22.7702 8.38808 23.2318 7.53961 23.693 6.69168C24.2966 5.5821 24.8997 4.47344 25.567 3.39689C25.5928 3.35569 25.6189 3.31357 25.6453 3.27089L25.6465 3.26895C25.6128 3.17039 25.5818 3.07121 25.5538 2.97135ZM26.3953 4.90851C26.3759 4.94238 26.3565 4.97637 26.337 5.01053C26.1705 5.30319 25.9984 5.59407 25.8263 5.88495C25.6541 6.1759 25.4818 6.4671 25.3153 6.75984C25.0366 7.2449 24.775 7.73899 24.5135 8.23313C24.2052 8.81549 23.8969 9.39791 23.5605 9.96571C23.2403 10.5139 22.8851 11.0401 22.5298 11.5665C22.1539 12.1235 21.7778 12.6808 21.4429 13.2644C21.3531 13.4206 21.2542 13.5809 21.1539 13.7433C20.9563 14.0634 20.7535 14.3918 20.6062 14.7138C20.5128 14.9228 20.4975 15.1375 20.4833 15.3541C22.1785 15.2979 23.873 15.2126 25.5677 15.1273C27.8401 15.0128 30.1133 14.8984 32.3893 14.854C32.2442 14.4945 32.0792 14.1419 31.9107 13.7908C31.8118 13.6436 31.7091 13.4988 31.6014 13.3572C31.3799 13.0674 31.1559 12.7806 30.9324 12.4944C30.1921 11.5465 29.4561 10.604 28.8248 9.57301C28.242 8.6124 27.7501 7.61522 27.257 6.6155C27.0611 6.21836 26.8649 5.82047 26.6628 5.42465C26.5898 5.28117 26.5146 5.13715 26.4391 4.99238L26.3953 4.90851ZM34.3855 14.5668C34.4568 14.5074 34.527 14.4473 34.5962 14.388L34.6075 14.3782C34.9703 14.0712 35.3257 13.7856 35.7033 13.5C37.0509 12.4933 38.2652 11.3223 39.4203 10.1228L39.7399 9.79018C40.8474 8.63819 41.9522 7.48891 43.0261 6.31002C43.5814 5.69597 44.1293 5.08193 44.6476 4.43933C44.7735 4.28225 44.8975 4.12338 45.0215 3.96452C45.1456 3.80565 45.2696 3.64679 45.3954 3.48971C45.4769 3.38261 45.8249 3.01132 45.8249 3.01132L45.8101 3.0256C45.8286 2.88396 45.8809 2.76427 45.9555 2.66661L45.9148 2.66622C45.6672 2.66384 45.4199 2.66146 45.1733 2.66146H40.3828C37.199 2.66146 34.03 2.75428 30.8462 2.85424C29.9918 2.88023 29.1365 2.90272 28.2804 2.92182C28.4032 3.12349 28.5043 3.34114 28.601 3.54911C28.6264 3.60392 28.6516 3.65805 28.6768 3.71105C28.8313 4.03849 28.9853 4.36656 29.1393 4.69484L29.1396 4.69558L29.1399 4.69625C29.8857 6.28584 30.6337 7.88011 31.4681 9.43021C31.5847 9.64762 31.6978 9.86626 31.8083 10.0858C32.0276 10.0941 32.2473 10.1862 32.4085 10.3941C32.7654 10.8506 32.8715 11.3832 32.9806 11.9305L32.986 11.9578C33.1119 12.5932 33.3858 13.1573 33.7412 13.7071C33.9061 13.961 34.0955 14.2003 34.2835 14.4377C34.3176 14.4808 34.3517 14.5238 34.3855 14.5668ZM10.0182 6.69558C10.0464 6.66645 10.0748 6.63745 10.1032 6.60856C10.2756 6.95536 10.4302 7.30841 10.5809 7.6809C11.151 9.09463 11.8766 10.3156 12.9947 11.4009C13.2506 11.6494 13.5196 11.8832 13.7952 12.1093C14.0123 12.7455 14.5143 13.2516 15.0082 13.7496C15.098 13.8401 15.1876 13.9305 15.2751 14.0212C15.5734 14.3312 15.8829 14.6269 16.2069 14.9058C16.3126 15.0759 16.4168 15.2469 16.5197 15.4188C15.183 15.4134 13.8453 15.376 12.506 15.2922C10.5883 15.1708 8.6706 15.1208 6.74551 15.1065C6.54388 15.1065 6.34225 15.1054 6.14061 15.1042C5.46855 15.1004 4.79648 15.0966 4.12442 15.1351C3.99822 15.1424 3.87154 15.1509 3.7446 15.1594L3.74383 15.1594C3.52369 15.1742 3.30276 15.189 3.0821 15.1977C4.19512 14.1011 5.11351 12.838 6.03108 11.5761C6.35051 11.1367 6.66984 10.6976 6.99725 10.2656C7.93759 9.02323 8.92975 7.81656 10.0182 6.69558ZM36.57 14.6194L36.3117 14.8312C37.7226 14.8315 39.134 14.8359 40.5453 14.8404C41.9947 14.8449 43.4439 14.8495 44.892 14.8495C45.4665 14.8495 46.0434 14.8397 46.6209 14.8299C47.822 14.8095 49.0255 14.7891 50.2156 14.8566C50.7068 14.8824 51.2179 14.9498 51.7356 15.018C52.0003 15.0529 52.267 15.0881 52.5333 15.118C52.4807 15.0189 52.4313 14.9129 52.385 14.7995C52.1323 14.1828 52.0083 13.5299 51.884 12.8752C51.7679 12.264 51.6515 11.6513 51.4299 11.0653L51.417 11.0308L51.395 10.9726C51.232 10.634 51.0816 10.2827 50.9412 9.90859C50.8412 9.64352 50.7357 9.38128 50.6259 9.12113C50.592 9.04214 50.5582 8.96313 50.5245 8.88407C50.2303 8.20494 49.91 7.53827 49.5888 6.86954L49.5884 6.86878C49.4888 6.66145 49.3891 6.45392 49.2901 6.24576C49.2404 6.13965 49.1904 6.03521 49.141 5.93197C48.9315 5.49435 48.7324 5.07819 48.611 4.64703C47.9781 4.2477 47.4481 3.39122 47.3497 2.66291L47.2572 2.66512C47.3054 2.76293 47.3254 2.88307 47.3057 3.0256C47.2248 3.64405 46.8374 4.08858 46.4389 4.5458C46.3267 4.67452 46.2136 4.80424 46.1063 4.93913C45.5435 5.65313 44.9512 6.34572 44.3441 7.02402C42.9965 8.53056 41.5897 9.98713 40.1755 11.4366C39.0425 12.5923 37.8167 13.5973 36.57 14.6194ZM10.6758 3.32797C10.7973 3.45157 10.9087 3.59202 11.0142 3.74321C11.2009 3.56554 11.3863 3.38655 11.5696 3.2055C11.5238 3.20629 11.4781 3.20687 11.4324 3.20745C11.227 3.21008 11.0215 3.2127 10.8161 3.23384C10.8037 3.24232 10.7915 3.25096 10.7792 3.25959C10.7578 3.27466 10.7364 3.28979 10.7142 3.30407C10.7015 3.31222 10.6887 3.3202 10.6758 3.32797ZM10.4573 2.14695L10.4529 2.14387L10.448 2.14202C10.4492 2.14506 10.4537 2.14638 10.4573 2.14695ZM10.3005 2.08184L10.2917 2.07853L10.2893 2.07808C10.2937 2.07993 10.2973 2.0811 10.3005 2.08184ZM10.8835 3.22088C10.8641 3.22298 10.8447 3.22516 10.8254 3.22758L10.8273 3.2263C10.8392 3.22496 10.8512 3.22386 10.8634 3.22276L10.8835 3.22088ZM10.7364 3.24695C10.7413 3.24493 10.7462 3.2431 10.7512 3.24144L10.7364 3.24695Z" fill="url(#paint0_linear_49_12839)"/>
</g>
<defs>
<linearGradient id="paint0_linear_49_12839" x1="28" y1="1" x2="28" y2="55.8021" gradientUnits="userSpaceOnUse">
<stop stop-color="#DA48A2"/>
<stop offset="1" stop-color="#FB4B37"/>
</linearGradient>
<clipPath id="clip0_49_12839">
<rect width="56" height="56" fill="white"/>
</clipPath>
</defs>
</svg>
