<svg width="100" height="100" viewBox="0 0 100 100" fill="none" xmlns="http://www.w3.org/2000/svg">
<g clip-path="url(#clip0_48_12412)">
<path d="M44.41 0.903663C44.33 1.17827 44.3608 1.41873 44.4619 1.61416C44.5088 2.31047 44.552 3.00535 44.585 3.7002C44.5683 3.73926 44.5533 3.78039 44.5403 3.82365C44.3203 4.54365 44.3003 5.29365 44.3103 6.04365C44.3203 6.77365 44.3003 7.50366 44.2703 8.22366C44.2096 9.5757 44.1039 10.9277 43.9987 12.2733L43.9984 12.2762C43.9823 12.4822 43.9662 12.688 43.9503 12.8937C43.9284 13.1949 44.0835 13.4721 44.3136 13.6613C44.3067 14.0487 44.305 14.4362 44.31 14.8237C44.32 16.1437 46.39 16.1437 46.38 14.8237C46.3661 13.2071 46.4638 11.6002 46.5616 9.99288C46.6041 9.2937 46.6467 8.59386 46.68 7.89367C46.8 5.58367 46.66 3.30367 46.49 1.00367C46.41 -0.116331 44.8 -0.426335 44.46 0.733665C44.45 0.763665 44.4425 0.791165 44.435 0.818664C44.4275 0.846164 44.42 0.873663 44.41 0.903663Z" fill="url(#paint0_linear_48_12412)"/>
<path fill-rule="evenodd" clip-rule="evenodd" d="M32.047 76.2108C32.0485 76.2451 32.0496 76.2794 32.0501 76.3137C32.0501 76.5583 32.0325 76.805 32.0147 77.052C31.9948 77.33 31.9749 77.6082 31.9801 77.8837C31.9902 78.1558 32.0155 78.4253 32.0407 78.6936C32.0655 78.9578 32.0902 79.2207 32.1001 79.4837C32.1121 79.8546 32.0811 80.2184 32.05 80.5836C32.0291 80.8288 32.0082 81.0746 32.0001 81.3237C31.9801 81.8837 32.0501 82.4337 32.1601 82.9837C32.2063 83.2106 32.2377 83.4449 32.269 83.6792C32.3192 84.0541 32.3694 84.4291 32.4801 84.7737C32.7087 85.4881 33.4599 85.6211 33.9852 85.3687C34.0301 85.4099 34.0786 85.4483 34.1301 85.4836C34.6101 85.8036 35.2301 85.8036 35.7901 85.7636C36.5602 85.7136 37.3101 85.7136 38.0701 85.7536C39.6236 85.8212 41.1714 85.838 42.722 85.8549L42.7256 85.855C43.24 85.8606 43.7548 85.8662 44.2701 85.8737C46.2301 85.9037 48.1401 85.9337 50.0901 86.1837C51.2905 86.3323 52.4811 86.3633 53.6731 86.3943C54.5664 86.4175 55.4605 86.4408 56.3601 86.5136C56.6737 86.5396 56.9127 86.4455 57.0777 86.285C57.3004 86.225 57.5079 86.079 57.6601 85.8237C58.1455 85.0209 58.1691 83.7215 58.1864 82.7713L58.1864 82.7689L58.1865 82.7656L58.1883 82.6669L58.1901 82.5737C58.2201 81.0437 58.3202 79.5537 58.5002 78.0237C58.5551 77.5429 58.6231 77.0621 58.691 76.5813L58.6911 76.5803C58.8209 75.6615 58.9508 74.7424 58.9902 73.8237C58.9902 73.7501 58.985 73.6673 58.9797 73.5811C58.974 73.4884 58.968 73.3918 58.9679 73.2988C59.1613 73.2179 59.3356 73.0819 59.4616 72.8829C59.4742 72.8815 59.4868 72.88 59.4995 72.8783C59.4958 72.9603 59.5828 72.9112 59.6933 72.849L59.7055 72.8421C60.1597 72.7438 60.6679 72.5238 61.0864 72.3426C61.1755 72.304 61.2606 72.2672 61.3401 72.2337C61.9386 71.9789 62.5266 71.7006 63.1039 71.4011L63.2368 71.3475C63.8172 71.1134 64.3981 70.879 64.9601 70.6037C65.8201 70.1936 66.7201 69.7636 67.5201 69.2536C68.4301 68.6736 69.2101 68.0837 70.0201 67.3437C71.5801 65.9337 73.0302 63.9237 73.8701 62.0137L73.8742 62.0046C74.2632 61.1269 74.7004 60.1403 74.7701 59.1837C74.8436 58.236 74.9656 57.3045 75.0887 56.3655L75.089 56.3634C75.1239 56.0968 75.1589 55.8295 75.1929 55.5611C75.4094 54.6724 75.6111 53.778 75.7602 52.8837C76.2802 49.7637 76.0602 46.6337 75.6802 43.5137C75.6661 43.3987 75.6501 43.2851 75.6323 43.1727C75.5587 42.2056 75.3994 41.2457 75.0701 40.2937C74.9984 40.0877 74.9293 39.8769 74.8597 39.6644L74.8592 39.6626L74.8588 39.6615C74.6279 38.9567 74.3909 38.233 74.0302 37.6037C73.5201 36.6937 72.9001 35.8437 72.2502 35.0237C72.1897 34.9479 72.1301 34.8717 72.0711 34.795C71.5241 33.9443 70.9491 33.1067 70.3447 32.2892C69.7066 31.3325 69.045 30.3936 68.2202 29.5637C67.9987 29.3415 67.7745 29.1217 67.5475 28.9047C67.2573 28.5922 66.9615 28.285 66.6602 27.9837C64.7502 26.0737 62.7802 24.1537 60.2502 23.0837C59.4928 22.7626 58.7062 22.5809 57.9168 22.3987C57.4033 22.2801 56.8886 22.1613 56.3801 22.0037C54.8843 21.5368 53.4247 21.3695 51.8718 21.225C51.5411 21.1757 51.2077 21.1374 50.8701 21.1137C49.6767 21.0341 48.4536 21.0139 47.25 20.994L47.2301 20.9937C46.4816 20.981 45.7129 21.085 44.9496 21.1883C44.5099 21.2478 44.0714 21.3071 43.6401 21.3437C42.8762 21.409 42.1677 21.568 41.4506 21.7291C41.0695 21.8146 40.6858 21.9008 40.2901 21.9737L40.0946 22.0111C38.9699 22.2261 37.9269 22.4255 36.8302 22.8037C34.5602 23.5837 32.3102 24.8137 30.3201 26.1337C29.4301 26.7237 28.6801 27.4537 27.9601 28.2437C27.5766 28.6656 27.1792 29.0738 26.7823 29.4814L26.7816 29.4821C26.351 29.9243 25.9211 30.3659 25.5101 30.8237C23.9601 32.5637 22.4501 34.5037 21.2201 36.4837C19.8401 38.7137 19.0401 41.1536 18.6501 43.7236C18.4945 44.7431 18.5811 45.8353 18.6649 46.8917C18.6888 47.1928 18.7124 47.4909 18.7301 47.7836C18.7531 48.2233 18.7336 48.6556 18.7143 49.0862C18.683 49.782 18.6519 50.4733 18.8001 51.1837C18.8461 51.4027 18.8883 51.6224 18.9281 51.8425C19.1455 54.4662 19.8384 57.0184 20.7901 59.5337C21.6742 61.8697 22.9788 63.8767 24.6288 65.6193C25.388 66.5332 26.2273 67.3816 27.1202 68.1537C28.0763 68.9819 29.0042 69.8327 29.9122 70.7063C29.9901 70.8518 30.1033 70.9752 30.2503 71.0537C30.2711 71.072 30.3148 71.1124 30.3404 71.1737C30.4104 71.3537 30.4704 71.5436 30.5304 71.7337C30.6234 72.0189 30.7472 72.2965 30.8707 72.5736C30.9464 72.7432 31.022 72.9127 31.0904 73.0837C31.5024 74.1007 31.8146 75.1409 32.047 76.2108ZM24.9363 62.0522C25.115 62.4824 25.2946 62.9146 25.6301 63.1737L25.6401 63.1637C25.9556 63.407 26.0436 63.7072 25.9842 63.9864L26.0302 64.0437C26.2693 64.3409 26.5171 64.6289 26.7719 64.9099C27.3805 65.4768 28.0256 66.0058 28.6901 66.4937C28.9619 66.6937 29.0963 66.9588 29.1278 67.2294C29.3495 67.4323 29.5723 67.6343 29.7951 67.8364L29.7981 67.8391C30.3525 68.3419 30.9075 68.8453 31.4493 69.3645C31.6763 69.4945 31.8487 69.6778 31.9871 69.8904C32.0048 69.9081 32.0225 69.9259 32.0401 69.9436C32.5602 70.4737 33.0602 70.8937 33.6601 71.3137C34.0001 71.5437 34.2701 71.8237 34.4501 72.2037C34.6344 72.6005 34.6479 73.0174 34.6615 73.4367C34.6671 73.609 34.6727 73.7818 34.6901 73.9537C34.7194 74.2005 34.761 74.4404 34.8023 74.6791C34.8598 75.0109 34.9169 75.3405 34.9401 75.6837C35.0101 76.6507 34.9951 77.6138 34.9801 78.5779C34.9715 79.1291 34.9629 79.6807 34.9701 80.2337C34.9737 80.4583 34.987 80.678 35.0003 80.8962C35.0248 81.2998 35.0491 81.6983 35.0101 82.1137C34.9927 82.3007 34.9839 82.4765 34.9842 82.6461C35.0305 82.808 35.0954 82.9649 35.1903 83.1137C35.3156 83.3112 35.363 83.5057 35.3524 83.6859C35.3924 83.7177 35.4301 83.7524 35.4649 83.7897C35.6613 83.7923 35.9016 83.7548 36.114 83.7217C36.2657 83.6981 36.4031 83.6767 36.5001 83.6736C37.2142 83.6498 37.9472 83.6953 38.6691 83.7401L38.6703 83.7401C38.8578 83.7518 39.0446 83.7633 39.2301 83.7737C39.8356 83.8052 40.442 83.8248 41.0487 83.8368C40.5217 82.8481 40.6721 81.4435 40.8048 80.2039C40.8548 79.7367 40.9024 79.2929 40.9101 78.9037C40.9238 78.272 40.944 77.6396 40.9643 77.0068C41.0186 75.3157 41.0729 73.6219 41.0001 71.9337C40.8063 67.5148 40.6031 63.0866 40.336 58.6763C38.8947 58.1049 37.5438 57.3297 36.3701 56.3937C36.3049 56.3416 36.2387 56.2891 36.1717 56.236C35.4275 55.6455 34.5931 54.9835 34.0701 54.2037C33.5501 53.4237 33.3102 52.4637 33.1701 51.5537C32.8701 49.5237 34.0002 48.1136 35.7901 47.3236C37.4002 46.6236 39.3201 46.7136 40.4401 48.2037C41.0482 49.0082 41.2362 49.9877 41.4217 50.9539L41.4601 51.1537C41.4968 51.337 41.5341 51.5201 41.5714 51.7031C41.7474 52.5674 41.9229 53.4289 42.0301 54.3037C42.1487 55.2559 42.2419 56.2112 42.3174 57.1686C43.1226 57.4035 43.9464 57.5732 44.7701 57.6837C46.4887 57.9106 48.1351 57.5856 49.7623 57.1134C49.8042 55.9092 49.9176 54.7143 50.2202 53.5637C50.7702 51.4637 51.4202 49.5637 52.8801 47.9037C54.2002 46.4037 55.7901 45.6337 57.8202 45.8037C59.5502 45.9537 61.5001 46.9537 61.9602 48.7437C62.4002 50.4537 61.3902 52.7537 60.2701 54.0136C58.8502 55.6136 57.2602 56.8036 55.2301 57.5136C54.1132 57.9067 52.9722 58.3023 51.8209 58.6578C51.8189 58.9022 51.8178 59.1466 51.8167 59.3908C51.8136 60.0501 51.8106 60.7089 51.7902 61.3637C51.757 62.3736 51.7316 63.3836 51.7063 64.3933C51.6323 67.3423 51.5583 70.2886 51.2902 73.2236C51.2058 74.1891 51.139 75.1546 51.0723 76.1191C50.9967 77.2123 50.9211 78.3046 50.8202 79.3937C50.7302 80.3937 50.7301 81.3837 50.7301 82.3937C50.7284 82.5151 50.7249 82.6441 50.7212 82.7779C50.7085 83.2401 50.6942 83.7603 50.7472 84.2252C51.7705 84.3376 52.7863 84.353 53.8032 84.3684C54.539 84.3795 55.2753 84.3906 56.0154 84.4386C56.0995 84.082 56.1071 83.6241 56.1131 83.2663C56.1149 83.1576 56.1166 83.0582 56.1201 82.9736C56.1366 82.6496 56.126 82.3254 56.1155 82.0013C56.1004 81.5354 56.0853 81.0695 56.1502 80.6037C56.262 79.8104 56.3482 79.0143 56.4347 78.2169C56.5106 77.5165 56.5866 76.8151 56.6802 76.1137L56.7008 75.9622L56.7213 75.8127C56.8108 75.162 56.9042 74.4828 56.9302 73.8337C56.9349 73.6907 56.934 73.5483 56.9331 73.4066C56.9302 72.9536 56.9273 72.5078 57.1102 72.0737C57.481 71.1984 58.4405 70.9614 59.3439 70.7382L59.416 70.7204L59.4624 70.7008L59.4979 70.6857C59.5448 70.6656 59.5922 70.645 59.6401 70.6237C60.1401 70.3987 60.6501 70.1987 61.1601 69.9987L61.3426 69.9271C61.5404 69.8152 61.7402 69.7062 61.9501 69.6137C62.6902 69.2837 63.3502 68.9237 64.0502 68.5137C65.2902 67.7737 66.7001 66.8237 67.6802 65.7437C69.6702 63.5537 71.5602 60.9137 72.4202 58.0637C72.6872 57.1734 72.8896 56.2669 73.0916 55.3623C73.1215 55.2283 73.1515 55.0941 73.1816 54.9602C73.2642 54.3179 73.3383 53.6741 73.3902 53.0237C73.5801 50.7237 73.5802 48.4337 73.5802 46.1237C73.5802 45.7625 73.5937 45.4013 73.6073 45.0404V45.0382C73.6254 44.5579 73.6434 44.0781 73.6293 43.5996C73.4565 42.7184 73.2074 41.8597 72.8502 41.0437C72.7374 40.7832 72.6258 40.5209 72.5139 40.2578C72.0499 39.1672 71.5802 38.063 71.0002 37.0237C70.4595 36.0521 69.8083 35.148 69.1573 34.2441L69.1567 34.2431C68.9771 33.9939 68.7973 33.7443 68.6202 33.4937C67.769 32.2921 66.8226 31.1481 65.8086 30.0644C65.7366 30.0001 65.6638 29.9365 65.5901 29.8737C65.3751 29.6896 65.1585 29.5005 64.9396 29.3095C63.7436 28.2658 62.4817 27.1645 61.0701 26.5137C60.8004 26.3913 60.5323 26.269 60.2646 26.1469C59.5697 25.8298 58.8776 25.5141 58.1701 25.2037C57.5804 24.9373 56.9504 24.7273 56.321 24.5174C55.9579 24.3964 55.595 24.2754 55.2402 24.1437C53.9801 23.6791 52.6999 23.4203 51.3994 23.2751L51.1911 23.2594C51.0774 23.2509 50.9638 23.2423 50.8501 23.2337C49.3901 23.1237 47.9202 23.0437 46.4701 23.3337C45.483 23.5311 44.5376 23.8397 43.5898 24.1492C43.1455 24.2942 42.7 24.4397 42.2501 24.5737C41.4242 24.8166 40.5786 24.9743 39.7345 25.1317C39.5362 25.1687 39.338 25.2056 39.1401 25.2437L38.9336 25.2819C37.8661 25.4791 36.7564 25.6841 35.7701 26.1537C34.5201 26.7437 33.3301 27.6037 32.2601 28.4637C31.5291 29.0525 30.8394 29.6964 30.1505 30.3394C29.8218 30.6462 29.4928 30.9533 29.1601 31.2537C28.6385 31.7289 28.211 32.2948 27.784 32.86C27.4743 33.2699 27.1649 33.6795 26.8201 34.0537C25.3697 35.6346 24.4316 37.4924 23.4862 39.3648L23.4857 39.3657C23.3275 39.6789 23.1692 39.9925 23.0082 40.3053C22.1911 42.3225 21.5823 44.4398 21.2251 46.5753C21.2672 46.9771 21.3347 47.3793 21.4014 47.777C21.4476 48.0519 21.4934 48.3247 21.5302 48.5937C21.6472 49.4453 21.6543 50.2926 21.6615 51.1412C21.6653 51.598 21.6692 52.0552 21.6902 52.5137C21.724 53.1145 21.8581 53.6366 22.0016 54.1951C22.0277 54.2965 22.054 54.3991 22.0802 54.5037C22.1633 54.8502 22.2187 55.1989 22.274 55.5468C22.3384 55.9518 22.4026 56.3556 22.5102 56.7537C22.7907 57.8019 23.1199 58.8092 23.5213 59.7772C23.8338 60.2744 24.175 60.7576 24.5101 61.2137C24.687 61.4522 24.8114 61.7517 24.9363 62.0522ZM44.1674 83.8545C43.8314 83.855 43.4951 83.8555 43.1588 83.8552L43.1701 83.8337C43.4669 83.2645 43.1956 82.726 42.7697 82.459C42.7231 82.0419 42.7853 81.5421 42.8375 81.1236C42.8603 80.9401 42.8812 80.7721 42.8901 80.6336C42.9368 79.7603 42.9568 78.887 42.9768 78.0137C42.9868 77.577 42.9968 77.1403 43.0101 76.7037C43.0901 74.1536 43.0101 71.6537 42.8701 69.1137C42.7706 67.4211 42.7123 65.7227 42.6539 64.0237C42.6005 62.466 42.547 60.9077 42.4617 59.353C44.4835 59.8441 46.5929 59.932 48.5802 59.5136C48.9663 59.4326 49.3527 59.3427 49.739 59.2454L49.7391 59.3174C49.7401 60.0055 49.7411 60.6897 49.7202 61.3637C49.6718 62.81 49.6436 64.2563 49.6155 65.7011L49.6155 65.7023V65.7034C49.5913 66.9449 49.5671 68.1855 49.5302 69.4237C49.4638 71.7201 49.2463 74.051 49.0314 76.3535L49.0312 76.3556C48.987 76.8297 48.9428 77.3025 48.9002 77.7737L48.8932 77.8531C48.7756 79.1955 48.6603 80.5104 48.6701 81.8637C48.6701 82.0988 48.6645 82.3434 48.6587 82.593C48.6479 83.0561 48.6367 83.5361 48.6608 84.0041C47.4469 83.9028 46.2436 83.8536 45.0001 83.8536C44.726 83.8536 44.4517 83.854 44.1772 83.8545L44.1674 83.8545ZM41.3801 82.8037L41.401 82.7829L41.3901 82.8037H41.3801ZM39.5901 56.0637C39.7808 56.1662 39.9742 56.2638 40.17 56.3568C40.0493 54.9733 39.8788 53.6011 39.5901 52.2337C39.5516 52.049 39.5168 51.8477 39.4807 51.6384C39.2445 50.2722 38.9501 48.5688 37.1901 48.9937C36.3801 49.1837 35.5102 49.6036 35.2501 50.4436C35.0302 51.1236 35.3502 52.2937 35.7001 52.9037C36.0303 53.4834 36.6457 53.9789 37.2019 54.4266C37.3364 54.5349 37.4674 54.6404 37.5901 54.7437C38.2102 55.2537 38.8902 55.6837 39.5901 56.0637ZM52.031 56.4237L51.8866 56.4653C51.9053 56.1675 51.9293 55.8702 51.9602 55.5736C52.0532 54.7107 52.2966 53.9336 52.551 53.1214C52.5972 52.9737 52.644 52.8244 52.6901 52.6737C52.7298 52.5443 52.7676 52.4171 52.8048 52.2917C53.0206 51.5643 53.2181 50.899 53.6702 50.2337C54.6201 48.8336 55.7402 47.7637 57.5302 47.8437C58.2901 47.8737 59.0602 48.1237 59.6002 48.6837C60.2498 49.3709 59.9244 50.2709 59.6337 51.0749C59.6157 51.1248 59.5977 51.1745 59.5802 51.2236C59.0302 52.7536 57.4602 54.2037 56.0402 54.9837C54.9115 55.5986 53.6049 55.9728 52.3324 56.3372L52.031 56.4237Z" fill="url(#paint1_linear_48_12412)"/>
<path d="M34.4101 92.0737C36.1801 91.5137 37.9501 91.4137 39.7901 91.3137C40.1596 91.2927 40.529 91.2699 40.8985 91.2472C42.2894 91.1615 43.6817 91.0758 45.0802 91.0837C46.8102 91.0837 48.5201 91.2937 50.2301 91.5737C50.5935 91.632 50.9643 91.7017 51.3397 91.7737C51.0368 91.8685 50.7335 91.9616 50.4302 92.0537C49.7735 92.2503 49.1157 92.4448 48.4579 92.6392C47.1424 93.0281 45.8268 93.417 44.5201 93.8237C42.6301 94.4137 40.7301 94.9836 38.8201 95.5336L36.0001 96.3437C35.7503 96.4131 35.4858 96.501 35.2139 96.5913L35.1634 96.6081C34.3604 96.7053 33.5657 96.8552 32.7901 97.1137C31.7002 97.4737 31.8702 99.0937 33.0602 99.1237C33.8221 99.1391 34.5899 98.9057 35.3364 98.6788C35.4296 98.6505 35.5225 98.6222 35.6149 98.5946C36.363 98.5074 37.1196 98.4691 37.8749 98.4308L37.8799 98.4305L37.8815 98.4305L37.883 98.4304C38.1724 98.4157 38.4617 98.4011 38.7501 98.3837C40.6702 98.2636 42.6002 98.1637 44.5302 98.2236C46.4902 98.2836 48.3502 98.5437 50.2301 99.1137C50.41 99.168 50.5989 99.2289 50.7945 99.2919C52.1099 99.7158 53.7248 100.236 54.9002 99.5137C56.0302 98.8237 54.9902 97.0437 53.8602 97.7437C53.3937 98.0301 52.378 97.6736 51.7011 97.436C51.5509 97.3832 51.4173 97.3364 51.3102 97.3037C51.1836 97.2653 51.0573 97.2265 50.931 97.1877C50.1693 96.9538 49.4108 96.7209 48.6301 96.5837C47.0753 96.305 45.4881 96.188 43.9049 96.1671C44.4139 96.0105 44.9223 95.8526 45.4302 95.6936C46.5889 95.3333 47.7538 94.9913 48.9197 94.6491C49.8567 94.3741 50.7944 94.0988 51.7301 93.8137C52.2521 93.6517 52.7741 93.4789 53.2961 93.3061C53.6441 93.1909 53.9921 93.0757 54.3401 92.9637L54.451 92.9269C55.0816 92.7181 55.7646 92.4919 56.1802 91.9537C56.6702 91.3337 56.4402 90.1337 55.4501 90.2037C54.1878 90.2964 52.8542 90.033 51.5546 89.7764C51.0322 89.6732 50.5148 89.5711 50.0101 89.4937C48.2402 89.2237 46.4602 89.0437 44.6601 89.0537C43.3935 89.0603 42.1268 89.1381 40.8602 89.2159C40.2268 89.2548 39.5935 89.2937 38.9601 89.3237C37.2101 89.4037 35.5201 89.5837 33.8401 90.1137C32.5802 90.5137 33.1202 92.4937 34.3901 92.0937L34.4101 92.0737Z" fill="url(#paint2_linear_48_12412)"/>
<path d="M4.80449 19.2503C4.70258 19.2004 4.60245 19.1476 4.50609 19.0895C4.48363 19.0804 4.46191 19.072 4.4402 19.0637C4.4077 19.0512 4.3752 19.0387 4.3402 19.0237L4.12165 18.9413C3.29345 18.6294 2.46225 18.3165 1.6902 17.8937C0.890198 17.4537 -0.0698019 16.7337 0.000198115 15.7137H0.0101981C0.0739531 14.7857 1.13129 14.5101 1.71055 14.8974C1.85965 14.8669 2.01399 14.8745 2.1604 14.9336C3.2104 15.3636 4.0804 16.0136 4.9404 16.7336C5.22574 16.9708 5.51226 17.201 5.80119 17.426C8.40408 18.6275 10.959 20.0649 13.1902 21.8537C13.5441 22.1352 13.5616 22.6691 13.3675 23.0546L13.4804 23.1436C13.9204 23.4936 13.8404 24.2337 13.4804 24.5937C13.0604 25.0136 12.4604 24.9336 12.0204 24.5937C10.2004 23.1537 8.3404 21.7736 6.4504 20.4436L6.32485 20.3544C5.80994 19.9884 5.30187 19.6272 4.80449 19.2503Z" fill="url(#paint3_linear_48_12412)"/>
<path d="M88.6802 18.3436C88.1893 18.7771 87.695 19.2067 87.1977 19.6325C87.318 20.0635 87.1138 20.5759 86.7201 20.7937C85.7201 21.3337 84.7501 21.9037 83.8001 22.5237C83.6018 22.6545 83.4053 22.7853 83.2098 22.9176C81.4988 24.2754 79.7571 25.5955 77.9902 26.8836C77.5402 27.2136 76.8402 26.9536 76.5802 26.5136C76.2802 26.0036 76.5002 25.4436 76.9502 25.1136C77.8151 24.4833 78.674 23.8434 79.5262 23.1939C79.574 23.102 79.6383 23.0199 79.7201 22.9537C80.4261 22.395 81.1505 21.8619 81.8914 21.3529C83.7045 19.9111 85.4833 18.4247 87.2202 16.8936C88.2102 16.0236 89.6702 17.4636 88.6802 18.3436Z" fill="url(#paint4_linear_48_12412)"/>
</g>
<defs>
<linearGradient id="paint0_linear_48_12412" x1="44.5033" y1="0" x2="44.5033" y2="99.8733" gradientUnits="userSpaceOnUse">
<stop stop-color="#DA48A2"/>
<stop offset="1" stop-color="#FB4B37"/>
</linearGradient>
<linearGradient id="paint1_linear_48_12412" x1="44.5033" y1="0" x2="44.5033" y2="99.8733" gradientUnits="userSpaceOnUse">
<stop stop-color="#DA48A2"/>
<stop offset="1" stop-color="#FB4B37"/>
</linearGradient>
<linearGradient id="paint2_linear_48_12412" x1="44.5033" y1="0" x2="44.5033" y2="99.8733" gradientUnits="userSpaceOnUse">
<stop stop-color="#DA48A2"/>
<stop offset="1" stop-color="#FB4B37"/>
</linearGradient>
<linearGradient id="paint3_linear_48_12412" x1="44.5033" y1="0" x2="44.5033" y2="99.8733" gradientUnits="userSpaceOnUse">
<stop stop-color="#DA48A2"/>
<stop offset="1" stop-color="#FB4B37"/>
</linearGradient>
<linearGradient id="paint4_linear_48_12412" x1="44.5033" y1="0" x2="44.5033" y2="99.8733" gradientUnits="userSpaceOnUse">
<stop stop-color="#DA48A2"/>
<stop offset="1" stop-color="#FB4B37"/>
</linearGradient>
<clipPath id="clip0_48_12412">
<rect width="100" height="100" fill="white" transform="translate(-0.00341797)"/>
</clipPath>
</defs>
</svg>
