<svg width="100" height="100" viewBox="0 0 100 100" fill="none" xmlns="http://www.w3.org/2000/svg">
<path d="M51.1192 55.2559C51.1305 55.2555 51.1116 55.2558 51.0263 55.2584C51.0626 55.2577 51.1074 55.2564 51.1192 55.2559Z" fill="url(#paint0_linear_48_12592)"/>
<path d="M37.8396 40.6377C37.8543 40.6183 37.8707 40.5963 37.8826 40.5737L37.8837 40.5723C37.8482 40.6515 37.8341 40.6565 37.8396 40.6377Z" fill="url(#paint1_linear_48_12592)"/>
<path d="M40.1789 38.085L40.1839 38.0816C40.1704 38.0917 40.1586 38.1019 40.1468 38.112C40.135 38.1221 40.1232 38.1322 40.1097 38.1423C40.1232 38.1288 40.1383 38.117 40.1535 38.1052C40.1621 38.0986 40.1706 38.0919 40.1789 38.085Z" fill="url(#paint2_linear_48_12592)"/>
<path d="M61.1677 42.4848C61.1774 42.5057 61.1877 42.5262 61.1989 42.5453L61.201 42.551C61.1428 42.4701 61.1496 42.4616 61.1677 42.4848Z" fill="url(#paint3_linear_48_12592)"/>
<path d="M62.7309 49.9581L62.7322 49.9646C62.7312 49.9863 62.7334 50.0106 62.7369 50.0355C62.7311 50.0395 62.7206 50.0101 62.7309 49.9581Z" fill="url(#paint4_linear_48_12592)"/>
<path fill-rule="evenodd" clip-rule="evenodd" d="M57.7921 21.5585C58.0193 21.8681 58.2465 22.1896 58.4524 22.5169C58.4891 22.5608 58.5253 22.6054 58.561 22.6506C58.8695 23.0268 59.0877 23.4652 59.3033 23.8985L59.3635 24.0191C59.4249 24.1456 59.4961 24.2644 59.5676 24.3837C59.6295 24.4869 59.6916 24.5905 59.7479 24.7C59.8913 24.968 59.9943 25.2475 60.0996 25.5332L60.1255 25.6033C60.1825 25.7657 60.2428 25.9255 60.3028 26.0846C60.4346 26.434 60.5657 26.7814 60.6583 27.1471C60.7999 27.7269 60.9011 28.3269 60.955 28.9268C61.0022 29.4999 60.955 30.0864 60.7527 30.6324C60.6606 30.8819 60.579 31.134 60.4974 31.3858C60.3939 31.7055 60.2904 32.0251 60.166 32.338C60.1525 32.3717 60.139 32.4038 60.1255 32.4358C60.112 32.4678 60.0985 32.4998 60.0851 32.5335C60.0783 32.5469 60.0733 32.5604 60.0682 32.5739C60.0631 32.5874 60.0581 32.6009 60.0513 32.6144L60.0477 32.622C60.0332 32.6625 60.0187 32.7025 60.0041 32.7425C59.9839 32.7981 59.9637 32.8537 59.9434 32.911L59.9081 33.0031L59.888 33.0558C59.7927 33.3055 59.6968 33.557 59.5725 33.7941C59.2808 34.3463 58.9442 34.8917 58.5717 35.4084C58.8703 35.6034 59.1593 35.8179 59.4172 36.0592C59.7341 36.3558 60.0106 36.6997 60.2804 37.0367C60.5231 37.3401 60.7524 37.6502 60.9615 37.9805C61.1902 38.3346 61.3887 38.7027 61.5734 39.0783C61.7562 39.336 61.9317 39.5987 62.1012 39.8614C62.5058 40.4816 62.8363 41.1422 63.1128 41.8299C63.3693 42.4676 63.5616 43.1374 63.7524 43.8018L63.7669 43.8523C63.8858 44.2701 63.9785 44.6922 64.0711 45.1138C64.1413 45.4337 64.2115 45.7532 64.293 46.0702L64.3086 46.1295C64.3977 46.4662 64.4855 46.7983 64.5492 47.1421C64.5964 47.3848 64.6369 47.6342 64.6706 47.8769L64.6792 47.932L64.7009 48.0679L64.7111 48.1331L64.7147 48.1556C64.7138 48.1397 64.7269 48.2009 64.7313 48.2274C64.8931 49.0027 65.0213 49.7982 65.0887 50.5869C65.136 51.1591 65.1546 51.7353 65.1733 52.3124C65.1786 52.4765 65.1839 52.6407 65.1899 52.8049L65.2179 53.5975C65.27 53.7011 65.301 53.8147 65.3046 53.9306C65.3113 54.0655 65.3164 54.1986 65.3214 54.3318C65.3265 54.4649 65.3315 54.598 65.3383 54.7329C65.3396 54.7801 65.3407 54.8273 65.3418 54.8745C65.3461 55.0633 65.3504 55.252 65.372 55.4407C65.4124 55.7508 65.4327 56.0811 65.2708 56.3643C65.219 56.4569 65.1529 56.5453 65.0759 56.622C65.0187 56.7817 64.9206 56.928 64.7719 57.0519C64.5224 57.2609 64.2392 57.3283 63.9222 57.3688C63.9141 57.3694 63.9059 57.3701 63.8977 57.3708C63.8776 57.3726 63.8572 57.3746 63.8367 57.3766L63.8359 57.3767C63.7744 57.3828 63.7119 57.389 63.6524 57.389C63.6425 57.3915 63.6299 57.394 63.6168 57.3958C63.5978 57.4031 63.577 57.4081 63.5581 57.4127L63.5445 57.416C63.2343 57.5036 62.9309 57.5238 62.6071 57.5373C62.5734 57.5407 62.5381 57.5441 62.5027 57.5474L62.4551 57.552L62.3981 57.5575C62.3743 57.5635 62.3452 57.5695 62.3202 57.5708L62.3173 57.5713C62.1614 57.6003 62.0091 57.6286 61.8518 57.6519C61.7352 57.6673 61.6172 57.6756 61.499 57.684C61.3576 57.694 61.2159 57.704 61.0763 57.7261C60.1484 57.8675 59.2112 57.8855 58.2723 57.9036L58.2714 57.9036C58.0915 57.9071 57.9114 57.9105 57.7314 57.9149C56.974 57.9328 56.2197 57.9626 55.4643 57.9925L55.462 57.9925C55.0814 58.0076 54.7005 58.0226 54.3189 58.0362C53.9209 58.0504 53.5221 58.0696 53.123 58.0888L53.1216 58.0889L53.1203 58.089C52.3843 58.1244 51.6473 58.1599 50.9133 58.1643C50.6505 58.1674 50.3877 58.1587 50.1242 58.15C49.8266 58.1401 49.5277 58.1302 49.2273 58.1373C48.9889 58.1429 48.7492 58.1544 48.5094 58.1658C48.1727 58.1819 47.8357 58.198 47.5009 58.198C46.9118 58.198 46.3245 58.1418 45.7361 58.0856C45.2268 58.0368 44.7163 57.988 44.2032 57.9755C44.0416 57.9717 43.8823 57.9766 43.7226 57.9816L43.7216 57.9816C43.6016 57.9853 43.4815 57.989 43.3602 57.989C43.0298 57.989 42.6994 57.9486 42.369 57.9081C42.3319 57.9047 42.2947 57.8997 42.2576 57.8946C42.2205 57.8896 42.1834 57.8845 42.1463 57.8811C42.062 57.8744 42.0957 57.8778 42.1295 57.8811C42.1632 57.8845 42.1969 57.8879 42.1126 57.8811C42.0317 57.8731 41.9484 57.8722 41.8656 57.8714C41.8103 57.8709 41.7552 57.8704 41.7012 57.8677C41.565 57.8576 41.4287 57.8437 41.2925 57.8261C41.1756 57.823 41.0607 57.8244 40.9451 57.8257C40.8807 57.8265 40.8158 57.8272 40.7503 57.8272C40.5795 57.8332 40.4087 57.8445 40.2379 57.8558C40.0243 57.87 39.8107 57.8841 39.5972 57.8879C39.4111 57.8939 39.225 57.8678 39.0437 57.8288C38.8308 57.826 38.6178 57.826 38.4049 57.8279L38.3896 57.8289C38.1774 57.8423 37.9641 57.8557 37.7559 57.8389L37.6819 57.8407C37.2648 57.8505 36.8405 57.846 36.4221 57.7987L36.2468 57.8037C36.0671 57.8087 35.8873 57.8137 35.7059 57.8205C35.5888 57.8253 35.4708 57.8338 35.3525 57.8422C35.1439 57.857 34.9346 57.872 34.7281 57.8677C34.1076 57.8542 33.6895 57.3621 33.676 56.7688C33.676 56.7081 33.6811 56.6458 33.6862 56.5834C33.6912 56.5211 33.6963 56.4587 33.6963 56.398V56.3371C33.686 56.2995 33.6796 56.2586 33.6735 56.2199C33.67 56.1973 33.6666 56.1754 33.6626 56.1553C33.5749 55.7576 33.5614 55.3733 33.5479 54.9688L33.5682 54.9681C33.5797 54.7687 33.6382 54.5898 33.7391 54.4466C33.5972 53.627 33.5368 52.7922 33.5142 51.9622C33.5094 51.6525 33.471 51.3495 33.4321 51.0437C33.416 50.9169 33.3999 50.7896 33.386 50.6611C33.3494 50.342 33.3412 50.0188 33.3331 49.6978L33.333 49.6965C33.3307 49.6045 33.3284 49.5121 33.3254 49.4207L33.3252 49.4157C33.2983 48.5006 33.2718 47.5989 33.4737 46.6971C33.6252 46.0374 33.8201 45.3907 34.0165 44.7431C34.0795 44.3793 34.1584 44.0184 34.2493 43.6635C34.3464 43.3024 34.4865 42.9455 34.625 42.593C34.6597 42.5046 34.6943 42.4165 34.7281 42.3287C34.8832 41.931 35.045 41.54 35.2271 41.149C35.598 40.3467 36.0296 39.531 36.5759 38.8299C36.7009 38.6718 36.8381 38.5257 36.9752 38.3797C37.0894 38.2579 37.2037 38.1362 37.311 38.0075C37.3245 37.9839 37.338 37.962 37.3514 37.9401C37.3649 37.9182 37.3784 37.8962 37.3919 37.8727L37.4098 37.8424L37.4247 37.817C37.4547 37.7658 37.4855 37.7129 37.52 37.6637C37.6347 37.4884 37.7561 37.3131 37.9044 37.1581C38.1311 36.9212 38.4011 36.7629 38.6753 36.6022C38.76 36.5526 38.8452 36.5027 38.9295 36.4502C39.2802 36.2277 39.6174 35.9985 39.9613 35.7626C40.1897 35.6104 40.4444 35.4801 40.7113 35.3929C40.584 35.2477 40.4585 35.1012 40.3458 34.9469C40.082 34.5777 39.9405 34.1371 39.8017 33.705C39.7808 33.64 39.76 33.5753 39.7389 33.511C39.6984 33.3896 39.6579 33.275 39.6107 33.1604L39.6061 33.1514L39.6031 33.1457C39.5882 33.1242 39.5714 33.0848 39.5566 33.0501C39.5462 33.0256 39.5368 33.0035 39.5298 32.9919C39.4462 32.8395 39.359 32.6906 39.2708 32.5402L39.2703 32.5393C39.2378 32.4838 39.2051 32.4279 39.1724 32.3717C38.9027 31.9065 38.6262 31.4279 38.4508 30.9155C38.2954 30.4551 38.2496 29.9672 38.2045 29.4857C38.1948 29.3822 38.1851 29.2789 38.1743 29.1763C38.1136 28.5898 38.0866 28.0167 38.2013 27.4302C38.3092 26.8842 38.525 26.3449 38.7948 25.8595C39.0075 25.4732 39.2622 25.1149 39.5162 24.7574C39.5681 24.6844 39.62 24.6114 39.6714 24.5382C39.7089 24.4849 39.7462 24.4313 39.7836 24.3775C40.063 23.9763 40.3464 23.5692 40.7033 23.2304C40.7514 23.1857 40.7994 23.1415 40.8474 23.0974C40.9878 22.9684 41.1273 22.8402 41.263 22.7045C41.4923 22.4753 41.7148 22.2596 41.9644 22.0574C41.9913 22.0371 42.0183 22.0152 42.0453 21.9933L42.0787 21.9663C42.0946 21.9536 42.1104 21.9411 42.1262 21.9293C42.1301 21.9254 42.1355 21.9206 42.1416 21.9153C42.1015 21.9437 42.1137 21.9339 42.1315 21.9194L42.1476 21.9063C42.1529 21.9019 42.1575 21.898 42.1599 21.8955C42.2004 21.8551 42.2425 21.8147 42.2847 21.7742C42.3268 21.7338 42.369 21.6933 42.4094 21.6529C42.4593 21.6031 42.5091 21.5522 42.5592 21.501C42.6854 21.3721 42.8139 21.2409 42.9489 21.1203C43.3483 20.7634 43.7911 20.4934 44.2433 20.2176L44.2441 20.2171C44.2956 20.1857 44.3472 20.1542 44.3989 20.1226C44.8777 19.8327 45.3632 19.5428 45.8555 19.2866C46.3883 19.0035 46.9413 18.7406 47.5145 18.5518C48.081 18.3631 48.661 18.2485 49.2477 18.1541C50.3335 17.9788 51.453 17.8777 52.5455 18.0395C53.0985 18.1204 53.6245 18.2822 54.1437 18.4912C54.6563 18.7001 55.1148 18.99 55.5599 19.3136C56.4164 19.9338 57.1582 20.7091 57.7921 21.5585ZM45.4037 36.612H45.3978C45.3759 36.606 45.3521 36.6038 45.3287 36.6018C45.3054 36.5997 45.2825 36.5976 45.2621 36.5918C45.2532 36.5896 45.2446 36.5876 45.2361 36.5856L45.2143 36.5808C45.1787 36.573 45.1445 36.5654 45.107 36.5514C45.0925 36.5485 45.0492 36.5343 45.0143 36.5229L44.9929 36.5159C44.9684 36.5057 44.9429 36.4952 44.9316 36.4907C44.908 36.4806 44.8827 36.4688 44.8575 36.457C44.8322 36.4452 44.8069 36.4334 44.7833 36.4233C44.6754 36.3693 44.5742 36.3154 44.4731 36.2547C44.2709 36.1335 44.0754 35.9987 43.88 35.864L43.6166 35.6817C43.5496 35.637 43.5936 35.6684 43.6248 35.6907C43.6502 35.7088 43.6673 35.721 43.6099 35.6817L43.6092 35.6812C43.5555 35.6409 43.5017 35.6006 43.448 35.5536C43.3538 35.4796 43.2663 35.3989 43.1788 35.3181L43.1608 35.3006L43.137 35.2779C43.1078 35.2502 43.0773 35.2213 43.0501 35.1896C43.0351 35.1746 43.0192 35.1541 43.0027 35.1328C42.9786 35.1017 42.9532 35.0689 42.9277 35.0496L42.9152 35.0345C42.8984 35.0143 42.8799 34.9925 42.8614 34.9706L42.8303 34.9338L42.8073 34.9065C42.7669 34.8593 42.7264 34.8121 42.6859 34.7716C42.6599 34.7436 42.634 34.7151 42.608 34.6863L42.5545 34.6267C42.5107 34.5779 42.4668 34.5289 42.4229 34.4817C42.3825 34.4379 42.342 34.3924 42.3016 34.3469C42.2745 34.3165 42.2474 34.2861 42.2203 34.2561C42.2173 34.2394 42.1918 34.2155 42.1756 34.2004L42.1667 34.1919L42.0453 34.0301C41.8969 33.8278 41.7688 33.6121 41.6541 33.3896L41.6137 33.3087L41.6075 33.2982C41.5944 33.2703 41.5804 33.2423 41.5665 33.2144L41.5656 33.2123C41.5187 33.0984 41.4717 32.9844 41.4248 32.8638C41.3372 32.6346 41.2563 32.3986 41.2091 32.156C41.2091 32.1467 41.2075 32.1366 41.2051 32.1263C41.2075 32.0968 41.1979 32.0589 41.1888 32.023C41.1831 32.0006 41.1776 31.9789 41.1753 31.9605C41.1618 31.8324 41.1483 31.6975 41.1416 31.5695C41.1281 31.3065 41.1146 31.0369 41.1079 30.774C41.1034 30.6127 41.1049 30.4515 41.1064 30.2883C41.1071 30.2059 41.1079 30.1228 41.1079 30.0392C41.1079 29.9593 41.1137 29.8823 41.1196 29.8044C41.1227 29.7641 41.1258 29.7233 41.1281 29.6819C41.1281 29.6507 41.1317 29.6194 41.1351 29.5891C41.1384 29.5606 41.1416 29.5327 41.1416 29.5066L41.1355 29.5586C41.1373 29.5257 41.1428 29.4927 41.1483 29.4598C41.209 28.9609 41.2967 28.4684 41.4181 27.9898C41.4788 27.7403 41.553 27.4909 41.6339 27.2415C41.6605 27.1509 41.6914 27.0646 41.7231 26.9758L41.7486 26.9044C41.7519 26.8909 41.7587 26.8774 41.7654 26.864L41.7702 26.8542L41.7607 26.8785L41.7553 26.8909C41.7457 26.916 41.7437 26.9212 41.7459 26.9159L41.7607 26.8785L41.7635 26.8719C41.7665 26.8645 41.7695 26.857 41.7725 26.8495C41.7764 26.8412 41.7798 26.833 41.782 26.8247L41.7924 26.7965C41.8042 26.7646 41.816 26.7324 41.8295 26.7022C42.0385 26.1966 42.2274 25.691 42.4027 25.1719C42.4229 25.1146 42.4415 25.059 42.46 25.0033C42.4785 24.9479 42.4972 24.8919 42.5173 24.8348C42.5221 24.8252 42.5261 24.8155 42.5298 24.8059L42.5332 24.7987C42.5498 24.7677 42.5632 24.7304 42.5763 24.6937C42.5856 24.6677 42.5948 24.6419 42.605 24.6191C42.7062 24.3764 42.8276 24.1472 42.9557 23.918C43.0161 23.8106 43.0765 23.71 43.1369 23.6093L43.1378 23.6079C43.1472 23.5928 43.1561 23.5782 43.1648 23.5641C43.1871 23.5276 43.2079 23.4936 43.2322 23.4596C43.2407 23.4469 43.2544 23.4303 43.2696 23.4118C43.2972 23.3784 43.33 23.3387 43.3459 23.3051L43.3531 23.2941C43.3595 23.2844 43.3662 23.2742 43.3738 23.264C43.4075 23.2169 43.448 23.1697 43.4884 23.1225C43.5694 23.0281 43.6503 22.9405 43.738 22.8528C43.7582 22.8326 43.7785 22.8141 43.7987 22.7955C43.8189 22.777 43.8392 22.7584 43.8594 22.7382C43.8684 22.7292 43.9019 22.7012 43.9275 22.6797L43.9498 22.6609C43.9694 22.6452 43.988 22.6299 43.9942 22.6236L44.0153 22.6076L44.0255 22.5997L44.042 22.5869C44.0776 22.5592 44.1119 22.5325 44.1494 22.509C44.3517 22.3674 44.5607 22.2394 44.7765 22.1113C44.8239 22.0848 44.871 22.0584 44.9179 22.032L44.9196 22.031C45.0994 21.93 45.2778 21.8297 45.4644 21.7338C45.4914 21.7203 45.5201 21.7068 45.5487 21.6933C45.5774 21.6798 45.6061 21.6663 45.633 21.6529C45.66 21.6394 45.8353 21.5517 45.7342 21.6057C45.6919 21.6254 45.6979 21.6227 45.7212 21.6125C45.7537 21.5982 45.8196 21.5691 45.8353 21.5652L46.0376 21.4843C46.2511 21.4025 46.467 21.3295 46.6828 21.2567C46.9645 21.1615 47.2464 21.0662 47.5213 20.9518C47.5791 20.9281 47.6366 20.9044 47.694 20.8808C48.1117 20.7087 48.5206 20.5402 48.9712 20.4394C49.0003 20.4321 49.0314 20.4268 49.0633 20.4214L49.0788 20.4187C49.103 20.4171 49.1306 20.4114 49.1533 20.4057C49.2687 20.3875 49.3842 20.3747 49.4947 20.3625L49.5309 20.3585C49.7803 20.3316 50.0297 20.3181 50.2791 20.3046C50.5421 20.2911 50.7988 20.2844 51.0618 20.2978C51.1905 20.2978 51.313 20.3101 51.4411 20.3229L51.4594 20.3248C51.4353 20.3246 51.408 20.3237 51.3855 20.3181C51.3855 20.3248 51.5605 20.3315 51.4594 20.3248L51.4732 20.3248C51.5069 20.3282 51.5423 20.3332 51.5777 20.3383C51.6131 20.3434 51.6485 20.3484 51.6822 20.3518C52.188 20.4192 52.6871 20.5338 53.1794 20.6686L53.5435 20.7697C53.5685 20.7781 53.5922 20.7852 53.6154 20.7922C53.643 20.8005 53.6699 20.8086 53.6964 20.818C53.7127 20.825 53.7304 20.8328 53.7391 20.8372C53.9549 20.9248 54.164 21.0394 54.3596 21.1607C54.4298 21.204 54.5 21.2515 54.5703 21.2999L54.5772 21.3053C54.5896 21.3151 54.6028 21.3255 54.6183 21.3338C54.6435 21.3517 54.6588 21.3624 54.6225 21.336L54.6532 21.3581L54.6963 21.3897C54.7216 21.4082 54.7473 21.427 54.7709 21.4439C54.8417 21.4963 54.9114 21.5497 54.9809 21.6029L54.9815 21.6034C55.0907 21.687 55.1993 21.7702 55.3104 21.8484C55.3779 21.8956 55.4453 21.9444 55.5127 21.9933C55.5792 22.0415 55.6459 22.0899 55.7124 22.1364L55.7218 22.145C55.7365 22.1576 55.7518 22.1701 55.7674 22.1829C55.8019 22.2112 55.8376 22.2406 55.8702 22.2731C55.971 22.3697 56.0641 22.4716 56.1574 22.5738C56.2138 22.6355 56.2703 22.6975 56.3287 22.7584C56.445 22.8839 56.5708 22.9902 56.6975 23.0971C56.7545 23.1453 56.8117 23.1936 56.8682 23.2438C56.9077 23.2776 56.9448 23.3126 56.981 23.3483C57.0508 23.4569 57.1189 23.5661 57.1852 23.6753C57.1895 23.6817 57.1979 23.6991 57.208 23.7201C57.2296 23.7648 57.2591 23.8257 57.2729 23.8303C57.2729 23.8303 57.2054 23.682 57.2459 23.7697C57.2526 23.7832 57.2594 23.7983 57.2661 23.8135C57.2729 23.8287 57.2796 23.8438 57.2864 23.8573C57.3084 23.9097 57.3317 23.9622 57.3551 24.0151C57.3888 24.0912 57.4232 24.1688 57.455 24.2483C57.5157 24.3899 57.5831 24.5314 57.6505 24.673C57.6615 24.6949 57.6713 24.7168 57.6809 24.7382L57.688 24.7539C57.6891 24.7578 57.6921 24.7663 57.6977 24.7809C57.7161 24.8268 57.7376 24.8727 57.7601 24.9207C57.7706 24.9432 57.7814 24.9662 57.7921 24.9898C57.8404 25.1013 57.8892 25.2131 57.9383 25.3252L57.9387 25.3261C58.109 25.7156 58.2811 26.1091 58.4328 26.5067C58.5799 26.8823 58.6653 27.2844 58.7496 27.6808C58.7697 27.7752 58.7897 27.8695 58.8105 27.9628C58.824 28.0235 58.8374 28.0842 58.8442 28.1448C58.8644 28.2392 58.8307 28.0842 58.8307 28.0774C58.8307 28.0823 58.8315 28.0889 58.8327 28.0963C58.8338 28.1031 58.8352 28.1105 58.8367 28.1183C58.8403 28.1371 58.8442 28.1573 58.8442 28.1718C58.8644 28.3066 58.8779 28.4414 58.8914 28.5763C58.8959 28.6619 58.8944 28.7446 58.8929 28.8262L58.8921 28.8701C58.8917 28.8958 58.8914 28.9214 58.8914 28.9471C58.8914 28.9572 58.8915 28.9655 58.8916 28.9722L58.8914 28.974C58.888 29.0077 58.883 29.0414 58.8779 29.0751C58.8729 29.1088 58.8678 29.1426 58.8644 29.1763C58.7903 29.6549 58.6689 30.1335 58.5137 30.5919C58.48 30.6998 58.4396 30.8077 58.3991 30.9155C58.3721 30.9897 58.3856 30.956 58.3991 30.9223C58.4126 30.8886 58.4261 30.8549 58.3991 30.929C58.3825 30.9664 58.3684 31.0038 58.3537 31.0428L58.3384 31.0834C58.334 31.0947 58.3296 31.1061 58.3249 31.1178C58.2305 31.3403 58.1361 31.556 58.0349 31.7717C57.8259 32.2166 57.5898 32.6481 57.3403 33.0728C56.848 33.9087 56.295 34.7042 55.742 35.4997C55.6744 35.5985 55.7633 35.4767 55.7672 35.4715C55.7683 35.4701 55.7629 35.4775 55.7462 35.5007L55.742 35.5064C55.7342 35.5174 55.7263 35.528 55.7185 35.5385C55.7095 35.5504 55.7005 35.5621 55.6914 35.5738C55.6746 35.5958 55.6577 35.6177 55.6409 35.6413C55.5667 35.7356 55.4925 35.8301 55.4048 35.9109L55.2835 36.0323L55.2795 36.036L55.2706 36.044L55.2559 36.0567L55.2381 36.0719C55.1965 36.1074 55.1521 36.1453 55.216 36.0997C55.3104 36.0255 55.162 36.1469 55.1351 36.1671C55.1081 36.1907 55.0811 36.2126 55.0541 36.2345C55.0272 36.2564 55.0002 36.2783 54.9732 36.3019C54.5931 36.6098 54.2003 36.905 53.7638 37.1379C53.7598 37.1381 53.7558 37.1389 53.7518 37.1401C53.7474 37.1414 53.743 37.1433 53.7385 37.1454C53.6675 37.1657 53.656 37.1774 53.6702 37.1772L53.5233 37.2322C53.4086 37.2727 53.2873 37.3131 53.1659 37.3468C53.0081 37.3895 52.8476 37.4186 52.6861 37.4479L52.6853 37.4481C52.5917 37.4651 52.4978 37.4821 52.4038 37.5019C51.8711 37.6097 51.3383 37.7378 50.8123 37.8659C50.5428 37.9333 50.2726 38.0008 50.003 38.0479C49.9979 38.0479 49.9926 38.0482 49.9871 38.0486C50.0137 38.0442 50.0267 38.0417 49.9828 38.0479C49.9524 38.0513 49.9221 38.0564 49.8917 38.0614C49.8614 38.0665 49.8311 38.0715 49.8007 38.0749C49.6726 38.0884 49.5377 38.1019 49.4096 38.1086C49.1738 38.1214 48.9381 38.116 48.7023 38.1097L48.6913 38.1086C48.6745 38.1069 48.6576 38.1052 48.6475 38.1019C48.5868 38.0951 48.5261 38.0884 48.4654 38.0749C48.3373 38.0547 48.2024 38.0277 48.0743 37.994C47.9496 37.9638 47.8291 37.9251 47.7081 37.8862L47.7007 37.8838C47.6351 37.8039 47.5545 37.7319 47.4606 37.6704C47.4461 37.6603 47.4317 37.6505 47.4173 37.6409C47.398 37.6281 47.3787 37.6155 47.3594 37.603C47.3257 37.5811 47.292 37.5592 47.2583 37.5356C47.2467 37.5286 47.2303 37.5153 47.2121 37.5005C47.1775 37.4723 47.1365 37.4389 47.1099 37.4345C47.141 37.4567 47.1626 37.4723 47.1749 37.4814L47.1865 37.49C47.1913 37.4938 47.1744 37.482 47.1369 37.4547C47.1234 37.4446 47.1116 37.4361 47.0998 37.4277L47.0841 37.4165C47.0773 37.4116 47.0703 37.4064 47.0627 37.4008C47.0358 37.3805 47.0071 37.3587 46.9785 37.3368C46.9498 37.3148 46.9211 37.2929 46.8941 37.2727C46.8329 37.2237 46.773 37.1729 46.7131 37.1221C46.5421 36.977 46.3704 36.8314 46.1658 36.7266C45.9739 36.6307 45.7393 36.6082 45.5281 36.6648C45.5006 36.6619 45.4726 36.66 45.4442 36.6592L45.4092 36.6185L45.4172 36.6188L45.4117 36.6165L45.4058 36.6144L45.4037 36.612ZM53.6702 37.1772L53.6852 37.1716C53.6967 37.1687 53.7083 37.1621 53.7199 37.1555C53.7261 37.1519 53.7323 37.1483 53.7385 37.1454C53.7457 37.1433 53.7534 37.1412 53.7618 37.139L53.7256 37.1581C53.7023 37.171 53.68 37.177 53.6702 37.1772ZM54.6225 21.336L54.6183 21.3338L54.5814 21.3076L54.6225 21.336ZM42.531 24.8028L42.5342 24.7944C42.5393 24.7809 42.5443 24.7674 42.5511 24.7539C42.5778 24.6846 42.5495 24.763 42.5332 24.7987L42.531 24.8028ZM42.531 24.8028C42.5288 24.8068 42.5265 24.8108 42.5241 24.8146C42.5251 24.8146 42.5271 24.8113 42.5298 24.8059L42.531 24.8028ZM42.9908 35.1223C42.9995 35.1338 42.9893 35.1236 42.9341 35.0573C42.9545 35.0777 42.9821 35.1109 42.9908 35.1223ZM41.6406 33.3761L41.6374 33.3678C41.6394 33.3723 41.6406 33.3753 41.6406 33.3761ZM54.5551 21.2888C54.5585 21.2911 54.5619 21.2935 54.5653 21.2961L54.5551 21.2888ZM63.0837 53.769L63.0521 52.9532C63.0453 52.7442 63.0386 52.5352 63.0386 52.3262C63.0386 52.2756 63.0352 52.2234 63.0319 52.1712C63.0285 52.1189 63.0251 52.0667 63.0251 52.0161L63.0247 52.0026L63.0246 51.9932C63.0229 51.9852 63.0209 51.9768 63.0187 51.9682L63.0093 51.9322L63.0048 51.9138C63.0023 51.9031 63 51.8922 62.9981 51.8813C62.8835 51.4363 62.8228 50.9577 62.7823 50.4993C62.7688 50.3914 62.7621 50.2903 62.7621 50.1825C62.7606 50.1676 62.7578 50.1507 62.7545 50.1327L62.7494 50.1061C62.745 50.0831 62.7403 50.059 62.7369 50.0355C62.7408 50.0329 62.7427 50.0155 62.7351 49.9802C62.7343 49.975 62.7333 49.9698 62.7322 49.9646C62.7326 49.9559 62.7336 49.9475 62.7351 49.9397C62.7336 49.9454 62.7323 49.9508 62.7313 49.956L62.7309 49.9581C62.7281 49.9453 62.7248 49.9324 62.7216 49.9195C62.7166 49.8994 62.7115 49.879 62.7081 49.8589L62.6475 49.5959C62.553 49.1914 62.5058 48.787 62.4721 48.369C62.4586 48.1803 62.4451 47.9982 62.4181 47.8095C62.4158 47.7906 62.4126 47.7725 62.4094 47.7546C62.4042 47.725 62.3991 47.6959 62.3981 47.665C62.3968 47.6591 62.3956 47.6531 62.3945 47.6473C62.3935 47.6412 62.3926 47.6352 62.392 47.6293C62.3917 47.6264 62.3915 47.6235 62.3914 47.6206C62.3912 47.6184 62.3912 47.6162 62.3912 47.614L62.3305 47.2499C62.2698 46.8859 62.2091 46.5219 62.1619 46.1511C62.1555 46.1005 62.1492 46.0514 62.1429 46.0024L62.1247 45.8603C62.1196 45.8386 62.1155 45.8179 62.1113 45.7971C62.1062 45.7718 62.1012 45.7466 62.0944 45.7196C62.054 45.558 62.0135 45.3959 61.9663 45.2343C61.9505 45.1796 61.9346 45.1249 61.9187 45.0702L61.9184 45.0692L61.9178 45.0672C61.8317 44.7722 61.7455 44.4764 61.6831 44.1759C61.6089 43.8321 61.5347 43.4882 61.4066 43.1647C61.3668 43.0614 61.3341 42.9558 61.3015 42.8506C61.2788 42.7773 61.2562 42.7041 61.2312 42.6321C61.2245 42.6152 61.2177 42.5967 61.211 42.5782L61.201 42.551L61.211 42.5647C61.2068 42.5584 61.2028 42.5519 61.1989 42.5453L61.1953 42.5359L61.1908 42.5242C61.1835 42.5078 61.1747 42.4939 61.1677 42.4848C61.1616 42.4719 61.1557 42.4588 61.1499 42.4458L61.1495 42.4449C61.1365 42.4159 61.1237 42.3874 61.1098 42.3624C61.0019 42.1602 60.894 41.9512 60.8266 41.7287C60.8035 41.6565 60.7841 41.5843 60.7647 41.512C60.7388 41.4157 60.7129 41.3194 60.6783 41.2231C60.5722 40.9168 60.4352 40.6208 60.2989 40.3261L60.2399 40.1984C60.2197 40.158 60.2011 40.1159 60.1826 40.0738C60.164 40.0316 60.1455 39.9895 60.1253 39.949C60.1075 39.9113 60.1109 39.9188 60.1204 39.9397C60.1397 39.9823 60.184 40.08 60.1253 39.9625C60.1151 39.9456 60.1067 39.9288 60.0983 39.9119L60.0891 39.8937L60.0872 39.89C60.0842 39.8843 60.0811 39.8786 60.0779 39.8728L60.0106 39.7805C59.933 39.6667 59.8514 39.5609 59.7689 39.4538L59.7683 39.4529L59.724 39.3954L59.6937 39.3558C59.6731 39.3352 59.6526 39.3108 59.6321 39.2855C59.6326 39.2867 59.6329 39.2877 59.6329 39.2884L59.6309 39.2841L59.6127 39.2614C59.5237 39.1546 59.607 39.2462 59.6283 39.2789C59.6054 39.2364 59.5559 39.1913 59.5134 39.1527C59.4978 39.1385 59.4831 39.1251 59.4711 39.1131C59.3275 38.9695 59.1759 38.8312 59.0247 38.6933C58.9346 38.6111 58.8443 38.5287 58.7563 38.4457C58.5482 38.2442 58.3398 38.0425 58.1076 37.8651C58.0745 37.8452 58.0478 37.8252 58.0212 37.8053L57.9967 37.7887L57.9699 37.7703C57.9287 37.742 57.889 37.7146 57.8458 37.6907C57.7719 37.6455 57.6955 37.6028 57.618 37.5596C57.5684 37.5319 57.5182 37.5039 57.4682 37.4749C57.4018 37.4398 57.3376 37.3978 57.2731 37.3557L57.2476 37.339C57.1064 37.3765 56.9588 37.3844 56.8275 37.3603C56.7798 37.3524 56.7318 37.3373 56.6848 37.3167L56.6794 37.3199C56.667 37.3269 56.6542 37.334 56.6412 37.3412C56.6044 37.3614 56.5659 37.3826 56.5311 37.4075C56.5041 37.421 56.4839 37.4345 56.4569 37.4547C56.4434 37.4648 56.4149 37.4899 56.4005 37.5026C56.3936 37.5088 56.3899 37.512 56.3929 37.5091L56.4299 37.4749C56.4566 37.4482 56.4666 37.4382 56.4666 37.4381L56.4585 37.4456C56.4438 37.4595 56.4134 37.4882 56.4029 37.4951C56.3827 37.5086 56.3624 37.5288 56.3422 37.5491L56.3251 37.5637C56.285 37.5979 56.2496 37.6282 56.2141 37.6637C56.086 37.7783 55.9511 37.8929 55.8095 38.0007C55.6071 38.1558 55.3846 38.2974 55.162 38.4255C54.2246 38.9513 53.1659 39.2681 52.1273 39.5041C50.9876 39.7602 49.8007 39.8681 48.634 39.8479C48.0405 39.8344 47.4336 39.7535 46.8469 39.6591C46.5906 39.6187 46.3344 39.5378 46.0916 39.4501C46.0547 39.436 46.0179 39.4221 45.9812 39.4083C45.8432 39.3564 45.7068 39.305 45.5791 39.2412C45.5319 39.2209 45.4779 39.194 45.4307 39.167L45.421 39.1607C45.4195 39.1604 45.4183 39.1603 45.4172 39.1603C45.3517 39.1439 45.2862 39.1323 45.2215 39.1208C45.153 39.1087 45.0851 39.0967 45.0193 39.0794C44.844 39.0322 44.6822 38.9581 44.5204 38.8839C44.2843 38.7761 44.0549 38.6547 43.8391 38.5131C43.3603 38.203 42.9557 37.8187 42.5713 37.4008L42.3091 37.1129C42.1358 37.1956 41.9422 37.2322 41.7417 37.2322C41.7365 37.2322 41.7266 37.2331 41.7143 37.2342C41.6783 37.2373 41.622 37.2423 41.6069 37.2323C41.509 37.257 41.4163 37.2828 41.3236 37.3199C41.3078 37.3266 41.2898 37.3326 41.2711 37.3388L41.2506 37.3457C41.2436 37.3505 41.2286 37.3593 41.2022 37.3738L41.1529 37.4001C41.0838 37.4368 41.0182 37.4717 40.9527 37.5154C40.7706 37.63 40.5952 37.758 40.4266 37.8861C40.3895 37.9165 40.3508 37.9468 40.312 37.9771C40.2732 38.0075 40.2345 38.0378 40.1974 38.0682C40.1915 38.074 40.1853 38.0796 40.1789 38.085C40.1401 38.1114 40.1016 38.1437 40.0692 38.176C39.9141 38.3041 39.7657 38.4457 39.6174 38.5872C39.3206 38.8839 39.0307 39.1872 38.7609 39.5108C38.6429 39.649 38.5266 39.7906 38.4102 39.9321C38.2939 40.0737 38.1775 40.2153 38.0595 40.3535C38.0259 40.3939 37.9939 40.4343 37.9619 40.4747C37.9362 40.5072 37.9103 40.5398 37.8837 40.5723L37.8872 40.5644C37.8857 40.5675 37.8842 40.5706 37.8826 40.5737L37.864 40.5962C37.8507 40.6117 37.8425 40.6279 37.8396 40.6377L37.837 40.6412L37.8303 40.6501C37.7857 40.7201 37.7471 40.7916 37.7089 40.8625C37.6662 40.9417 37.6238 41.0203 37.574 41.095C37.4729 41.2546 37.3593 41.4099 37.2463 41.5643C37.216 41.6057 37.1858 41.647 37.1559 41.6883C37.1372 41.7139 37.117 41.7395 37.0965 41.7654C37.0577 41.8145 37.0182 41.8645 36.9873 41.9175C36.9968 41.908 37.0465 41.8349 37.0467 41.835L37.0392 41.8463L37.0142 41.8838C37.0041 41.9006 36.994 41.9158 36.9839 41.931C36.9738 41.9461 36.9636 41.9613 36.9535 41.9782C36.7877 42.2217 36.6457 42.4851 36.5062 42.744C36.4642 42.8219 36.4225 42.8994 36.3803 42.9759C36.2792 43.1512 36.178 43.3332 36.0971 43.5152L36.091 43.5272L36.081 43.5465L36.0793 43.5511C36.0748 43.5631 36.0702 43.5754 36.0657 43.5879C36.06 43.604 36.0545 43.6202 36.0499 43.6365L35.9892 43.859C35.9712 43.9296 35.9535 44.0002 35.9357 44.0707C35.8771 44.3044 35.8185 44.5375 35.7516 44.7685L35.7396 44.8298L35.7219 44.9152C35.6875 45.0807 35.6538 45.2426 35.625 45.4095C35.6183 45.4602 35.6115 45.5091 35.6047 45.5581C35.598 45.6069 35.5913 45.6557 35.5846 45.7061C35.5721 45.802 35.575 45.7716 35.5791 45.7297L35.5805 45.7146L35.5833 45.6845C35.5841 45.6757 35.5846 45.6688 35.5846 45.6657C35.5711 45.7129 35.5711 45.7668 35.5711 45.814C35.5441 46.2183 35.5441 46.6225 35.5441 47.0268C35.5441 47.8829 35.5576 48.7398 35.5778 49.5959C35.5808 49.6872 35.5831 49.7785 35.5855 49.8698C35.5936 50.1898 35.6018 50.5097 35.6385 50.8296C35.6587 51.0386 35.6925 51.2476 35.7262 51.4498L35.7464 51.5712C35.7633 51.6791 35.7531 51.6318 35.7438 51.5845L35.7464 51.5981L35.7593 51.6656C35.7818 51.7829 35.8036 51.8961 35.8206 52.0094C35.8612 52.2422 35.8675 52.4771 35.8737 52.7118C35.8788 52.9052 35.8839 53.0984 35.9082 53.2902C35.9315 53.486 35.9629 53.6817 35.9944 53.8782C36.0269 54.0811 36.0596 54.2848 36.0836 54.4902C36.1008 54.6415 36.1145 54.7945 36.1282 54.9484L36.1283 54.9492L36.1367 55.0429L36.1436 55.1181L36.1481 55.1667L36.2092 55.1574C36.4864 55.1148 36.7642 55.0723 37.0481 55.0835C37.1694 55.0868 37.2908 55.0986 37.4122 55.1104C37.5336 55.1222 37.655 55.134 37.7764 55.1374C37.9196 55.1411 38.0608 55.1327 38.2021 55.1244C38.3202 55.1174 38.4391 55.1104 38.5587 55.1104C38.8689 55.1037 39.1859 55.1307 39.4961 55.1711C39.5534 55.1779 39.6107 55.1863 39.6681 55.1947C39.7254 55.2031 39.7827 55.2116 39.84 55.2183L39.857 55.2218C39.8973 55.2189 39.9376 55.2161 39.9779 55.2135L40.0084 55.2115C40.4405 55.1845 40.8769 55.1748 41.3142 55.1651L41.3171 55.165C41.4248 55.1626 41.5326 55.1602 41.6404 55.1576C41.9126 55.1502 42.1848 55.1369 42.4569 55.1235C43.1828 55.0878 43.9088 55.0522 44.6346 55.1306C45.007 55.1729 45.3794 55.2234 45.7517 55.2757C45.8634 55.2768 45.9749 55.2764 46.0862 55.276C46.3707 55.275 46.6548 55.2739 46.9413 55.2992C47.3506 55.3358 47.7488 55.3172 48.151 55.2983L48.2766 55.2925L49.686 55.2318C49.9288 55.2183 50.1648 55.2116 50.4076 55.2116L50.7111 55.2318C50.7583 55.2352 50.8055 55.2402 50.8527 55.2453C50.8999 55.2503 50.9471 55.2554 50.9943 55.2588C51.003 55.2588 51.0142 55.2586 51.0263 55.2584L51.0146 55.2588C51.1188 55.2557 51.223 55.2596 51.3272 55.2635C51.4523 55.2682 51.5774 55.2728 51.7025 55.2655C51.807 55.2621 51.9132 55.2554 52.0194 55.2486C52.1256 55.2419 52.2319 55.2352 52.3364 55.2318C53.2536 55.1913 54.1707 55.1576 55.0878 55.1441L55.243 55.142L55.4295 55.1399C55.7697 55.1361 56.1118 55.1323 56.4501 55.1172C56.6862 55.1104 56.9222 55.0969 57.1582 55.0767C57.2121 55.07 57.2644 55.0649 57.3166 55.0599C57.3689 55.0548 57.4212 55.0498 57.4752 55.043C57.5117 55.0382 57.55 55.0306 57.5888 55.023C57.6309 55.0148 57.6737 55.0064 57.7153 55.0012L57.7517 54.9958C57.7989 54.9891 57.8461 54.9807 57.8933 54.9722C57.9405 54.9638 57.9877 54.9554 58.0349 54.9486C58.0484 54.9464 58.0619 54.9434 58.0754 54.9404C58.1023 54.9344 58.1293 54.9284 58.1563 54.9284L58.174 54.9262C58.2753 54.9135 58.3713 54.9015 58.4733 54.9015C58.6176 54.8924 58.765 54.8895 58.9134 54.8865C58.9868 54.885 59.0605 54.8835 59.1342 54.8812C59.1644 54.8789 59.1937 54.8758 59.2229 54.8727C59.2784 54.8668 59.333 54.861 59.3904 54.861C59.4069 54.8596 59.4208 54.8599 59.4314 54.8611C59.4658 54.8545 59.5019 54.8441 59.537 54.8341C59.5759 54.823 59.6137 54.8121 59.6467 54.8071C59.9232 54.7531 60.1795 54.7194 60.456 54.7194H61.1236C61.2139 54.7194 61.2988 54.7141 61.388 54.7081L61.3934 54.706C61.4338 54.6925 61.481 54.679 61.5282 54.6655C61.8969 54.5602 62.2943 54.5577 62.6852 54.5552C62.788 54.5546 62.8903 54.5539 62.9916 54.5514C62.9916 54.4755 62.9886 54.3991 62.9846 54.3233C62.9804 54.2848 62.978 54.2461 62.978 54.2071C62.9711 54.0448 63.0104 53.896 63.0837 53.769ZM57.0545 37.2283C57.0524 37.2273 57.0509 37.2263 57.0501 37.2255L57.0545 37.2283ZM41.1767 37.3776C41.1828 37.374 41.1891 37.3707 41.1955 37.3676L41.1868 37.3721L41.1767 37.3776ZM41.6069 37.2323L41.6486 37.2255H41.6338L41.6069 37.2323ZM58.2547 32.4801C58.2597 32.4696 58.2653 32.4596 58.271 32.4526C58.2653 32.4615 58.2598 32.4707 58.2547 32.4801ZM49.301 19.8216L49.3118 19.8192C49.3269 19.8158 49.3421 19.8125 49.3556 19.8125L49.301 19.8216ZM54.4642 20.5784C54.4215 20.5528 54.3636 20.5076 54.4405 20.5608L54.4642 20.5784ZM48.7234 38.1125C48.7279 38.1133 48.7319 38.1142 48.7352 38.1153C48.7352 38.115 48.7346 38.1146 48.7336 38.1143L48.7302 38.1135L48.7234 38.1125Z" fill="url(#paint5_linear_48_12592)"/>
<path fill-rule="evenodd" clip-rule="evenodd" d="M10.0984 34.6237L10.0975 34.6246C8.61431 36.0418 7.12923 37.4609 5.85457 39.0665C4.01946 41.3781 2.88382 44.0022 2.57111 46.9307C2.40395 48.5142 2.43698 50.1958 2.74282 51.8173C2.99202 53.9095 3.66077 55.9577 4.89993 57.633C6.71035 60.0762 9.54117 61.5322 12.4214 62.3877C14.1001 62.8895 15.8612 63.1857 17.6058 63.2762C19.4018 63.3674 20.9936 63.0085 22.7069 62.6222L22.8629 62.587C23.9734 65.681 25.1908 68.7972 27.2421 71.4119C29.5874 74.3897 32.9367 76.1419 36.6892 76.6601C41.7993 77.3702 47.441 76.3645 51.9 73.6479C52.9962 73.034 54.029 72.3216 54.9744 71.5106C56.6089 70.1072 57.9722 68.4391 59.1259 66.6354C59.8014 67.7923 60.8165 68.7489 61.9033 69.5691C63.4833 70.7537 65.2032 71.7738 66.9972 72.6128C70.4288 74.2169 74.2718 75.2452 78.0901 74.9655C81.9743 74.6776 85.554 72.9913 88.1791 70.1285C90.977 67.0849 92.376 63.0869 92.3184 58.982C92.3031 57.9079 92.1975 56.8373 92.0092 55.7804C91.6295 52.7643 90.5667 49.8319 88.9998 47.2153C92.4127 45.2946 95.3726 42.5092 97.0009 38.9267C98.47 35.6877 98.822 32.1007 98.1293 28.6233C98.0776 28.2536 98.0142 27.8847 97.939 27.517C96.466 20.2615 90.5822 14.2893 83.3487 12.5371C77.4043 11.0946 71.1907 12.6256 65.3634 14.0614L65.198 14.1021C63.4916 10.681 61.6679 7.14689 58.8915 4.48363C56.4721 2.16385 53.3532 0.666686 50.0204 0.189567C42.9433 -0.822253 35.8909 2.32016 30.8794 7.1407C28.4416 9.48925 26.4254 12.2399 24.8012 15.1957C20.666 13.4563 16.0914 14.2018 12.4297 16.7489C9.12896 19.0367 6.61623 22.9957 7.51782 27.0658C7.56682 27.6351 7.67923 28.2092 7.86241 28.7838C8.46521 30.6748 9.68268 32.2762 11.028 33.7318C10.7197 34.03 10.4089 34.327 10.0984 34.6237ZM23.6414 17.4793C23.5706 17.6303 23.5008 17.7817 23.432 17.9334C23.2613 18.3133 23.378 18.6743 23.6098 18.9143L23.5883 18.9617C23.1521 19.9324 24.5923 20.7797 25.0366 19.8008H25.0448C27.9744 13.3268 32.7144 7.44506 39.3554 4.48363C45.0664 1.93352 52.1929 1.85125 57.1468 6.0466C60.2935 8.70879 62.209 12.5587 64.0216 16.2017C64.1525 16.4649 64.2829 16.727 64.4132 16.9874C64.7981 17.7636 65.8146 17.3628 65.9433 16.678L66.4811 16.5447C71.3775 15.3296 76.5907 14.0359 81.6041 14.8486C85.0851 15.4162 88.3603 16.9545 90.9607 19.3237C93.7914 21.9018 95.777 25.3816 96.4944 29.0839C96.7881 31.361 96.5966 33.6978 95.8241 35.9406C94.4499 39.922 91.3393 42.9411 87.6691 44.9318C87.6129 44.9621 87.563 44.9956 87.5191 45.0319C86.8684 44.2233 85.4449 45.0466 86.0889 45.8942L86.1053 45.886C86.1509 45.9458 86.1963 46.0058 86.2413 46.0662C86.0526 46.2923 86.0045 46.6057 86.2452 46.9225L86.2617 46.9143C88.279 49.5594 89.7652 52.7762 90.3634 56.0927C90.8142 59.7435 90.1547 63.4555 87.9158 66.6077C85.8667 69.4951 82.7561 71.4859 79.2422 72.1028C75.8272 72.7033 72.2804 71.9959 69.0957 70.7455C68.4913 70.5094 67.8971 70.2485 67.3133 69.9659C66.7807 69.5597 66.2276 69.1783 65.6767 68.7984C65.0231 68.3477 64.3725 67.8991 63.7632 67.4139C63.0801 66.871 62.3313 66.1964 61.8458 65.563C61.5906 65.2175 61.352 64.8474 61.1874 64.4525C61.2064 64.4951 61.1817 64.4261 61.1558 64.3536C61.1448 64.3228 61.1334 64.2908 61.1252 64.2671C61.1192 64.2496 61.1148 64.2363 61.1133 64.2304C61.1097 64.2184 61.106 64.2062 61.1021 64.1939L61.0934 64.1663C61.073 64.1022 61.0516 64.0347 61.0393 63.9671C60.9652 63.6875 60.957 63.6381 60.9406 63.3749L60.9403 63.3719C60.9624 63.3263 60.9845 63.2807 61.0064 63.235C61.4576 62.2927 60.0787 61.4608 59.5883 62.3374C59.3739 62.3287 59.1629 62.4115 59.0114 62.6188C58.5639 62.6861 58.1298 63.0795 58.2332 63.6545C58.2538 63.7661 58.2776 63.8761 58.3044 63.9846C56.4981 67.3692 54.0775 70.3461 50.8486 72.3279C50.0256 72.7849 49.1525 73.179 48.2265 73.5013C42.3509 75.5414 34.5167 75.7306 29.966 70.91C27.3903 68.179 26.0818 64.5101 24.8557 61.0386C24.6534 60.465 24.0372 60.3617 23.6123 60.5674L23.6131 60.5615C23.7725 59.5499 22.2652 59.0936 22.0126 60.0217C21.9226 60.0425 21.8329 60.0633 21.7435 60.0841C20.5103 60.3706 19.3296 60.6448 18.0255 60.6109C16.6348 60.578 15.2605 60.397 13.9109 60.0762C11.2529 59.451 8.49611 58.3322 6.62809 56.2839C5.43699 54.9742 4.75596 53.3254 4.42314 51.5958C4.30107 50.5431 4.29342 49.4794 4.36502 48.4608C4.55429 45.8366 5.53358 43.4264 7.13827 41.3451C8.3888 39.7144 9.89061 38.2877 11.3888 36.8645C12.0594 36.2274 12.7297 35.5906 13.376 34.937C13.6969 34.6161 13.6969 34.0814 13.376 33.7606L13.3544 33.7389C13.5315 33.4223 13.4866 33.0074 13.2197 32.7406C11.546 31.0593 9.75776 29.1981 9.1843 26.8391C9.04829 24.8362 9.8765 22.8101 11.1459 21.2733C14.0682 17.7166 19.2467 15.9409 23.6414 17.4793Z" fill="url(#paint6_linear_48_12592)"/>
<path fill-rule="evenodd" clip-rule="evenodd" d="M57.601 75.9982C57.8946 75.9768 58.1992 75.9856 58.5129 76.0268V76.0185C58.7084 76.0434 58.8916 76.1082 59.0367 76.2142C59.3324 76.2791 59.6275 76.3524 59.9238 76.4259L60.1574 76.4837C60.2072 76.496 60.257 76.5082 60.3069 76.5203C61.4178 76.7918 62.3889 77.2113 63.2035 78.0339C63.8898 78.7236 64.3579 79.5958 64.5997 80.5302C64.6517 80.6339 64.6826 80.756 64.6848 80.8967L64.685 80.9109C64.7731 81.3739 64.807 81.8478 64.7858 82.3187C64.8418 83.1 64.8306 83.8805 64.4132 84.5573C63.8372 85.4869 62.7756 86.4082 61.7387 86.7948C60.529 87.2473 59.1548 87.091 57.9204 86.8689C57.6599 86.822 57.3957 86.7835 57.131 86.745C56.1414 86.601 55.1435 86.4558 54.2996 85.8653C52.5221 84.6231 52.4151 82.2869 52.9006 80.3619C53.3697 78.5028 54.5794 76.1995 56.7272 76.0103C57.023 75.9829 57.3137 75.9811 57.601 75.9982ZM63.0139 81.1869C62.7874 79.9903 62.0891 78.9102 60.8829 78.4041C60.6183 78.2899 60.3316 78.224 60.0454 78.1583L60.0446 78.158C59.9395 78.1339 59.8346 78.1098 59.7308 78.0833C59.5577 78.0416 59.387 77.9962 59.2169 77.9509L59.2151 77.9505C58.9493 77.8797 58.6848 77.8093 58.4142 77.7543C58.208 77.7135 57.9838 77.6734 57.754 77.6474C57.2816 77.672 56.8328 77.7955 56.4721 78.0915C55.9536 78.5193 55.6739 79.1362 55.5093 79.7779C55.3549 80.3884 55.3428 81.0045 55.3303 81.6483C55.3274 81.7938 55.3245 81.9408 55.32 82.0894C55.2953 83.019 55.3611 83.9239 56.1594 84.5491C56.6471 84.9348 57.2701 84.9278 57.8689 84.921C57.9469 84.9201 58.0246 84.9193 58.1015 84.9193C58.4793 84.9193 58.8571 84.9363 59.2349 84.9533C59.6882 84.9737 60.1415 84.9941 60.5949 84.9851C61.3026 84.9604 61.9692 84.8617 62.4382 84.2858C62.8744 83.7429 63.0472 83.019 63.0883 82.3445C63.0917 82.2836 63.094 82.2227 63.0952 82.1618C63.0856 82.04 63.0741 81.9182 63.0626 81.7963L63.0625 81.795C63.0434 81.5923 63.0243 81.3896 63.0139 81.1869Z" fill="url(#paint7_linear_48_12592)"/>
<path fill-rule="evenodd" clip-rule="evenodd" d="M48.1689 95.5475C47.656 95.3507 47.1388 95.1064 46.6767 94.7896C46.4799 94.7185 46.2882 94.6301 46.1034 94.5192C44.8032 93.7377 44.4247 92.183 44.8444 90.7928C45.2394 89.4848 46.2762 88.5635 47.5271 88.0617C49.9876 87.0827 53.7072 87.8478 54.6535 90.5789C55.2378 92.2488 54.275 94.1819 52.9254 95.1938C51.5841 96.1974 49.6749 96.1315 48.1689 95.5475ZM47.2555 93.1208C47.3239 93.1865 47.3855 93.2412 47.4474 93.2907C47.531 93.3145 47.6139 93.3359 47.6999 93.3511C47.9285 93.3957 48.176 93.4101 48.4322 93.4249C48.5539 93.432 48.6781 93.4392 48.8026 93.4498C49.2387 93.4909 49.6749 93.5238 50.1193 93.5238C50.3661 93.5238 50.613 93.5156 50.8599 93.4992C50.9093 93.4909 50.9586 93.4827 51.008 93.4827C51.0148 93.4823 51.0204 93.482 51.0251 93.4819L51.0336 93.4818L51.0374 93.4819C51.1261 93.4657 51.2071 93.4494 51.296 93.4251C51.3338 93.4157 51.3689 93.4035 51.4028 93.3918L51.4342 93.381C51.4375 92.9521 51.864 92.6025 52.2753 92.6025C52.4841 92.6025 52.6646 92.6765 52.8043 92.7969C53.2999 91.8775 53.2696 90.92 52.3988 90.1676C51.4231 89.3231 49.8169 89.0934 48.4882 89.4741C48.4233 89.5643 48.3386 89.6396 48.2348 89.6904C47.667 89.9701 47.2226 90.365 47.0251 90.875C46.8111 91.4426 46.7782 92.0596 46.9428 92.619C47.0004 92.8082 47.0992 92.9645 47.2555 93.1208Z" fill="url(#paint8_linear_48_12592)"/>
<path fill-rule="evenodd" clip-rule="evenodd" d="M36.7648 95.6209C36.5547 95.7107 36.3533 95.8313 36.1624 95.9835C35.6604 96.3866 35.3313 97.02 35.3313 97.6616C35.323 98.9202 36.4834 99.7017 37.6107 99.9156C38.7875 100.138 40.1042 99.9649 40.7872 98.8708C41.3468 97.9742 41.3797 96.5346 40.5485 95.786C40.0959 95.3747 39.5446 95.095 38.985 94.8729C38.4748 94.6673 37.907 94.5274 37.3639 94.6508C36.9531 94.7456 36.6637 95.2193 36.7648 95.6209ZM38.5533 96.4864C38.5751 96.5018 38.5672 96.5031 38.4757 96.4507C38.483 96.4546 38.4905 96.4584 38.4981 96.4621C38.516 96.4707 38.5345 96.4787 38.5533 96.4864ZM38.8219 96.6115C38.9526 96.6808 39.0821 96.7556 39.2072 96.839C39.2362 96.8571 39.2874 96.899 39.3182 96.9243C39.3575 96.9564 39.3636 96.9615 39.2483 96.8555L39.4211 97.0035C39.4268 97.0092 39.4321 97.0149 39.4371 97.0206C39.4464 97.0446 39.4584 97.0672 39.469 97.0692C39.4901 97.1328 39.5033 97.1996 39.5158 97.2625L39.5199 97.2832V97.3819C39.5199 97.3969 39.5189 97.4126 39.5174 97.4287L39.5156 97.4467L39.513 97.4693L39.5109 97.4879C39.5064 97.4893 39.5023 97.5109 39.506 97.5604C39.5061 97.5738 39.5069 97.5867 39.509 97.599C39.5002 97.6567 39.4854 97.7084 39.4706 97.7601L39.4639 97.7799L39.4579 97.797C39.4484 97.8242 39.4397 97.8493 39.4335 97.874C39.4146 97.9046 39.3973 97.9352 39.3801 97.9658C39.3656 97.9917 39.351 98.0176 39.3354 98.0434L39.2432 98.1356C39.1945 98.1493 39.1724 98.1703 39.1721 98.1788L39.158 98.1888L39.1451 98.1982C39.1355 98.2052 39.1263 98.2118 39.1179 98.2176C39.1116 98.222 39.1056 98.226 39.1002 98.2292C39.0838 98.2354 39.0673 98.2416 39.0509 98.2457C38.9802 98.2669 38.9035 98.282 38.8312 98.2963L38.7957 98.3033L38.7825 98.306L38.7669 98.3074C38.7443 98.3094 38.7217 98.3115 38.697 98.3115H38.409C38.3596 98.3115 38.3102 98.3053 38.2608 98.2991C38.2425 98.2968 38.2241 98.2945 38.2058 98.2926C38.22 98.2924 38.2314 98.2915 38.2373 98.2903C38.252 98.2874 38.232 98.2831 38.1332 98.2861C38.0852 98.2781 38.0373 98.2699 37.9893 98.2539C37.907 98.2374 37.8247 98.2128 37.7506 98.1881L37.7213 98.1781C37.6841 98.1653 37.65 98.1535 37.6107 98.147C37.5943 98.1429 37.5799 98.1367 37.5655 98.1305L37.554 98.1256L37.5432 98.1213C37.5102 98.1035 37.4748 98.0876 37.44 98.072C37.4045 98.0561 37.3697 98.0405 37.3392 98.0236C37.3128 98.0071 37.2878 97.9907 37.2631 97.9742C37.27 97.9759 37.2546 97.9627 37.189 97.9233C37.1683 97.9074 37.1507 97.8882 37.1321 97.8679L37.1264 97.8616C37.1114 97.8326 37.0989 97.8111 37.0889 97.796C37.0858 97.7792 37.081 97.7644 37.0756 97.7518C37.0681 97.7225 37.0592 97.6916 37.0511 97.6692V97.5975C37.0592 97.5647 37.07 97.533 37.0811 97.5047C37.0917 97.4866 37.1023 97.4672 37.1129 97.4478L37.125 97.4256C37.1333 97.4105 37.1416 97.3958 37.1499 97.3819C37.1546 97.3749 37.1599 97.3673 37.1655 97.3594L37.1746 97.349L37.2906 97.2331L37.3003 97.2268L37.3145 97.2174L37.3282 97.209L37.3472 97.197C37.3745 97.1797 37.4001 97.1634 37.4297 97.1516C37.4358 97.1475 37.4419 97.1439 37.4479 97.1406L37.4584 97.1349C37.4726 97.1274 37.4856 97.1204 37.4955 97.1105L37.5186 97.0989C37.5513 97.0878 37.5823 97.0776 37.5861 97.0776C37.6141 97.0705 37.6424 97.0635 37.6755 97.0565L37.6907 97.0562L37.7054 97.0559L37.7251 97.0553L37.7858 97.053L37.7918 97.0529H37.8412C38.2227 97.1189 38.6565 96.9757 38.8219 96.6115ZM37.0653 97.767L37.0511 97.7439V97.7129C37.0586 97.7206 37.0678 97.7339 37.0756 97.7518L37.0795 97.7679L37.0846 97.7897C37.0759 97.7771 37.0694 97.7699 37.0653 97.767ZM37.0912 97.8234C37.0611 97.7862 37.0533 97.7584 37.0653 97.767L37.0872 97.8016C37.0889 97.8101 37.0903 97.8175 37.0912 97.8234ZM37.0921 97.8245L37.0923 97.8332C37.0922 97.8308 37.0918 97.8275 37.0912 97.8234L37.0921 97.8245ZM37.1221 97.857C37.1152 97.8495 37.1081 97.8419 37.1005 97.8344L37.096 97.8292L37.0921 97.8245L37.0914 97.815L37.0906 97.807L37.0923 97.8096C37.1025 97.8257 37.1127 97.8417 37.1221 97.857ZM37.1221 97.857L37.1334 97.8755L37.1264 97.8616L37.1221 97.857ZM37.1965 97.93C37.1813 97.9201 37.1658 97.9101 37.1499 97.9002C37.1646 97.9087 37.1776 97.9164 37.189 97.9233L37.1911 97.9248L37.1965 97.93ZM37.1965 97.93C37.2211 97.9526 37.2555 97.9723 37.2631 97.9742L37.2445 97.9618C37.2286 97.9512 37.2126 97.9406 37.1965 97.93ZM38.1406 98.2874C38.1313 98.287 38.122 98.2868 38.1127 98.2868L38.1332 98.2861L38.1374 98.2868L38.1406 98.2874ZM38.1406 98.2874C38.1627 98.2915 38.1867 98.2928 38.2058 98.2926C38.1841 98.2902 38.1623 98.2883 38.1406 98.2874ZM39.2411 98.1378L39.2401 98.1387C39.1964 98.1825 39.1718 98.1878 39.1721 98.1788C39.1952 98.1625 39.2194 98.1469 39.2411 98.1378ZM39.2411 98.1378C39.247 98.1353 39.2528 98.1332 39.2583 98.1319C39.253 98.133 39.248 98.1343 39.2432 98.1356L39.2411 98.1378ZM39.506 97.5604L39.5068 97.5701C39.5075 97.5779 39.5084 97.5863 39.5095 97.5953L39.5117 97.5794C39.5245 97.5237 39.5173 97.4859 39.5109 97.4879C39.5082 97.5127 39.5059 97.5372 39.506 97.5604ZM39.44 97.0238L39.4475 97.0326L39.4541 97.0405L39.4626 97.0507L39.469 97.0692C39.4627 97.065 39.4494 97.0414 39.44 97.0238ZM39.44 97.0238L39.4344 97.0133L39.4371 97.0206L39.44 97.0238ZM37.3556 97.1763L37.3343 97.1923C37.3414 97.1864 37.3485 97.181 37.3556 97.1763ZM37.0462 97.7353C37.0339 97.7127 37.0345 97.7036 37.0409 97.7054C37.0425 97.7153 37.0443 97.7253 37.0462 97.7353ZM39.4263 96.9879C39.4174 96.9555 39.4195 96.9405 39.4473 97.0108C39.4393 97.0017 39.432 96.9937 39.4263 96.9879Z" fill="url(#paint9_linear_48_12592)"/>
<defs>
<linearGradient id="paint0_linear_48_12592" x1="50.4712" y1="0" x2="50.4712" y2="100" gradientUnits="userSpaceOnUse">
<stop stop-color="#DA48A2"/>
<stop offset="1" stop-color="#FB4B37"/>
</linearGradient>
<linearGradient id="paint1_linear_48_12592" x1="50.4712" y1="0" x2="50.4712" y2="100" gradientUnits="userSpaceOnUse">
<stop stop-color="#DA48A2"/>
<stop offset="1" stop-color="#FB4B37"/>
</linearGradient>
<linearGradient id="paint2_linear_48_12592" x1="50.4712" y1="0" x2="50.4712" y2="100" gradientUnits="userSpaceOnUse">
<stop stop-color="#DA48A2"/>
<stop offset="1" stop-color="#FB4B37"/>
</linearGradient>
<linearGradient id="paint3_linear_48_12592" x1="50.4712" y1="0" x2="50.4712" y2="100" gradientUnits="userSpaceOnUse">
<stop stop-color="#DA48A2"/>
<stop offset="1" stop-color="#FB4B37"/>
</linearGradient>
<linearGradient id="paint4_linear_48_12592" x1="50.4712" y1="0" x2="50.4712" y2="100" gradientUnits="userSpaceOnUse">
<stop stop-color="#DA48A2"/>
<stop offset="1" stop-color="#FB4B37"/>
</linearGradient>
<linearGradient id="paint5_linear_48_12592" x1="50.4712" y1="0" x2="50.4712" y2="100" gradientUnits="userSpaceOnUse">
<stop stop-color="#DA48A2"/>
<stop offset="1" stop-color="#FB4B37"/>
</linearGradient>
<linearGradient id="paint6_linear_48_12592" x1="50.4712" y1="0" x2="50.4712" y2="100" gradientUnits="userSpaceOnUse">
<stop stop-color="#DA48A2"/>
<stop offset="1" stop-color="#FB4B37"/>
</linearGradient>
<linearGradient id="paint7_linear_48_12592" x1="50.4712" y1="0" x2="50.4712" y2="100" gradientUnits="userSpaceOnUse">
<stop stop-color="#DA48A2"/>
<stop offset="1" stop-color="#FB4B37"/>
</linearGradient>
<linearGradient id="paint8_linear_48_12592" x1="50.4712" y1="0" x2="50.4712" y2="100" gradientUnits="userSpaceOnUse">
<stop stop-color="#DA48A2"/>
<stop offset="1" stop-color="#FB4B37"/>
</linearGradient>
<linearGradient id="paint9_linear_48_12592" x1="50.4712" y1="0" x2="50.4712" y2="100" gradientUnits="userSpaceOnUse">
<stop stop-color="#DA48A2"/>
<stop offset="1" stop-color="#FB4B37"/>
</linearGradient>
</defs>
</svg>
