<?xml version="1.0" encoding="UTF-8"?>
<svg width="34px" height="36px" viewBox="0 0 34 36" version="1.1" xmlns="http://www.w3.org/2000/svg" xmlns:xlink="http://www.w3.org/1999/xlink">
    <!-- Generator: Sketch 60.1 (88133) - https://sketch.com -->
    <title>logo</title>
    <desc>Created with Sketch.</desc>
    <g id="Portfolio" stroke="none" stroke-width="1" fill="none" fill-rule="evenodd">
        <path d="M12.8490375,1.49222798 C13.3083418,1.31135186 13.7561635,1.2209138 14.1925025,1.2209138 L14.1925025,1.2209138 L14.1925025,1.0343853 C13.2968592,1.12482336 12.8490375,1.24917569 12.8490375,1.4074423 L12.8490375,1.4074423 L12.8490375,1.49222798 Z M14.0030395,2.25529911 C13.8078352,2.18747056 13.710233,2.12529439 13.710233,2.06877061 L13.710233,2.06877061 L13.2279635,2.06877061 L13.2279635,1.96702779 C13.4231678,1.96702779 13.6815265,1.87658973 14.0030395,1.69571361 L14.0030395,1.69571361 L14.1925025,1.69571361 C14.1925025,1.82006594 14.1293482,1.88224211 14.0030395,1.88224211 L14.0030395,1.88224211 L14.0891591,2.06877061 L14.0030395,2.25529911 Z M13.2279635,2.34008479 L12.7629179,2.25529911 L12.7629179,2.15355629 C12.7629179,2.05181347 12.8260723,1.98963731 12.952381,1.96702779 L12.952381,1.96702779 L13.0385005,1.96702779 C13.0385005,2.09138012 13.1016548,2.15355629 13.2279635,2.15355629 L13.2279635,2.15355629 L13.2279635,2.34008479 Z M12.6595745,2.4418276 L12.4701114,2.4418276 L12.4701114,2.15355629 L12.6595745,2.15355629 L12.6595745,2.4418276 Z M10.7649443,2.52661328 C10.948666,2.43617522 11.0405268,2.34573716 11.0405268,2.25529911 L11.0405268,2.25529911 L10.8510638,2.25529911 L10.6616008,2.34008479 L10.7649443,2.52661328 Z M10.7649443,3.8492699 L10.5754813,3.8492699 C10.5754813,3.65708902 10.5123269,3.56099859 10.3860182,3.56099859 L10.3860182,3.56099859 L11.0405268,2.89967028 C11.5227964,2.71879416 11.8443094,2.56617993 12.0050659,2.4418276 L12.0050659,2.4418276 L12.2806484,2.4418276 L12.1945289,2.6283561 C11.2414725,3.20489873 10.7649443,3.61187 10.7649443,3.8492699 L10.7649443,3.8492699 Z M22.7527862,3.00141309 C22.6379601,2.93358455 22.5460993,2.89967028 22.4772036,2.89967028 L22.4772036,2.89967028 L22.4772036,2.71314178 C22.5805471,2.71314178 22.7355623,2.65096561 22.9422492,2.52661328 C23.2867275,2.59444183 23.636947,2.6283561 23.9929078,2.6283561 L23.9929078,2.6283561 L23.9929078,2.71314178 C23.4532253,2.71314178 23.0398514,2.80923222 22.7527862,3.00141309 Z M20.5653495,3.6627414 C20.7490713,3.6627414 21.1968929,3.44229863 21.9088146,3.00141309 C21.9088146,2.89967028 21.8456602,2.83749411 21.7193516,2.8148846 L21.7193516,2.8148846 L21.6160081,2.8148846 C21.5241472,2.8148846 21.1739277,3.09750353 20.5653495,3.6627414 Z M12.952381,3.18794159 L12.952381,3.00141309 L13.331307,3.00141309 L13.331307,3.08619878 C13.1935157,3.08619878 13.067207,3.12011305 12.952381,3.18794159 L12.952381,3.18794159 Z M22.5633232,3.93405558 L22.2877406,3.93405558 L22.2877406,3.8492699 L22.7527862,3.74752708 L22.8561297,3.74752708 L22.8561297,3.8492699 C22.787234,3.8492699 22.6896319,3.87753179 22.5633232,3.93405558 L22.5633232,3.93405558 Z M31.8986829,4.0357984 L31.6231003,4.0357984 L31.6231003,3.8492699 L31.7092199,3.8492699 C31.8355285,3.8492699 31.8986829,3.91144607 31.8986829,4.0357984 L31.8986829,4.0357984 Z M29.9007092,4.30711258 L29.7112462,4.30711258 L29.7112462,4.12058408 C29.7916245,4.12058408 30.0442418,4.03014602 30.4690983,3.8492699 L30.4690983,3.8492699 L30.4690983,3.93405558 L31.0374873,3.8492699 L31.3302938,3.8492699 L31.3302938,3.93405558 C31.1580547,3.93405558 30.6815265,4.05840791 29.9007092,4.30711258 L29.9007092,4.30711258 Z M21.4265451,4.59538389 L21.3232016,4.59538389 C21.3232016,4.26754593 21.5471125,4.08101743 21.9949341,4.0357984 L21.9949341,4.0357984 L22.1843972,4.0357984 C21.8858494,4.34102685 21.633232,4.52755535 21.4265451,4.59538389 L21.4265451,4.59538389 Z M10.8510638,4.40885539 L10.8510638,4.30711258 C10.8510638,4.20536976 10.9142182,4.14319359 11.0405268,4.12058408 L11.0405268,4.12058408 L11.1438703,4.12058408 L11.1438703,4.30711258 C11.0749747,4.30711258 10.9773725,4.34102685 10.8510638,4.40885539 L10.8510638,4.40885539 Z M3.23809524,13.4130947 L3.13475177,13.4130947 C3.59405606,12.1243523 3.88112124,11.463024 3.99594732,11.4291098 C5.30496454,8.99858691 7.147923,6.59632595 9.5248227,4.2223269 L9.5248227,4.2223269 L9.61094225,4.2223269 L9.61094225,4.68016957 C9.30091185,4.70277909 9.14589666,4.79886952 9.14589666,4.96844089 L9.14589666,4.96844089 L9.14589666,5.0701837 C9.27220534,5.0701837 9.33535968,5.00235516 9.33535968,4.86669807 L9.33535968,4.86669807 L9.5248227,4.96844089 C9.5248227,5.05887894 9.39851402,5.15496938 9.14589666,5.2567122 L9.14589666,5.2567122 L8.95643364,5.15496938 C8.95643364,5.34715026 8.85883148,5.4432407 8.66362715,5.4432407 L8.66362715,5.4432407 L8.66362715,5.52802638 L8.76697062,5.71455488 C8.46842283,5.71455488 8.24451199,5.77673104 8.0952381,5.90108337 C8.0952381,6.0254357 8.15839243,6.08761187 8.28470111,6.08761187 L8.28470111,6.08761187 L8.28470111,5.90108337 L8.47416413,5.90108337 L8.28470111,6.18935469 L7.99189463,6.18935469 C7.76224249,6.33631653 7.38331645,6.80546397 6.85511651,7.59679699 L6.85511651,7.59679699 L6.85511651,7.68158267 L7.04457953,7.59679699 L7.147923,7.59679699 L6.95845998,7.96985398 L6.76899696,7.86811116 L6.6656535,7.86811116 L6.76899696,8.05463966 L6.37284701,8.05463966 L6.37284701,8.15638248 L6.47619048,8.34291098 C6.40729483,8.34291098 6.37284701,8.40508714 6.37284701,8.52943947 L6.37284701,8.52943947 L6.09726444,8.52943947 C6.01688619,8.52943947 5.95373185,8.6537918 5.90780142,8.90249647 L5.90780142,8.90249647 L5.99392097,9.08902496 L5.80445795,9.08902496 L5.14994934,10.3099388 L4.94326241,10.2251531 L4.75379939,10.3099388 L4.85714286,10.4964673 L4.85714286,10.5982101 L4.66767984,10.5982101 L4.66767984,10.6829958 L4.75379939,10.8695243 L4.37487335,11.1577956 L4.37487335,11.4291098 C4.37487335,11.4969383 4.34616684,11.5308526 4.2887538,11.5308526 C4.16244512,11.9039096 4.00168862,12.0904381 3.8064843,12.0904381 L3.8064843,12.0904381 L3.8064843,12.1921809 L3.99594732,12.1921809 L3.99594732,12.3787094 C3.86963864,12.3787094 3.61702128,12.7235045 3.23809524,13.4130947 L3.23809524,13.4130947 Z M26.5592705,6.56241168 L26.473151,6.56241168 L26.473151,6.27414037 C26.473151,6.09326425 26.6339075,5.81629769 26.9554205,5.4432407 L26.9554205,5.4432407 L27.04154,5.4432407 L27.231003,5.52802638 L27.231003,5.4432407 C28.0692334,4.8327838 28.7352246,4.42581253 29.2289767,4.2223269 L29.2289767,4.2223269 L29.3323202,4.2223269 C29.4586288,4.2223269 29.5217832,4.28450306 29.5217832,4.40885539 L29.5217832,4.40885539 L29.5217832,4.49364107 C29.3265789,4.49364107 29.1371158,4.61799341 28.9533941,4.86669807 L28.9533941,4.86669807 L28.7639311,4.86669807 C28.7639311,4.68582195 28.7007768,4.59538389 28.5744681,4.59538389 C28.5744681,4.79886952 28.3505572,5.01931229 27.9027356,5.2567122 C27.9027356,5.31323599 27.9314421,5.40367405 27.9888551,5.52802638 C27.6673421,5.67498822 27.1908139,6.01978333 26.5592705,6.56241168 L26.5592705,6.56241168 Z M30.1935157,5.0701837 L30.0901722,5.0701837 C30.0901722,4.93452661 30.2796353,4.83843618 30.6585613,4.78191239 L30.6585613,4.78191239 L30.7619048,4.78191239 L30.7619048,4.86669807 C30.6355961,4.86669807 30.4461331,4.93452661 30.1935157,5.0701837 L30.1935157,5.0701837 Z M2.8591692,5.4432407 L2.8591692,5.15496938 C2.75582573,5.15496938 2.69267139,5.21714555 2.66970618,5.34149788 L2.66970618,5.34149788 L2.66970618,5.4432407 L2.8591692,5.4432407 Z M19.325228,6.27414037 L19.1357649,6.18935469 C19.2161432,5.98586905 19.5376562,5.79934056 20.100304,5.62976919 L20.100304,5.62976919 L20.100304,5.81629769 L19.9969605,6.00282619 C19.9280648,6.00282619 19.893617,5.96891192 19.893617,5.90108337 C19.572104,6.14978804 19.382641,6.27414037 19.325228,6.27414037 L19.325228,6.27414037 Z M25.2330294,6.6641545 L25.0435664,6.6641545 C25.112462,6.31370702 25.1469098,6.05934998 25.1469098,5.90108337 L25.1469098,5.90108337 L25.3363728,5.90108337 L25.3363728,6.18935469 L25.2330294,6.6641545 Z M8.5775076,7.03721149 L8.38804458,7.03721149 C8.38804458,6.91285916 8.31914894,6.850683 8.18135765,6.850683 C8.44545762,6.38718794 8.7325228,6.10456901 9.04255319,6.00282619 L9.04255319,6.00282619 L9.14589666,6.00282619 L9.14589666,6.18935469 C9.14589666,6.31370702 8.98514016,6.37588318 8.66362715,6.37588318 L8.66362715,6.37588318 L8.66362715,6.46066886 L8.76697062,6.6641545 C8.64066194,6.72067829 8.54305978,6.74894018 8.47416413,6.74894018 L8.47416413,6.74894018 L8.5775076,6.93546868 L8.5775076,7.03721149 Z M27.9027356,6.27414037 L27.6099291,6.27414037 C27.6099291,6.17239755 27.6730834,6.11022138 27.7993921,6.08761187 L27.7993921,6.08761187 L27.9027356,6.08761187 L27.9027356,6.27414037 Z M15.8976697,6.6641545 L16.0010132,6.18935469 L16.0010132,6.08761187 L15.7082067,6.08761187 C15.7082067,6.15544041 15.7426545,6.25153085 15.8115502,6.37588318 L15.8115502,6.37588318 L15.7082067,6.56241168 L15.7082067,6.6641545 L15.8976697,6.6641545 Z M27.231003,6.6641545 L27.1448835,6.6641545 C27.2941574,6.40414508 27.4204661,6.27414037 27.5238095,6.27414037 L27.5238095,6.27414037 L27.5238095,6.56241168 C27.4549139,6.56241168 27.3573117,6.59632595 27.231003,6.6641545 L27.231003,6.6641545 Z M19.0496454,6.74894018 L18.9463019,6.74894018 C18.8429585,6.74894018 18.7798041,6.68676401 18.7568389,6.56241168 L18.7568389,6.56241168 L18.7568389,6.46066886 L18.9463019,6.46066886 C18.9463019,6.52849741 18.9807497,6.62458785 19.0496454,6.74894018 L19.0496454,6.74894018 Z M26.662614,7.03721149 L26.5592705,7.03721149 C26.6281662,6.91285916 26.662614,6.81676872 26.662614,6.74894018 L26.662614,6.74894018 L27.04154,6.74894018 C27.04154,6.83937824 26.9152313,6.93546868 26.662614,7.03721149 L26.662614,7.03721149 Z M8.0952381,7.49505417 L7.71631206,7.49505417 C7.71631206,7.22373999 7.87132725,7.03721149 8.18135765,6.93546868 L8.18135765,6.93546868 L8.18135765,7.03721149 L8.0952381,7.49505417 Z M9.5248227,9.08902496 L9.42147923,9.08902496 L9.42147923,8.81771079 C9.74299223,7.68723504 9.90374873,7.05982101 9.90374873,6.93546868 L9.90374873,6.93546868 L10.0070922,6.93546868 L10.0070922,7.41026849 C10.0070922,7.65897315 9.8463357,8.21855864 9.5248227,9.08902496 L9.5248227,9.08902496 Z M15.6220871,7.30852567 C15.7483958,7.30852567 15.8115502,7.24634951 15.8115502,7.12199717 L15.8115502,7.12199717 L15.8115502,6.93546868 L15.6220871,6.93546868 L15.6220871,7.30852567 Z M4.94326241,13.4978804 L4.75379939,13.4978804 C4.75379939,13.1813472 5.16717325,12.4917569 5.99392097,11.4291098 C6.94697737,10.0612341 8.06079027,8.65944418 9.33535968,7.22373999 L9.33535968,7.22373999 L9.42147923,7.22373999 L9.42147923,7.41026849 C8.7325228,8.71031559 8.38804458,9.49034385 8.38804458,9.75035327 L8.38804458,9.75035327 L8.38804458,9.85209609 L8.5775076,9.85209609 L8.5775076,9.93688177 L8.38804458,9.93688177 C8.27321851,9.93688177 7.66464032,10.6547339 6.56231003,12.0904381 L6.56231003,12.0904381 L6.56231003,12.1921809 L6.76899696,12.1921809 L6.6656535,12.3787094 C6.59675785,12.3787094 6.56231003,12.3447951 6.56231003,12.2769666 C6.45896657,12.2769666 6.30395137,12.3391427 6.09726444,12.4634951 C6.09726444,12.5313236 6.12597096,12.627414 6.18338399,12.7517664 L6.18338399,12.7517664 L6.18338399,12.836552 L6.09726444,12.836552 L6.09726444,12.7517664 C5.70685579,12.7517664 5.32218845,13.000471 4.94326241,13.4978804 L4.94326241,13.4978804 Z M24.5612969,8.34291098 L24.3718338,8.34291098 C24.3718338,8.28638719 24.4062817,8.25812529 24.4751773,8.25812529 C24.6474164,7.70419218 24.8368794,7.38765897 25.0435664,7.30852567 L25.0435664,7.30852567 L25.1469098,7.30852567 L25.1469098,7.41026849 L24.5612969,8.34291098 Z M18.0851064,7.78332548 L17.9989868,7.78332548 L17.9989868,7.68158267 C18.1023303,7.50070655 18.1999325,7.41026849 18.2917933,7.41026849 L18.2917933,7.41026849 L18.2917933,7.59679699 C18.2917933,7.72114932 18.2228977,7.78332548 18.0851064,7.78332548 L18.0851064,7.78332548 Z M6.37284701,9.37729628 L6.28672746,9.37729628 L6.28672746,9.19076778 C6.60824046,8.64813943 7.02161432,8.14507772 7.52684904,7.68158267 C7.52684904,7.79463024 7.4636947,7.95289684 7.33738602,8.15638248 L7.33738602,8.15638248 L7.42350557,8.34291098 C7.25126646,8.34291098 6.90104694,8.68770608 6.37284701,9.37729628 L6.37284701,9.37729628 Z M23.6139818,8.15638248 L23.6139818,8.05463966 C23.6139818,7.95289684 23.6771361,7.89072068 23.8034448,7.86811116 L23.8034448,7.86811116 L23.9067882,7.86811116 C23.8034448,8.06029204 23.7058426,8.15638248 23.6139818,8.15638248 L23.6139818,8.15638248 Z M16.4660588,10.3099388 L16.3799392,10.3099388 L16.3799392,10.2251531 C16.6325566,9.41121055 16.8851739,9.00423928 17.1377913,9.00423928 L17.1377913,9.00423928 L17.1377913,8.52943947 L17.0516717,8.34291098 C17.3042891,8.34291098 17.4305978,8.21855864 17.4305978,7.96985398 L17.4305978,7.96985398 L17.5167173,7.96985398 C17.5167173,8.16203486 17.5511651,8.38247763 17.6200608,8.63118229 C17.0803783,9.08337259 16.6957109,9.64295808 16.4660588,10.3099388 L16.4660588,10.3099388 Z M5.33941236,8.63118229 L5.33941236,8.34291098 L5.52887538,8.34291098 L5.52887538,8.44465379 C5.52887538,8.56900612 5.46572104,8.63118229 5.33941236,8.63118229 L5.33941236,8.63118229 Z M22.8561297,9.37729628 L22.7527862,9.37729628 L22.7527862,9.27555346 C22.8216819,9.16250589 22.8561297,9.07206783 22.8561297,9.00423928 L22.8561297,9.00423928 L23.0455927,9.00423928 C22.919284,9.15120113 22.8561297,9.27555346 22.8561297,9.37729628 L22.8561297,9.37729628 Z M5.80445795,10.1234103 L5.7183384,10.1234103 L5.7183384,9.93688177 C5.97095576,9.68817711 6.09726444,9.50164861 6.09726444,9.37729628 L6.09726444,9.37729628 L6.18338399,9.37729628 L6.18338399,9.64861046 C6.02262749,9.96514366 5.89631881,10.1234103 5.80445795,10.1234103 L5.80445795,10.1234103 Z M5.52887538,14.1592087 L5.33941236,13.8709374 C5.54609929,13.8709374 6.02262749,13.5261423 6.76899696,12.836552 C6.76899696,12.7800283 6.73454914,12.7517664 6.6656535,12.7517664 C7.01013171,12.4465379 7.61296859,11.790862 8.47416413,10.7847386 C8.47416413,10.71691 8.44545762,10.6208196 8.38804458,10.4964673 C8.82438365,9.99905794 9.04255319,9.716439 9.04255319,9.64861046 L9.04255319,9.64861046 L9.04255319,9.56382478 L8.95643364,9.37729628 L9.23201621,9.37729628 C9.35832489,9.37729628 9.42147923,9.43947244 9.42147923,9.56382478 L9.42147923,9.56382478 L9.42147923,9.64861046 C9.35258359,9.64861046 9.26072273,9.68252473 9.14589666,9.75035327 C9.14589666,9.81818182 9.17460317,9.85209609 9.23201621,9.85209609 C9.23201621,9.97644842 9.16886187,10.0386246 9.04255319,10.0386246 L9.04255319,10.0386246 L9.14589666,10.4964673 C8.96217494,10.4964673 8.80141844,10.6208196 8.66362715,10.8695243 L8.66362715,10.8695243 L8.76697062,11.0560528 C8.64066194,11.0560528 8.51435326,11.1521432 8.38804458,11.3443241 C8.27321851,11.7739049 7.79669031,12.3674046 6.95845998,13.1248234 L6.95845998,13.1248234 L7.04457953,13.3113519 C6.9871665,13.3113519 6.95845998,13.3452661 6.95845998,13.4130947 L6.95845998,13.4130947 L6.76899696,13.3113519 L6.37284701,13.5996232 C6.22357312,14.0970325 6.0341101,14.3457372 5.80445795,14.3457372 L5.80445795,14.3457372 L5.52887538,14.1592087 Z M23.1317123,9.85209609 L23.0455927,9.85209609 L23.0455927,9.75035327 C23.1030057,9.62600094 23.1317123,9.5299105 23.1317123,9.46208196 L23.1317123,9.46208196 L23.2350557,9.46208196 L23.2350557,9.56382478 C23.1661601,9.68817711 23.1317123,9.78426755 23.1317123,9.85209609 L23.1317123,9.85209609 Z M22.1843972,10.1234103 L22.1843972,10.0386246 C22.1843972,9.92557701 22.2475515,9.86340085 22.3738602,9.85209609 L22.3738602,9.85209609 L22.4772036,9.85209609 C22.3738602,10.0329722 22.276258,10.1234103 22.1843972,10.1234103 L22.1843972,10.1234103 Z M12.2806484,15.4649081 L12.0911854,15.4649081 C12.0911854,15.2953368 12.820331,13.9218088 14.2786221,11.3443241 C14.7264438,10.6999529 14.9503546,10.2929816 14.9503546,10.1234103 L14.9503546,10.1234103 L15.1398176,10.1234103 L15.1398176,10.4116816 C15.0364742,10.5925577 14.938872,10.6829958 14.8470111,10.6829958 C14.8470111,10.7282148 14.2786221,11.7626001 13.141844,13.7861517 C12.9466396,14.4079133 12.7227288,14.7187942 12.4701114,14.7187942 L12.4701114,14.7187942 L12.4701114,14.820537 L12.5734549,15.0070655 C12.3782506,15.0070655 12.2806484,15.1596797 12.2806484,15.4649081 L12.2806484,15.4649081 Z M9.5248227,10.5982101 L9.42147923,10.5982101 L9.42147923,10.4116816 L9.5248227,10.2251531 C9.65113137,10.2251531 9.71428571,10.2873293 9.71428571,10.4116816 C9.71428571,10.5360339 9.65113137,10.5982101 9.5248227,10.5982101 L9.5248227,10.5982101 Z M4.47821682,12.836552 L4.37487335,12.836552 L4.56433637,12.4634951 L4.37487335,12.3787094 C4.37487335,12.209138 4.43802769,12.0226095 4.56433637,11.8191239 L4.56433637,11.8191239 L5.52887538,10.2251531 L5.80445795,10.2251531 C5.64370145,10.3495054 5.32792975,10.8186528 4.85714286,11.6325954 L4.85714286,11.6325954 L4.85714286,11.7173811 L5.04660588,11.7173811 C5.17291456,11.5138954 5.2360689,11.3895431 5.2360689,11.3443241 L5.2360689,11.3443241 L5.33941236,11.3443241 L5.33941236,11.4291098 C4.81121243,12.3674046 4.52414725,12.836552 4.47821682,12.836552 L4.47821682,12.836552 Z M20.289767,14.3457372 L20.1864235,14.3457372 C21.047619,12.8082902 21.7136103,11.6834668 22.1843972,10.9712671 L22.1843972,10.9712671 L22.3738602,10.9712671 C22.3738602,11.2199717 22.218845,11.5025907 21.9088146,11.8191239 C21.1394799,13.2774376 20.5997974,14.119642 20.289767,14.3457372 L20.289767,14.3457372 Z M29.9007092,12.0056524 L29.9007092,11.8191239 C30.0270179,11.6608573 30.0901722,11.5308526 30.0901722,11.4291098 L30.0901722,11.4291098 L30.3829787,11.6325954 C30.3485309,11.7569477 30.1877744,11.8813 29.9007092,12.0056524 L29.9007092,12.0056524 Z M8.76697062,12.0904381 L8.5775076,12.0904381 C8.5775076,11.8417334 8.70381628,11.6552049 8.95643364,11.5308526 L8.95643364,11.5308526 L8.95643364,11.7173811 C8.83012496,11.8756477 8.76697062,12 8.76697062,12.0904381 L8.76697062,12.0904381 Z M6.95845998,12.0056524 L6.85511651,12.0056524 C6.85511651,11.8926048 6.91827085,11.8304286 7.04457953,11.8191239 L7.04457953,11.8191239 L7.147923,11.8191239 C7.147923,11.9434762 7.08476866,12.0056524 6.95845998,12.0056524 L6.95845998,12.0056524 Z M28.2816616,14.4305228 L28.2816616,14.0574659 C29.234718,12.8591616 29.7112462,12.1752237 29.7112462,12.0056524 L29.7112462,12.0056524 L29.9007092,12.0904381 C29.5447484,12.8139425 29.2289767,13.28309 28.9533941,13.4978804 L28.9533941,13.4978804 L28.9533941,13.9726802 C28.9533941,14.029204 28.7294833,14.1818182 28.2816616,14.4305228 L28.2816616,14.4305228 Z M8.28470111,12.5652379 L8.0952381,12.5652379 C8.29044242,12.3617522 8.38804458,12.2034856 8.38804458,12.0904381 L8.38804458,12.0904381 L8.47416413,12.0904381 C8.47416413,12.1582666 8.50861196,12.254357 8.5775076,12.3787094 L8.5775076,12.3787094 L8.28470111,12.5652379 Z M23.1317123,13.1248234 L22.9422492,13.1248234 L22.9422492,13.0230805 C22.9422492,12.9213377 23.0054036,12.8591616 23.1317123,12.836552 L23.1317123,12.836552 L23.1317123,13.1248234 Z M14.1925025,13.2265662 L14.0891591,13.2265662 L14.0891591,13.1248234 C14.1580547,13.000471 14.1925025,12.9043806 14.1925025,12.836552 L14.1925025,12.836552 L14.2786221,12.836552 L14.2786221,12.9382949 C14.2212091,13.0626472 14.1925025,13.1587376 14.1925025,13.2265662 L14.1925025,13.2265662 Z M3.99594732,13.9726802 C3.8122256,13.9274611 3.68591692,13.8031088 3.61702128,13.5996232 C3.91556906,13.2152614 4.13947991,13.0230805 4.2887538,13.0230805 L4.2887538,13.0230805 L4.2887538,13.1248234 C4.2887538,13.4526613 4.19115164,13.7352803 3.99594732,13.9726802 Z M7.33738602,13.5996232 L7.23404255,13.5996232 C7.39479905,13.3509185 7.52110773,13.2265662 7.61296859,13.2265662 L7.61296859,13.2265662 L7.61296859,13.4978804 C7.54407295,13.4978804 7.45221209,13.5317946 7.33738602,13.5996232 L7.33738602,13.5996232 Z M22.5633232,14.0574659 L22.3738602,14.0574659 L22.3738602,13.9726802 C22.5460993,13.5317946 22.672408,13.3113519 22.7527862,13.3113519 C22.7527862,13.3452661 22.6896319,13.5939708 22.5633232,14.0574659 L22.5633232,14.0574659 Z M3.04863222,14.4305228 L2.94528875,14.4305228 L2.94528875,14.0574659 L3.04863222,13.5996232 L3.13475177,13.5996232 L3.13475177,13.6844089 C3.13475177,13.8426755 3.10604525,14.0913801 3.04863222,14.4305228 L3.04863222,14.4305228 Z M6.56231003,14.3457372 L6.56231003,14.2439943 C6.70010132,14.0970325 6.76899696,13.9726802 6.76899696,13.8709374 L6.76899696,13.8709374 L7.147923,13.8709374 C7.02161432,14.0970325 6.82641,14.2552991 6.56231003,14.3457372 L6.56231003,14.3457372 Z M22.7527862,14.3457372 L22.7527862,14.1592087 C22.8561297,14.1592087 22.9824384,14.0970325 23.1317123,13.9726802 L23.1317123,13.9726802 L23.1317123,14.1592087 C23.0398514,14.1592087 22.9135427,14.2213848 22.7527862,14.3457372 L22.7527862,14.3457372 Z M19.1357649,16.312765 L19.0496454,16.312765 L19.0496454,16.2110221 C19.6008105,15.2275082 19.9797366,14.6340085 20.1864235,14.4305228 L20.1864235,14.4305228 L20.289767,14.4305228 C20.025667,15.2670749 19.6409997,15.8944889 19.1357649,16.312765 L19.1357649,16.312765 Z M4.37487335,15.8379651 L4.37487335,15.6514366 C4.53562985,15.6514366 5.13846673,15.2444654 6.18338399,14.4305228 L6.18338399,14.4305228 L6.47619048,14.4305228 L6.47619048,14.5322657 C5.90206011,15.1879416 5.20162107,15.6231748 4.37487335,15.8379651 L4.37487335,15.8379651 Z M27.9027356,15.0070655 L27.7132725,15.0070655 C27.7132725,14.8940179 27.7764269,14.8318417 27.9027356,14.820537 L27.9027356,14.820537 L28.0921986,14.820537 C28.0921986,14.9448893 28.0290442,15.0070655 27.9027356,15.0070655 L27.9027356,15.0070655 Z M27.1448835,15.8379651 C27.2022965,15.4083844 27.2941574,15.193594 27.4204661,15.193594 L27.4204661,15.193594 L27.5238095,15.193594 C27.5238095,15.2614225 27.552516,15.3518606 27.6099291,15.4649081 C27.5869639,15.6005652 27.4319487,15.7249176 27.1448835,15.8379651 Z M21.2370821,16.312765 L21.047619,16.312765 C21.047619,16.0866698 21.1739277,15.8379651 21.4265451,15.566651 L21.4265451,15.566651 L21.6160081,15.566651 C21.3633907,15.8718794 21.2370821,16.1205841 21.2370821,16.312765 L21.2370821,16.312765 Z M11.2299899,17.3471503 L11.1438703,17.3471503 L11.1438703,17.0588789 C11.649105,16.2110221 11.9017224,15.7136128 11.9017224,15.566651 L11.9017224,15.566651 L12.1945289,15.566651 L12.1945289,15.6514366 L11.2299899,17.3471503 Z M25.6119554,17.8049929 L25.5258359,17.8049929 C25.812901,17.3075836 26.0310706,17.0588789 26.1803445,17.0588789 L26.1803445,17.0588789 L26.1803445,16.9740933 L26.0942249,16.7875648 C26.6339075,16.2788507 26.9496792,16.0244936 27.04154,16.0244936 L27.04154,16.0244936 L27.1448835,16.0244936 L27.1448835,16.2110221 L27.04154,16.2110221 C26.8807835,16.4710316 26.7544748,16.6010363 26.662614,16.6010363 C26.3181358,17.1775789 25.9679162,17.5788978 25.6119554,17.8049929 L25.6119554,17.8049929 Z M18.5673759,16.4145078 L18.4812563,16.4145078 L18.4812563,16.312765 C18.5386694,16.1884126 18.5673759,16.0923222 18.5673759,16.0244936 L18.5673759,16.0244936 L18.6707194,16.0244936 L18.6707194,16.1262365 C18.6018237,16.2505888 18.5673759,16.3466792 18.5673759,16.4145078 L18.5673759,16.4145078 Z M19.8074975,16.9740933 L19.6180344,16.9740933 C19.6754475,16.8610457 19.704154,16.7366934 19.704154,16.6010363 L19.704154,16.6010363 L19.8074975,16.6010363 L19.8074975,16.9740933 Z M19.0496454,18.3815356 L18.6707194,18.3815356 C19.0381628,17.6919454 19.2563323,17.3471503 19.325228,17.3471503 L19.325228,17.3471503 L19.4285714,17.3471503 L19.0496454,18.3815356 Z M10.8510638,17.8049929 L10.7649443,17.8049929 C10.8223573,17.7032501 10.8510638,17.5788978 10.8510638,17.4319359 L10.8510638,17.4319359 L11.0405268,17.4319359 L11.0405268,17.6184644 C11.0405268,17.7428168 10.9773725,17.8049929 10.8510638,17.8049929 L10.8510638,17.8049929 Z M24.7507599,18.9411211 L24.6646403,18.9411211 L24.6646403,18.8393782 C24.9172577,18.4889308 25.0435664,18.2402261 25.0435664,18.0932642 L25.0435664,18.0932642 L25.2330294,18.1950071 L25.3363728,18.1950071 L25.3363728,17.9915214 L25.4224924,17.9915214 L25.4224924,18.0932642 C25.1813576,18.5680641 24.9574468,18.850683 24.7507599,18.9411211 L24.7507599,18.9411211 Z M19.6180344,18.7545926 L19.4285714,18.7545926 L19.4285714,18.5680641 C19.6122931,18.4097975 19.704154,18.2515309 19.704154,18.0932642 C19.8304627,18.0932642 19.893617,18.1554404 19.893617,18.2797927 L19.893617,18.2797927 L19.893617,18.3815356 C19.7098953,18.3815356 19.6180344,18.5058879 19.6180344,18.7545926 L19.6180344,18.7545926 Z M25.9047619,18.6528497 L25.8014184,18.6528497 C25.8014184,18.5511069 25.8645728,18.4889308 25.9908815,18.4663212 L25.9908815,18.4663212 L26.0942249,18.4663212 C26.0942249,18.5906736 26.0310706,18.6528497 25.9047619,18.6528497 L25.9047619,18.6528497 Z M22.8561297,21.179463 L22.7527862,21.179463 C23.3039514,20.3089967 23.8780817,19.5911446 24.4751773,19.0259067 C24.601486,19.0259067 24.6646403,19.0880829 24.6646403,19.2124352 L24.6646403,19.2124352 L24.6646403,19.314178 C24.5612969,19.4950542 24.337386,19.6533208 23.9929078,19.7889779 C23.9929078,20.2298634 23.6139818,20.6933585 22.8561297,21.179463 L22.8561297,21.179463 Z M18.1884498,19.5007065 L18.1884498,19.1276496 C18.3147585,19.1841733 18.4123607,19.2124352 18.4812563,19.2124352 C18.3779129,19.4046161 18.2803107,19.5007065 18.1884498,19.5007065 L18.1884498,19.5007065 Z M25.2330294,19.5007065 L25.1469098,19.5007065 C25.2387707,19.3085257 25.3306315,19.2124352 25.4224924,19.2124352 L25.4224924,19.2124352 L25.4224924,19.314178 C25.4224924,19.4385304 25.3593381,19.5007065 25.2330294,19.5007065 L25.2330294,19.5007065 Z M17.8956434,20.060292 L17.7061803,20.060292 C17.832489,19.9133302 17.8956434,19.7889779 17.8956434,19.687235 L17.8956434,19.687235 L18.0851064,19.687235 L18.0851064,19.8737635 C18.0851064,19.9981159 18.021952,20.060292 17.8956434,20.060292 L17.8956434,20.060292 Z M24.3718338,20.6198775 L24.1823708,20.6198775 L24.1823708,20.433349 L24.5612969,20.433349 C24.5612969,20.5577014 24.4981425,20.6198775 24.3718338,20.6198775 L24.3718338,20.6198775 Z M24.1823708,21.0946773 L23.9929078,21.0946773 L23.9929078,20.806406 L24.1823708,20.806406 L24.1823708,21.0946773 Z M19.9969605,25.0287329 L19.9969605,24.8422044 C20.3184735,24.4013189 20.5079365,24.1808761 20.5653495,24.1808761 C21.369132,22.8921338 22.0351233,22.0216675 22.5633232,21.5694772 L22.5633232,21.5694772 L22.6666667,21.5694772 C21.7710233,22.9034385 21.2600473,23.5873764 21.1337386,23.6212906 C20.7203647,24.3221856 20.3414387,24.791333 19.9969605,25.0287329 L19.9969605,25.0287329 Z M23.0455927,22.2138483 L22.9422492,22.2138483 C23.0455927,22.0329722 23.1431949,21.9425341 23.2350557,21.9425341 L23.2350557,21.9425341 L23.3383992,21.9425341 C23.2350557,22.1234103 23.1374536,22.2138483 23.0455927,22.2138483 L23.0455927,22.2138483 Z M22.9422492,22.5869053 L22.7527862,22.5869053 L22.7527862,22.5021196 C22.7527862,22.4003768 22.8159406,22.3382007 22.9422492,22.3155911 L22.9422492,22.3155911 L22.9422492,22.5869053 Z M23.2350557,23.0617051 L23.1317123,23.0617051 C23.2350557,22.8695243 23.3326579,22.7734338 23.4245187,22.7734338 L23.4245187,22.7734338 L23.4245187,22.8751766 C23.4245187,22.999529 23.3613644,23.0617051 23.2350557,23.0617051 L23.2350557,23.0617051 Z M17.4305978,23.0617051 L17.1377913,23.0617051 C17.1377913,22.9599623 17.2009456,22.8977862 17.3272543,22.8751766 L17.3272543,22.8751766 L17.4305978,22.8751766 L17.4305978,23.0617051 Z M21.8054711,23.8078191 L21.7193516,23.8078191 C21.8686255,23.5591145 21.9949341,23.4347621 22.0982776,23.4347621 L22.0982776,23.4347621 L22.1843972,23.4347621 L22.1843972,23.5365049 C22.1843972,23.626943 22.0580885,23.7173811 21.8054711,23.8078191 L21.8054711,23.8078191 Z M17.8956434,28.77626 L17.8956434,28.5049458 C18.0678825,27.8379651 18.2630868,27.3688177 18.4812563,27.0975035 C19.3309693,26.0009421 19.7730496,25.3452661 19.8074975,25.1304757 L19.8074975,25.1304757 L19.893617,25.1304757 L19.893617,25.3170042 C19.4343127,26.1987753 19.118541,26.7300989 18.9463019,26.910975 C19.0151976,27.0127179 19.0496454,27.1370702 19.0496454,27.284032 L19.0496454,27.284032 L19.0496454,27.4705605 L17.8956434,28.77626 Z M20.3758865,26.1479039 L20.1864235,26.1479039 C20.1864235,25.8991992 20.3127322,25.7126707 20.5653495,25.5883184 L20.5653495,25.5883184 L20.3758865,26.1479039 Z M19.0496454,28.2166745 L18.9463019,28.2166745 L18.9463019,28.1318888 C19.0840932,27.657089 19.3711584,27.1540273 19.8074975,26.6227037 L19.8074975,26.6227037 L19.9969605,26.6227037 L19.9969605,26.7244465 L19.893617,26.7244465 C19.3309693,27.6175224 19.0496454,28.1149317 19.0496454,28.2166745 L19.0496454,28.2166745 Z M25.5258359,29.6241168 L25.3363728,29.5393311 L25.1469098,29.6241168 L25.1469098,29.4375883 C25.2617359,29.4375883 25.4167511,29.2793217 25.6119554,28.9627885 L25.6119554,28.9627885 L25.5258359,29.6241168 Z M24.4751773,30.9298163 C24.279973,30.8393782 24.1823708,30.7489402 24.1823708,30.6585021 L24.1823708,30.6585021 L24.1823708,30.5567593 C24.412023,30.5567593 24.6703816,30.3419689 24.9574468,29.9123881 C24.9574468,30.2741404 24.7966903,30.6132831 24.4751773,30.9298163 Z M17.9989868,30.4719736 L17.8956434,30.4719736 L17.8956434,30.3702308 L17.9989868,29.9971738 L18.0851064,29.9971738 L18.0851064,30.0989166 L17.9989868,30.4719736 Z M25.0435664,31.1333019 L25.1469098,30.7432878 L25.2330294,30.7432878 L25.4224924,30.8450306 C25.4224924,30.9354687 25.2961837,31.0315591 25.0435664,31.1333019 L25.0435664,31.1333019 Z M24.8541033,31.5063589 L24.8541033,31.4046161 L24.9574468,31.2180876 L25.2330294,31.2180876 L25.2330294,31.3198304 C25.1296859,31.3198304 25.0033772,31.3820066 24.8541033,31.5063589 L24.8541033,31.5063589 Z M23.4245187,32.7103156 L23.3383992,32.7103156 C23.7173252,32.4163919 23.9067882,32.1676872 23.9067882,31.9642016 C24.3431273,31.8398493 24.5612969,31.6533208 24.5612969,31.4046161 L24.5612969,31.4046161 L24.6646403,31.4046161 L24.6646403,31.8794159 C24.5038838,31.8794159 24.4062817,32.0037683 24.3718338,32.2524729 L24.3718338,32.2524729 L23.9067882,32.1507301 C23.9067882,32.5237871 23.7460317,32.7103156 23.4245187,32.7103156 L23.4245187,32.7103156 Z M22.7527862,32.4390014 L22.7527862,32.2524729 C22.8905775,31.9585492 23.2120905,31.7381065 23.7173252,31.5911446 L23.7173252,31.5911446 L23.7173252,31.7776731 C23.6254644,31.7776731 23.3039514,31.9981159 22.7527862,32.4390014 L22.7527862,32.4390014 Z M24.5612969,32.6255299 L24.3718338,32.6255299 L24.3718338,32.8120584 L24.2857143,32.8120584 L24.2857143,32.7103156 C24.3775751,32.5294395 24.469436,32.4390014 24.5612969,32.4390014 L24.5612969,32.4390014 L24.5612969,32.6255299 Z M5.52887538,14.1592087 L5.52887538,14.2439943 C5.52887538,14.3231276 5.11550152,14.6057466 4.2887538,15.0918512 L4.2887538,15.0918512 L4.09929078,15.0918512 L4.09929078,14.9053227 C4.16818642,14.9053227 4.4495103,14.8092322 4.94326241,14.6170513 L4.94326241,14.6170513 L4.75379939,14.3457372 L4.75379939,14.2439943 C4.82269504,14.2439943 4.9202972,14.2779086 5.04660588,14.3457372 C5.25329281,14.2213848 5.41404931,14.1592087 5.52887538,14.1592087 L5.52887538,14.1592087 Z M22.9422492,33.6599152 L22.7527862,33.6599152 C22.3738602,33.7842675 22.1843972,33.9368818 22.1843972,34.1177579 L22.1843972,34.1177579 L21.9949341,34.0329722 L21.7193516,34.0329722 C21.7193516,34.2590674 21.4322864,34.507772 20.858156,34.7790862 L20.858156,34.7790862 L20.668693,34.7790862 C21.1739277,34.4060292 21.4265451,34.1573245 21.4265451,34.0329722 C22.1269841,33.8181818 22.4772036,33.597739 22.4772036,33.3716439 C22.5346167,33.3716439 22.5633232,33.4055582 22.5633232,33.4733867 L22.5633232,33.4733867 L22.8561297,33.2868582 L22.9422492,33.6599152 Z M22.9422492,33.6599152 L23.1317123,33.6599152 C23.3269166,33.5581724 23.4245187,33.462082 23.4245187,33.3716439 C23.4934144,33.3716439 23.5910165,33.4055582 23.7173252,33.4733867 C24.2570078,33.089025 24.5383316,32.8346679 24.5612969,32.7103156 L24.5612969,32.7103156 L24.5612969,32.6255299 L24.6646403,32.6255299 C24.8598446,32.5237871 24.9574468,32.4276967 24.9574468,32.3372586 L24.9574468,32.3372586 L24.9574468,32.2524729 L24.9820013,32.2467227 C25.1250372,32.1960274 25.4613306,31.8248871 25.9908815,31.1333019 C25.9908815,30.9863401 25.9621749,30.8563354 25.9047619,30.7432878 L25.9047619,30.7432878 L26.1803445,30.2854451 C26.1803445,30.2063118 26.0540358,30.1441357 25.8014184,30.0989166 L25.8014184,30.0989166 L25.9908815,29.8106453 L25.9047619,29.6241168 C25.9621749,29.6241168 25.9908815,29.4997645 25.9908815,29.2510598 L25.9908815,29.2510598 L26.1803445,29.2510598 C26.1803445,29.6919454 26.2779466,29.9123881 26.473151,29.9123881 L26.473151,29.9123881 L26.473151,29.7258596 L26.3698075,29.5393311 C26.6339075,29.3471503 26.7659574,29.2171455 26.7659574,29.149317 L26.7659574,29.149317 L26.7659574,29.0645313 C26.6970618,29.0645313 26.5994596,29.0927932 26.473151,29.149317 L26.473151,29.149317 L26.3698075,29.149317 L26.3698075,28.9627885 L26.7659574,28.8780028 L26.7659574,28.3184173 C26.7659574,28.194065 26.6683553,28.1318888 26.473151,28.1318888 C26.473151,27.984927 26.5018575,27.8549223 26.5592705,27.7418747 C26.2262749,26.8827131 25.8473489,26.2270372 25.4224924,25.7748469 L25.4224924,25.7748469 L25.3363728,25.7748469 L25.3363728,26.2496467 L25.2330294,26.2496467 L25.1469098,25.7748469 L24.9574468,25.7748469 L24.9574468,26.0631182 C25.1067207,26.2552991 25.2330294,26.6283561 25.3363728,27.1822892 L25.3363728,27.1822892 L25.2330294,27.1822892 C25.2330294,27.2501178 25.2674772,27.3462082 25.3363728,27.4705605 L25.3363728,27.4705605 L25.3363728,27.657089 L25.2330294,27.657089 L25.2330294,27.3688177 C25.0837555,27.3688177 24.8311381,27.8097033 24.4751773,28.6914743 C23.6024992,29.8332548 22.6149949,30.8337259 21.5126646,31.6928874 L21.5126646,31.6928874 L21.5126646,31.7776731 L21.6160081,31.9642016 C21.3978386,32.0320301 21.2715299,32.0659444 21.2370821,32.0659444 C19.8591692,32.879887 18.8429585,33.2868582 18.1884498,33.2868582 L18.1884498,33.2868582 L17.9989868,33.2868582 L18.0851064,32.6255299 C18.0851064,31.7437588 19.1644715,29.5562883 21.3232016,26.0631182 C21.6447146,25.7239755 21.8054711,25.4752708 21.8054711,25.3170042 C27.248227,18.4437117 29.9810875,14.910975 30.0040527,14.7187942 C32.5761567,10.9543099 33.9081391,8.26943005 34,6.6641545 C33.9311044,6.42675459 33.8966565,6.14413566 33.8966565,5.81629769 C32.9665653,4.34667923 32.3637285,3.56665097 32.0881459,3.47621291 L32.0881459,3.47621291 L31.8986829,3.47621291 L31.8986829,3.6627414 L31.7092199,3.6627414 C31.7092199,3.59491286 31.7436677,3.56099859 31.8125633,3.56099859 C31.7092199,3.38012247 31.6116177,3.28968441 31.5197568,3.28968441 L31.5197568,3.28968441 L31.4164134,3.28968441 L31.2269504,3.37447009 C31.2269504,3.3179463 31.1982438,3.28968441 31.1408308,3.28968441 L31.1408308,3.28968441 L30.3829787,3.28968441 C30.2681527,3.28968441 30.2049983,3.35186057 30.1935157,3.47621291 C29.2978723,3.72491757 28.8500507,3.93970796 28.8500507,4.12058408 C27.8969943,4.55016486 27.4204661,4.79886952 27.4204661,4.86669807 C26.9152313,5.22845031 26.662614,5.44889308 26.662614,5.52802638 L26.662614,5.52802638 L26.5592705,5.52802638 C26.5592705,4.83843618 26.2147923,4.12058408 25.5258359,3.37447009 C24.9861533,2.6283561 24.6359338,2.22138483 24.4751773,2.15355629 L24.4751773,2.15355629 L23.7173252,2.15355629 L23.7173252,1.96702779 C22.6379601,2.24964673 22.0982776,2.53226566 22.0982776,2.8148846 C22.0982776,2.93923693 22.1901385,3.00141309 22.3738602,3.00141309 L22.3738602,3.00141309 L22.3738602,3.28968441 C21.9375211,3.33490344 21.7193516,3.52143194 21.7193516,3.8492699 C21.0763256,3.98492699 20.7548126,4.13754122 20.7548126,4.30711258 C20.3184735,4.30711258 20.100304,4.46537918 20.100304,4.78191239 C18.6994259,6.16109279 17.9989868,6.91285916 17.9989868,7.03721149 L17.9989868,7.03721149 L17.8956434,7.03721149 L17.6200608,6.850683 L17.6200608,6.93546868 L17.8095238,7.22373999 L17.8095238,7.30852567 L17.7061803,7.30852567 C17.3961499,7.74941121 17.1779804,7.96985398 17.0516717,7.96985398 C17.0516717,7.50635893 17.5281999,6.72633066 18.4812563,5.62976919 C19.8706518,4.45407442 20.5653495,3.79839849 20.5653495,3.6627414 L20.5653495,3.6627414 L20.47923,3.6627414 C20.21513,3.6627414 19.2276258,4.53320772 17.5167173,6.27414037 L17.5167173,6.27414037 L17.4305978,6.27414037 C17.4305978,6.0254357 17.4593043,5.77673104 17.5167173,5.52802638 C17.5167173,4.44276967 17.2353934,3.6627414 16.6727457,3.18794159 C16.0756501,1.93311352 15.3120567,1.30569948 14.3819656,1.30569948 C13.3026005,1.4074423 11.970618,1.9387659 10.3860182,2.89967028 L10.3860182,2.89967028 L10.4721378,3.08619878 L10.0932118,3.08619878 C8.83012496,1.02873293 7.52684904,0 6.18338399,0 C5.14994934,0.0678285445 4.58156028,0.163918983 4.47821682,0.288271314 L4.47821682,0.288271314 L4.47821682,0.186528497 C3.90408646,0.186528497 3.07733874,0.689590203 1.99797366,1.69571361 C0.665991219,3.54969383 0,4.95148375 0,5.90108337 L0,5.90108337 L0.292806484,7.22373999 L1.24012158,7.86811116 L1.4295846,7.78332548 L1.32624113,7.30852567 L1.32624113,6.850683 L1.51570415,6.850683 L1.51570415,6.46066886 L1.61904762,6.00282619 L1.80851064,6.00282619 C1.80851064,6.18370231 1.7453563,6.40414508 1.61904762,6.6641545 C1.61904762,6.78850683 1.68220196,6.850683 1.80851064,6.850683 L1.80851064,6.850683 L1.9118541,6.850683 L1.9118541,6.56241168 C2.40560621,5.37541215 2.75008443,4.78191239 2.94528875,4.78191239 C4.20837555,3.22185586 5.57480581,2.4418276 7.04457953,2.4418276 C7.04457953,2.49835139 7.07902736,2.52661328 7.147923,2.52661328 C7.21681864,2.52661328 7.3086795,2.49835139 7.42350557,2.4418276 C8.11246201,2.4418276 8.77845323,2.8148846 9.42147923,3.56099859 L9.42147923,3.56099859 L9.42147923,3.6627414 L9.23201621,3.56099859 L9.14589666,3.56099859 L9.14589666,3.74752708 L9.42147923,3.74752708 C9.18034448,4.18841262 8.83586626,4.40885539 8.38804458,4.40885539 L8.38804458,4.40885539 L8.5775076,4.68016957 L8.47416413,4.68016957 L8.28470111,4.59538389 C8.28470111,4.65190768 8.18709895,4.71408384 7.99189463,4.78191239 L7.99189463,4.78191239 L8.0952381,5.2567122 L7.90577508,5.2567122 L7.71631206,5.15496938 L5.99392097,7.12199717 C5.99392097,7.26895902 6.02836879,7.39331135 6.09726444,7.49505417 C6.02836879,7.6194065 5.99392097,7.71549694 5.99392097,7.78332548 L5.99392097,7.78332548 L5.80445795,7.78332548 L5.99392097,7.49505417 L5.99392097,7.41026849 C5.66092536,7.62505888 5.28199932,8.12246821 4.85714286,8.90249647 L4.85714286,8.90249647 L4.85714286,9.00423928 L5.04660588,8.90249647 L5.04660588,9.19076778 C4.97771023,9.19076778 4.88010807,9.21902967 4.75379939,9.27555346 C4.75379939,9.21902967 4.72509287,9.19076778 4.66767984,9.19076778 L4.66767984,9.19076778 L4.47821682,9.27555346 L4.56433637,9.46208196 L4.75379939,9.37729628 C4.75379939,9.52425813 4.62749071,9.74470089 4.37487335,10.0386246 L4.37487335,10.0386246 L4.2887538,10.0386246 L4.2887538,9.85209609 C4.09354948,9.94253415 3.99594732,10.0329722 3.99594732,10.1234103 L3.99594732,10.1234103 L3.99594732,10.2251531 L4.18541033,10.2251531 L4.18541033,10.3099388 L3.99594732,10.3099388 C2.79027356,11.7343382 2.18743668,13.0456901 2.18743668,14.2439943 C2.18743668,14.5831371 2.31374536,14.8035798 2.56636272,14.9053227 C3.35866261,16.148846 3.8064843,16.77626 3.90982776,16.7875648 L3.90982776,16.7875648 L4.2887538,16.7875648 C4.46099291,16.7875648 4.65045593,16.7253886 4.85714286,16.6010363 C6.63694698,15.6288271 7.52684904,14.9053227 7.52684904,14.4305228 L7.52684904,14.4305228 L7.71631206,14.5322657 C8.0952381,14.3174753 8.28470111,14.0065944 8.28470111,13.5996232 C8.41100979,13.5996232 8.47416413,13.6617993 8.47416413,13.7861517 C9.17460317,13.0174282 9.6855792,12.2317475 10.0070922,11.4291098 C10.6156704,10.0386246 11.0233029,8.51248234 11.2299899,6.850683 L11.2299899,6.850683 L11.2299899,6.37588318 L11.1438703,5.71455488 C11.1898007,5.71455488 11.2816616,5.56194065 11.4194529,5.2567122 C11.649105,5.03061705 12.3839919,4.56146962 13.6241135,3.8492699 C13.6815265,3.8492699 13.710233,3.87753179 13.710233,3.93405558 C14.5140155,3.68535092 14.9618372,3.56099859 15.0536981,3.56099859 C15.6852415,3.62882713 16.0010132,3.72491757 16.0010132,3.8492699 L16.0010132,3.8492699 L16.0010132,4.30711258 L16.0871327,4.30711258 L16.2765957,4.2223269 L16.3799392,4.68016957 L16.3799392,4.96844089 C16.3799392,5.28497409 16.2536305,5.4432407 16.0010132,5.4432407 L16.0010132,5.4432407 L16.0010132,5.52802638 C16.3340088,5.59585492 16.5234718,5.62976919 16.5694022,5.62976919 L16.5694022,5.62976919 L16.5694022,6.08761187 C16.5005066,6.08761187 16.4029044,6.12152614 16.2765957,6.18935469 C16.092874,7.47809703 15.8402567,8.16768724 15.5187437,8.25812529 L15.5187437,8.25812529 L15.5187437,8.15638248 L15.6220871,7.49505417 L15.5187437,7.49505417 C15.4383654,7.49505417 15.2833502,7.81158738 15.0536981,8.44465379 C14.9848024,8.44465379 14.9503546,8.41073952 14.9503546,8.34291098 C14.7895981,8.47856806 14.4738264,9.13424399 14.0030395,10.3099388 C13.6470787,11.0334432 13.2968592,11.5986811 12.952381,12.0056524 C12.3208376,13.4413566 11.2070247,15.5044748 9.61094225,18.1950071 C8.94495103,19.4837494 8.21580547,20.6707489 7.42350557,21.7560057 C7.64167511,22.4342911 7.86558595,22.7734338 8.0952381,22.7734338 C8.33637285,23.5195478 8.65214455,24.0226095 9.04255319,24.2826189 L9.04255319,24.2826189 L9.14589666,24.2826189 L9.42147923,24.0960904 C9.76595745,23.044748 10.0874704,22.3551578 10.3860182,22.0273198 C11.3161094,20.0715968 12.4873354,17.9180405 13.899696,15.566651 L13.899696,15.566651 L13.8135765,15.3801225 L13.899696,15.3801225 C14.749409,13.7070184 15.7656197,12.0791333 16.9483283,10.4964673 L16.9483283,10.4964673 L16.9483283,10.4116816 L16.8622087,10.2251531 C17.1148261,10.2251531 17.2411348,10.1290626 17.2411348,9.93688177 C17.6200608,9.66556759 18.1597433,9.1059821 18.8601824,8.25812529 C19.0668693,8.25812529 19.2850388,8.00376825 19.514691,7.49505417 C20.3414387,6.86198775 20.7548126,6.45501649 20.7548126,6.27414037 C22.1327254,5.16627414 23.3383992,4.51059821 24.3718338,4.30711258 L24.3718338,4.30711258 L24.5612969,4.30711258 L25.2330294,4.40885539 L25.2330294,4.78191239 C25.0033772,4.78191239 24.8426207,5.18888366 24.7507599,6.00282619 C24.8196555,6.00282619 24.8541033,6.03108808 24.8541033,6.08761187 C24.4062817,6.59632595 24.1823708,7.09938766 24.1823708,7.59679699 L24.1823708,7.59679699 L23.9929078,7.49505417 C23.6713948,7.68723504 23.3556231,8.00376825 23.0455927,8.44465379 L23.0455927,8.44465379 L23.0455927,8.52943947 C23.1604188,8.52943947 23.3211753,8.46726331 23.5278622,8.34291098 L23.5278622,8.34291098 L23.6139818,8.34291098 L23.6139818,8.44465379 C23.4417427,8.44465379 23.2809862,8.59726802 23.1317123,8.90249647 L23.1317123,8.90249647 L22.9422492,8.81771079 C22.7929753,8.94206312 22.6379601,9.00423928 22.4772036,9.00423928 L22.4772036,9.00423928 L22.4772036,9.19076778 L22.5633232,9.37729628 C22.5059102,9.37729628 22.4772036,9.40555817 22.4772036,9.46208196 C22.3738602,9.46208196 22.2131037,9.5581724 21.9949341,9.75035327 C21.6619385,10.4512482 21.4093212,10.8243052 21.2370821,10.8695243 C21.2370821,10.9373528 21.2657886,10.9712671 21.3232016,10.9712671 L21.3232016,10.9712671 L20.289767,12.3787094 C19.7500844,13.6222327 19.3654171,14.2439943 19.1357649,14.2439943 L19.1357649,14.2439943 L19.2391084,14.7187942 C18.9175954,14.8431465 18.4066194,15.657089 17.7061803,17.1606218 C16.9483283,18.2571832 16.5694022,18.8789449 16.5694022,19.0259067 L16.5694022,19.0259067 L14.0030395,23.163448 C14.0030395,23.3217146 14.2556569,23.7569477 14.7608916,24.4691474 L14.7608916,24.4691474 L14.6575481,24.4691474 C14.6575481,24.536976 14.6919959,24.5708902 14.7608916,24.5708902 C15.2087133,25.3170042 15.4613306,25.6900612 15.5187437,25.6900612 L15.5187437,25.6900612 L15.6220871,25.6900612 L16.4660588,24.6556759 C17.4650456,23.1521432 18.1367781,22.2138483 18.4812563,21.8407913 C18.4812563,21.7842675 18.4468085,21.7560057 18.3779129,21.7560057 L18.3779129,21.7560057 L19.6180344,20.1620349 C20.1921648,19.1559114 21.047619,17.8728215 22.1843972,16.312765 C22.1843972,16.0979746 22.9479905,14.7244465 24.4751773,12.1921809 C25.0952381,10.4964673 25.6636272,9.39990579 26.1803445,8.90249647 C26.1803445,8.83466792 26.720027,8.3372586 27.7993921,7.41026849 C29.3150963,6.47197362 30.4920635,5.87847386 31.3302938,5.62976919 L31.3302938,5.62976919 L31.3302938,5.71455488 L31.8125633,5.62976919 L32.3809524,5.62976919 C32.656535,5.87847386 32.8115502,6.00282619 32.845998,6.00282619 C32.845998,6.86198775 32.6278284,7.54592558 32.1914894,8.05463966 C32.1225937,8.56335374 32.0249916,8.81771079 31.8986829,8.81771079 C31.8986829,8.95336788 31.9331307,9.07772021 32.0020263,9.19076778 L32.0020263,9.19076778 L32.0020263,9.27555346 L31.8986829,9.27555346 L31.8986829,9.08902496 C31.7953394,9.08902496 31.7321851,9.15120113 31.7092199,9.27555346 L31.7092199,9.27555346 L31.7092199,9.46208196 L31.8986829,9.46208196 L31.8986829,9.64861046 L31.8125633,9.64861046 L31.6231003,9.56382478 L30.9513678,10.6829958 L30.9513678,10.7847386 L31.0374873,10.9712671 L30.5724417,11.1577956 C30.4576157,11.1577956 30.3944613,11.0956194 30.3829787,10.9712671 C31.0374873,10.1686293 31.6058764,9.16815827 32.0881459,7.96985398 C31.996285,7.7776731 31.9044242,7.68158267 31.8125633,7.68158267 C31.6403242,7.68158267 31.4451199,8.18464437 31.2269504,9.19076778 L31.2269504,9.19076778 L30.8480243,9.19076778 C30.8480243,9.31512011 30.9111787,9.37729628 31.0374873,9.37729628 L31.0374873,9.37729628 L30.5724417,9.75035327 L30.5724417,9.85209609 L30.7619048,9.85209609 L30.7619048,10.0386246 C30.6930091,10.0386246 30.595407,10.0047103 30.4690983,9.93688177 L30.4690983,9.93688177 L29.3323202,11.6325954 C29.3323202,11.6891192 29.3954745,11.7173811 29.5217832,11.7173811 L29.5217832,11.7173811 L29.5217832,11.8191239 L29.3323202,11.8191239 L26.5592705,15.3801225 C25.9277271,16.0697127 25.6119554,16.4766839 25.6119554,16.6010363 C24.8541033,17.2001884 24.4751773,17.731512 24.4751773,18.1950071 L24.4751773,18.1950071 L24.2857143,18.0932642 C24.1708882,18.0932642 24.1077339,18.1554404 24.0962513,18.2797927 L24.0962513,18.2797927 L24.1823708,18.4663212 L23.9929078,18.4663212 C23.1431949,19.7098446 22.350895,20.6481394 21.6160081,21.2812058 C20.800743,22.5925577 20.3586626,23.2482336 20.289767,23.2482336 C19.4630193,24.4691474 18.9864911,25.1248234 18.8601824,25.2152614 C17.2066869,27.9284032 16.3799392,30.0536976 16.3799392,31.5911446 L16.3799392,31.5911446 L16.3799392,31.8794159 C16.3799392,32.4785681 16.6038501,33.0381536 17.0516717,33.5581724 C17.6832151,35.1182289 18.475515,35.8982572 19.4285714,35.8982572 L19.4285714,35.8982572 L19.514691,35.8982572 L19.514691,35.7117287 L19.8074975,35.7117287 L19.704154,35.8982572 L19.704154,36 L19.893617,36 C20.1462344,35.7286858 20.4677474,35.5421573 20.858156,35.4404145 L20.858156,35.4404145 L20.668693,35.1521432 L20.9442756,35.1521432 C21.0705843,35.1521432 21.1337386,35.2143194 21.1337386,35.3386717 C21.6504559,35.2143194 21.9088146,35.089967 21.9088146,34.9656147 C21.9088146,34.8638719 21.8456602,34.8016957 21.7193516,34.7790862 L21.7193516,34.7790862 L22.9422492,33.7447009 L22.9422492,33.6599152 Z" id="logo" fill="#31394D" fill-rule="nonzero"></path>
    </g>
</svg>